<mxfile host="app.diagrams.net" modified="2023-09-25T07:49:33.099Z" agent="Mozilla/5.0 (Windows NT 10.0; Win64; x64) AppleWebKit/537.36 (KHTML, like Gecko) Chrome/116.0.0.0 Safari/537.36" etag="UyVAtkO20mzznE24EQ6d" version="21.8.2" type="github" pages="7">
  <diagram name="Страница — 1" id="IXAunNYzJMYk3vZA_leA">
    <mxGraphModel dx="594" dy="1630" grid="1" gridSize="10" guides="1" tooltips="1" connect="1" arrows="1" fold="1" page="1" pageScale="1" pageWidth="827" pageHeight="1169" math="0" shadow="0">
      <root>
        <mxCell id="0" />
        <mxCell id="1" parent="0" />
        <mxCell id="6tiOYfrDWPvPFfGhZScx-3" value="MainWindow" style="swimlane;whiteSpace=wrap;html=1;startSize=30;" parent="1" vertex="1">
          <mxGeometry x="60" y="30" width="780" height="550" as="geometry" />
        </mxCell>
        <mxCell id="6tiOYfrDWPvPFfGhZScx-4" value="Devices" style="swimlane;horizontal=0;whiteSpace=wrap;html=1;startSize=20;" parent="6tiOYfrDWPvPFfGhZScx-3" vertex="1">
          <mxGeometry y="170" width="130" height="380" as="geometry" />
        </mxCell>
        <mxCell id="6tiOYfrDWPvPFfGhZScx-8" value="Device1" style="swimlane;whiteSpace=wrap;html=1;startSize=20;" parent="6tiOYfrDWPvPFfGhZScx-4" vertex="1">
          <mxGeometry x="20" width="110" height="70" as="geometry" />
        </mxCell>
        <mxCell id="lOHqtVAEgEtYh9dNK8Uh-3" style="edgeStyle=orthogonalEdgeStyle;rounded=0;orthogonalLoop=1;jettySize=auto;html=1;exitX=0.5;exitY=1;exitDx=0;exitDy=0;entryX=0.5;entryY=0;entryDx=0;entryDy=0;" parent="6tiOYfrDWPvPFfGhZScx-4" source="6tiOYfrDWPvPFfGhZScx-9" target="6tiOYfrDWPvPFfGhZScx-15" edge="1">
          <mxGeometry relative="1" as="geometry" />
        </mxCell>
        <mxCell id="6tiOYfrDWPvPFfGhZScx-9" value="Device2" style="swimlane;whiteSpace=wrap;html=1;startSize=20;" parent="6tiOYfrDWPvPFfGhZScx-4" vertex="1">
          <mxGeometry x="20" y="70" width="110" height="70" as="geometry" />
        </mxCell>
        <mxCell id="6tiOYfrDWPvPFfGhZScx-10" value="DeviceN" style="swimlane;whiteSpace=wrap;html=1;startSize=20;" parent="6tiOYfrDWPvPFfGhZScx-4" vertex="1">
          <mxGeometry x="20" y="310" width="110" height="70" as="geometry" />
        </mxCell>
        <mxCell id="6tiOYfrDWPvPFfGhZScx-15" value="Device3" style="swimlane;whiteSpace=wrap;html=1;startSize=20;" parent="6tiOYfrDWPvPFfGhZScx-4" vertex="1">
          <mxGeometry x="20" y="140" width="110" height="70" as="geometry" />
        </mxCell>
        <mxCell id="6tiOYfrDWPvPFfGhZScx-18" value="" style="ellipse;whiteSpace=wrap;html=1;aspect=fixed;fillColor=#000000;" parent="6tiOYfrDWPvPFfGhZScx-4" vertex="1">
          <mxGeometry x="70" y="230" width="10" height="10" as="geometry" />
        </mxCell>
        <mxCell id="6tiOYfrDWPvPFfGhZScx-19" value="" style="ellipse;whiteSpace=wrap;html=1;aspect=fixed;fillColor=#000000;" parent="6tiOYfrDWPvPFfGhZScx-4" vertex="1">
          <mxGeometry x="70" y="250" width="10" height="10" as="geometry" />
        </mxCell>
        <mxCell id="6tiOYfrDWPvPFfGhZScx-20" value="" style="ellipse;whiteSpace=wrap;html=1;aspect=fixed;fillColor=#000000;" parent="6tiOYfrDWPvPFfGhZScx-4" vertex="1">
          <mxGeometry x="70" y="270" width="10" height="10" as="geometry" />
        </mxCell>
        <mxCell id="6tiOYfrDWPvPFfGhZScx-5" value="ActionButtons" style="swimlane;whiteSpace=wrap;html=1;startSize=20;fillColor=#fff2cc;strokeColor=#d6b656;" parent="6tiOYfrDWPvPFfGhZScx-3" vertex="1">
          <mxGeometry y="30" width="780" height="140" as="geometry">
            <mxRectangle y="30" width="120" height="30" as="alternateBounds" />
          </mxGeometry>
        </mxCell>
        <mxCell id="6tiOYfrDWPvPFfGhZScx-21" value="DeviceActionButtons" style="swimlane;whiteSpace=wrap;html=1;startSize=20;fillColor=#ffe6cc;strokeColor=#d79b00;" parent="6tiOYfrDWPvPFfGhZScx-5" vertex="1">
          <mxGeometry y="20" width="130" height="120" as="geometry">
            <mxRectangle y="20" width="160" height="30" as="alternateBounds" />
          </mxGeometry>
        </mxCell>
        <mxCell id="6tiOYfrDWPvPFfGhZScx-59" value="Button" style="labelPosition=center;verticalLabelPosition=middle;align=center;html=1;shape=mxgraph.basic.button;dx=10;whiteSpace=wrap;" parent="6tiOYfrDWPvPFfGhZScx-21" vertex="1">
          <mxGeometry y="30" width="130" height="20" as="geometry" />
        </mxCell>
        <mxCell id="6tiOYfrDWPvPFfGhZScx-60" value="Button" style="labelPosition=center;verticalLabelPosition=middle;align=center;html=1;shape=mxgraph.basic.button;dx=10;whiteSpace=wrap;" parent="6tiOYfrDWPvPFfGhZScx-21" vertex="1">
          <mxGeometry y="60" width="130" height="20" as="geometry" />
        </mxCell>
        <mxCell id="6tiOYfrDWPvPFfGhZScx-61" value="Button" style="labelPosition=center;verticalLabelPosition=middle;align=center;html=1;shape=mxgraph.basic.button;dx=10;whiteSpace=wrap;" parent="6tiOYfrDWPvPFfGhZScx-21" vertex="1">
          <mxGeometry y="90" width="130" height="20" as="geometry" />
        </mxCell>
        <mxCell id="6tiOYfrDWPvPFfGhZScx-22" value="ParamActionButtons" style="swimlane;whiteSpace=wrap;html=1;startSize=20;fillColor=#ffe6cc;strokeColor=#d79b00;" parent="6tiOYfrDWPvPFfGhZScx-5" vertex="1">
          <mxGeometry x="130" y="20" width="130" height="120" as="geometry">
            <mxRectangle x="130" y="20" width="160" height="30" as="alternateBounds" />
          </mxGeometry>
        </mxCell>
        <mxCell id="6tiOYfrDWPvPFfGhZScx-62" value="Button" style="labelPosition=center;verticalLabelPosition=middle;align=center;html=1;shape=mxgraph.basic.button;dx=10;whiteSpace=wrap;" parent="6tiOYfrDWPvPFfGhZScx-22" vertex="1">
          <mxGeometry y="30" width="130" height="20" as="geometry" />
        </mxCell>
        <mxCell id="6tiOYfrDWPvPFfGhZScx-63" value="Button" style="labelPosition=center;verticalLabelPosition=middle;align=center;html=1;shape=mxgraph.basic.button;dx=10;whiteSpace=wrap;" parent="6tiOYfrDWPvPFfGhZScx-22" vertex="1">
          <mxGeometry y="50" width="130" height="20" as="geometry" />
        </mxCell>
        <mxCell id="6tiOYfrDWPvPFfGhZScx-64" value="Button" style="labelPosition=center;verticalLabelPosition=middle;align=center;html=1;shape=mxgraph.basic.button;dx=10;whiteSpace=wrap;" parent="6tiOYfrDWPvPFfGhZScx-22" vertex="1">
          <mxGeometry y="70" width="130" height="20" as="geometry" />
        </mxCell>
        <mxCell id="6tiOYfrDWPvPFfGhZScx-65" value="Button" style="labelPosition=center;verticalLabelPosition=middle;align=center;html=1;shape=mxgraph.basic.button;dx=10;whiteSpace=wrap;" parent="6tiOYfrDWPvPFfGhZScx-22" vertex="1">
          <mxGeometry y="90" width="130" height="20" as="geometry" />
        </mxCell>
        <mxCell id="6tiOYfrDWPvPFfGhZScx-23" value="UtilsButtons" style="swimlane;whiteSpace=wrap;html=1;startSize=20;fillColor=#ffe6cc;strokeColor=#d79b00;" parent="6tiOYfrDWPvPFfGhZScx-5" vertex="1">
          <mxGeometry x="260" y="20" width="130" height="120" as="geometry">
            <mxRectangle x="260" y="20" width="110" height="30" as="alternateBounds" />
          </mxGeometry>
        </mxCell>
        <mxCell id="6tiOYfrDWPvPFfGhZScx-66" value="Button" style="labelPosition=center;verticalLabelPosition=middle;align=center;html=1;shape=mxgraph.basic.button;dx=10;whiteSpace=wrap;" parent="6tiOYfrDWPvPFfGhZScx-23" vertex="1">
          <mxGeometry y="30" width="130" height="20" as="geometry" />
        </mxCell>
        <mxCell id="6tiOYfrDWPvPFfGhZScx-67" value="Button" style="labelPosition=center;verticalLabelPosition=middle;align=center;html=1;shape=mxgraph.basic.button;dx=10;whiteSpace=wrap;" parent="6tiOYfrDWPvPFfGhZScx-23" vertex="1">
          <mxGeometry y="60" width="130" height="20" as="geometry" />
        </mxCell>
        <mxCell id="6tiOYfrDWPvPFfGhZScx-68" value="Button" style="labelPosition=center;verticalLabelPosition=middle;align=center;html=1;shape=mxgraph.basic.button;dx=10;whiteSpace=wrap;" parent="6tiOYfrDWPvPFfGhZScx-23" vertex="1">
          <mxGeometry y="90" width="130" height="20" as="geometry" />
        </mxCell>
        <mxCell id="6tiOYfrDWPvPFfGhZScx-28" value="ArchieveButtons" style="swimlane;whiteSpace=wrap;html=1;startSize=20;fillColor=#ffe6cc;strokeColor=#d79b00;" parent="6tiOYfrDWPvPFfGhZScx-5" vertex="1">
          <mxGeometry x="390" y="20" width="130" height="120" as="geometry">
            <mxRectangle x="390" y="20" width="130" height="30" as="alternateBounds" />
          </mxGeometry>
        </mxCell>
        <mxCell id="6tiOYfrDWPvPFfGhZScx-69" value="Button" style="labelPosition=center;verticalLabelPosition=middle;align=center;html=1;shape=mxgraph.basic.button;dx=10;whiteSpace=wrap;" parent="6tiOYfrDWPvPFfGhZScx-28" vertex="1">
          <mxGeometry y="40" width="130" height="20" as="geometry" />
        </mxCell>
        <mxCell id="6tiOYfrDWPvPFfGhZScx-70" value="Button" style="labelPosition=center;verticalLabelPosition=middle;align=center;html=1;shape=mxgraph.basic.button;dx=10;whiteSpace=wrap;" parent="6tiOYfrDWPvPFfGhZScx-28" vertex="1">
          <mxGeometry y="80" width="130" height="20" as="geometry" />
        </mxCell>
        <mxCell id="6tiOYfrDWPvPFfGhZScx-34" value="OthersButtons" style="swimlane;whiteSpace=wrap;html=1;fillColor=#ffe6cc;strokeColor=#d79b00;" parent="6tiOYfrDWPvPFfGhZScx-5" vertex="1">
          <mxGeometry x="650" y="20" width="130" height="120" as="geometry" />
        </mxCell>
        <mxCell id="6tiOYfrDWPvPFfGhZScx-74" value="Button" style="labelPosition=center;verticalLabelPosition=middle;align=center;html=1;shape=mxgraph.basic.button;dx=10;whiteSpace=wrap;" parent="6tiOYfrDWPvPFfGhZScx-34" vertex="1">
          <mxGeometry y="40" width="130" height="20" as="geometry" />
        </mxCell>
        <mxCell id="6tiOYfrDWPvPFfGhZScx-75" value="Button" style="labelPosition=center;verticalLabelPosition=middle;align=center;html=1;shape=mxgraph.basic.button;dx=10;whiteSpace=wrap;" parent="6tiOYfrDWPvPFfGhZScx-34" vertex="1">
          <mxGeometry y="80" width="130" height="20" as="geometry" />
        </mxCell>
        <mxCell id="6tiOYfrDWPvPFfGhZScx-50" value="FirmwareButtons" style="swimlane;whiteSpace=wrap;html=1;fillColor=#ffe6cc;strokeColor=#d79b00;" parent="6tiOYfrDWPvPFfGhZScx-5" vertex="1">
          <mxGeometry x="520" y="20" width="130" height="120" as="geometry">
            <mxRectangle x="520" y="20" width="140" height="30" as="alternateBounds" />
          </mxGeometry>
        </mxCell>
        <mxCell id="6tiOYfrDWPvPFfGhZScx-71" value="Button" style="labelPosition=center;verticalLabelPosition=middle;align=center;html=1;shape=mxgraph.basic.button;dx=10;whiteSpace=wrap;" parent="6tiOYfrDWPvPFfGhZScx-50" vertex="1">
          <mxGeometry y="30" width="130" height="20" as="geometry" />
        </mxCell>
        <mxCell id="6tiOYfrDWPvPFfGhZScx-72" value="Button" style="labelPosition=center;verticalLabelPosition=middle;align=center;html=1;shape=mxgraph.basic.button;dx=10;whiteSpace=wrap;" parent="6tiOYfrDWPvPFfGhZScx-50" vertex="1">
          <mxGeometry y="60" width="130" height="20" as="geometry" />
        </mxCell>
        <mxCell id="6tiOYfrDWPvPFfGhZScx-73" value="Button" style="labelPosition=center;verticalLabelPosition=middle;align=center;html=1;shape=mxgraph.basic.button;dx=10;whiteSpace=wrap;" parent="6tiOYfrDWPvPFfGhZScx-50" vertex="1">
          <mxGeometry y="90" width="130" height="20" as="geometry" />
        </mxCell>
        <mxCell id="6tiOYfrDWPvPFfGhZScx-77" value="DeviceDataContainer" style="swimlane;whiteSpace=wrap;html=1;startSize=20;" parent="6tiOYfrDWPvPFfGhZScx-3" vertex="1">
          <mxGeometry x="130" y="170" width="650" height="380" as="geometry">
            <mxRectangle x="130" y="170" width="160" height="30" as="alternateBounds" />
          </mxGeometry>
        </mxCell>
        <mxCell id="6tiOYfrDWPvPFfGhZScx-79" value="Row 1" style="swimlane;whiteSpace=wrap;html=1;startSize=20;" parent="6tiOYfrDWPvPFfGhZScx-77" vertex="1">
          <mxGeometry y="20" width="650" height="40" as="geometry">
            <mxRectangle y="20" width="70" height="30" as="alternateBounds" />
          </mxGeometry>
        </mxCell>
        <mxCell id="6tiOYfrDWPvPFfGhZScx-82" value="Item1" style="rounded=0;whiteSpace=wrap;html=1;" parent="6tiOYfrDWPvPFfGhZScx-79" vertex="1">
          <mxGeometry y="20" width="110" height="20" as="geometry" />
        </mxCell>
        <mxCell id="6tiOYfrDWPvPFfGhZScx-83" value="Item2" style="rounded=0;whiteSpace=wrap;html=1;" parent="6tiOYfrDWPvPFfGhZScx-79" vertex="1">
          <mxGeometry x="110" y="20" width="110" height="20" as="geometry" />
        </mxCell>
        <mxCell id="6tiOYfrDWPvPFfGhZScx-84" value="Item3" style="rounded=0;whiteSpace=wrap;html=1;" parent="6tiOYfrDWPvPFfGhZScx-79" vertex="1">
          <mxGeometry x="220" y="20" width="110" height="20" as="geometry" />
        </mxCell>
        <mxCell id="6tiOYfrDWPvPFfGhZScx-85" value="Item4" style="rounded=0;whiteSpace=wrap;html=1;" parent="6tiOYfrDWPvPFfGhZScx-79" vertex="1">
          <mxGeometry x="330" y="20" width="110" height="20" as="geometry" />
        </mxCell>
        <mxCell id="6tiOYfrDWPvPFfGhZScx-91" value="Item5" style="rounded=0;whiteSpace=wrap;html=1;" parent="6tiOYfrDWPvPFfGhZScx-79" vertex="1">
          <mxGeometry x="440" y="20" width="110" height="20" as="geometry" />
        </mxCell>
        <mxCell id="6tiOYfrDWPvPFfGhZScx-92" value="Item6" style="rounded=0;whiteSpace=wrap;html=1;" parent="6tiOYfrDWPvPFfGhZScx-79" vertex="1">
          <mxGeometry x="540" y="20" width="110" height="20" as="geometry" />
        </mxCell>
        <mxCell id="6tiOYfrDWPvPFfGhZScx-93" value="Row 2" style="swimlane;whiteSpace=wrap;html=1;startSize=20;" parent="6tiOYfrDWPvPFfGhZScx-77" vertex="1">
          <mxGeometry y="60" width="650" height="40" as="geometry">
            <mxRectangle y="20" width="70" height="30" as="alternateBounds" />
          </mxGeometry>
        </mxCell>
        <mxCell id="6tiOYfrDWPvPFfGhZScx-94" value="Item1" style="rounded=0;whiteSpace=wrap;html=1;" parent="6tiOYfrDWPvPFfGhZScx-93" vertex="1">
          <mxGeometry y="20" width="110" height="20" as="geometry" />
        </mxCell>
        <mxCell id="6tiOYfrDWPvPFfGhZScx-95" value="Item2" style="rounded=0;whiteSpace=wrap;html=1;" parent="6tiOYfrDWPvPFfGhZScx-93" vertex="1">
          <mxGeometry x="110" y="20" width="110" height="20" as="geometry" />
        </mxCell>
        <mxCell id="6tiOYfrDWPvPFfGhZScx-96" value="Item3" style="rounded=0;whiteSpace=wrap;html=1;" parent="6tiOYfrDWPvPFfGhZScx-93" vertex="1">
          <mxGeometry x="220" y="20" width="110" height="20" as="geometry" />
        </mxCell>
        <mxCell id="6tiOYfrDWPvPFfGhZScx-97" value="Item4" style="rounded=0;whiteSpace=wrap;html=1;" parent="6tiOYfrDWPvPFfGhZScx-93" vertex="1">
          <mxGeometry x="330" y="20" width="110" height="20" as="geometry" />
        </mxCell>
        <mxCell id="6tiOYfrDWPvPFfGhZScx-98" value="Item5" style="rounded=0;whiteSpace=wrap;html=1;" parent="6tiOYfrDWPvPFfGhZScx-93" vertex="1">
          <mxGeometry x="440" y="20" width="110" height="20" as="geometry" />
        </mxCell>
        <mxCell id="6tiOYfrDWPvPFfGhZScx-99" value="Item6" style="rounded=0;whiteSpace=wrap;html=1;" parent="6tiOYfrDWPvPFfGhZScx-93" vertex="1">
          <mxGeometry x="540" y="20" width="110" height="20" as="geometry" />
        </mxCell>
        <mxCell id="6tiOYfrDWPvPFfGhZScx-100" value="Row 3" style="swimlane;whiteSpace=wrap;html=1;startSize=20;" parent="6tiOYfrDWPvPFfGhZScx-77" vertex="1">
          <mxGeometry y="100" width="650" height="40" as="geometry">
            <mxRectangle y="20" width="70" height="30" as="alternateBounds" />
          </mxGeometry>
        </mxCell>
        <mxCell id="6tiOYfrDWPvPFfGhZScx-101" value="Item1" style="rounded=0;whiteSpace=wrap;html=1;" parent="6tiOYfrDWPvPFfGhZScx-100" vertex="1">
          <mxGeometry y="20" width="110" height="20" as="geometry" />
        </mxCell>
        <mxCell id="6tiOYfrDWPvPFfGhZScx-102" value="Item2" style="rounded=0;whiteSpace=wrap;html=1;" parent="6tiOYfrDWPvPFfGhZScx-100" vertex="1">
          <mxGeometry x="110" y="20" width="110" height="20" as="geometry" />
        </mxCell>
        <mxCell id="6tiOYfrDWPvPFfGhZScx-103" value="Item3" style="rounded=0;whiteSpace=wrap;html=1;" parent="6tiOYfrDWPvPFfGhZScx-100" vertex="1">
          <mxGeometry x="220" y="20" width="110" height="20" as="geometry" />
        </mxCell>
        <mxCell id="6tiOYfrDWPvPFfGhZScx-104" value="Item4" style="rounded=0;whiteSpace=wrap;html=1;" parent="6tiOYfrDWPvPFfGhZScx-100" vertex="1">
          <mxGeometry x="330" y="20" width="110" height="20" as="geometry" />
        </mxCell>
        <mxCell id="6tiOYfrDWPvPFfGhZScx-105" value="Item5" style="rounded=0;whiteSpace=wrap;html=1;" parent="6tiOYfrDWPvPFfGhZScx-100" vertex="1">
          <mxGeometry x="440" y="20" width="110" height="20" as="geometry" />
        </mxCell>
        <mxCell id="6tiOYfrDWPvPFfGhZScx-106" value="Item6" style="rounded=0;whiteSpace=wrap;html=1;" parent="6tiOYfrDWPvPFfGhZScx-100" vertex="1">
          <mxGeometry x="540" y="20" width="110" height="20" as="geometry" />
        </mxCell>
        <mxCell id="6tiOYfrDWPvPFfGhZScx-107" value="Row 4" style="swimlane;whiteSpace=wrap;html=1;startSize=20;" parent="6tiOYfrDWPvPFfGhZScx-77" vertex="1">
          <mxGeometry y="140" width="650" height="40" as="geometry">
            <mxRectangle y="20" width="70" height="30" as="alternateBounds" />
          </mxGeometry>
        </mxCell>
        <mxCell id="6tiOYfrDWPvPFfGhZScx-108" value="Item1" style="rounded=0;whiteSpace=wrap;html=1;" parent="6tiOYfrDWPvPFfGhZScx-107" vertex="1">
          <mxGeometry y="20" width="110" height="20" as="geometry" />
        </mxCell>
        <mxCell id="6tiOYfrDWPvPFfGhZScx-109" value="Item2" style="rounded=0;whiteSpace=wrap;html=1;" parent="6tiOYfrDWPvPFfGhZScx-107" vertex="1">
          <mxGeometry x="110" y="20" width="110" height="20" as="geometry" />
        </mxCell>
        <mxCell id="6tiOYfrDWPvPFfGhZScx-110" value="Item3" style="rounded=0;whiteSpace=wrap;html=1;" parent="6tiOYfrDWPvPFfGhZScx-107" vertex="1">
          <mxGeometry x="220" y="20" width="110" height="20" as="geometry" />
        </mxCell>
        <mxCell id="6tiOYfrDWPvPFfGhZScx-111" value="Item4" style="rounded=0;whiteSpace=wrap;html=1;" parent="6tiOYfrDWPvPFfGhZScx-107" vertex="1">
          <mxGeometry x="330" y="20" width="110" height="20" as="geometry" />
        </mxCell>
        <mxCell id="6tiOYfrDWPvPFfGhZScx-112" value="Item5" style="rounded=0;whiteSpace=wrap;html=1;" parent="6tiOYfrDWPvPFfGhZScx-107" vertex="1">
          <mxGeometry x="440" y="20" width="110" height="20" as="geometry" />
        </mxCell>
        <mxCell id="6tiOYfrDWPvPFfGhZScx-113" value="Item6" style="rounded=0;whiteSpace=wrap;html=1;" parent="6tiOYfrDWPvPFfGhZScx-107" vertex="1">
          <mxGeometry x="540" y="20" width="110" height="20" as="geometry" />
        </mxCell>
        <mxCell id="6tiOYfrDWPvPFfGhZScx-114" value="Row 5" style="swimlane;whiteSpace=wrap;html=1;startSize=20;" parent="6tiOYfrDWPvPFfGhZScx-77" vertex="1">
          <mxGeometry y="180" width="650" height="40" as="geometry">
            <mxRectangle y="20" width="70" height="30" as="alternateBounds" />
          </mxGeometry>
        </mxCell>
        <mxCell id="6tiOYfrDWPvPFfGhZScx-115" value="Item1" style="rounded=0;whiteSpace=wrap;html=1;" parent="6tiOYfrDWPvPFfGhZScx-114" vertex="1">
          <mxGeometry y="20" width="110" height="20" as="geometry" />
        </mxCell>
        <mxCell id="6tiOYfrDWPvPFfGhZScx-116" value="Item2" style="rounded=0;whiteSpace=wrap;html=1;" parent="6tiOYfrDWPvPFfGhZScx-114" vertex="1">
          <mxGeometry x="110" y="20" width="110" height="20" as="geometry" />
        </mxCell>
        <mxCell id="6tiOYfrDWPvPFfGhZScx-117" value="Item3" style="rounded=0;whiteSpace=wrap;html=1;" parent="6tiOYfrDWPvPFfGhZScx-114" vertex="1">
          <mxGeometry x="220" y="20" width="110" height="20" as="geometry" />
        </mxCell>
        <mxCell id="6tiOYfrDWPvPFfGhZScx-118" value="Item4" style="rounded=0;whiteSpace=wrap;html=1;" parent="6tiOYfrDWPvPFfGhZScx-114" vertex="1">
          <mxGeometry x="330" y="20" width="110" height="20" as="geometry" />
        </mxCell>
        <mxCell id="6tiOYfrDWPvPFfGhZScx-119" value="Item5" style="rounded=0;whiteSpace=wrap;html=1;" parent="6tiOYfrDWPvPFfGhZScx-114" vertex="1">
          <mxGeometry x="440" y="20" width="110" height="20" as="geometry" />
        </mxCell>
        <mxCell id="6tiOYfrDWPvPFfGhZScx-120" value="Item6" style="rounded=0;whiteSpace=wrap;html=1;" parent="6tiOYfrDWPvPFfGhZScx-114" vertex="1">
          <mxGeometry x="540" y="20" width="110" height="20" as="geometry" />
        </mxCell>
        <mxCell id="6tiOYfrDWPvPFfGhZScx-121" value="Row 6" style="swimlane;whiteSpace=wrap;html=1;startSize=20;" parent="6tiOYfrDWPvPFfGhZScx-77" vertex="1">
          <mxGeometry y="220" width="650" height="40" as="geometry">
            <mxRectangle y="20" width="70" height="30" as="alternateBounds" />
          </mxGeometry>
        </mxCell>
        <mxCell id="6tiOYfrDWPvPFfGhZScx-122" value="Item1" style="rounded=0;whiteSpace=wrap;html=1;" parent="6tiOYfrDWPvPFfGhZScx-121" vertex="1">
          <mxGeometry y="20" width="110" height="20" as="geometry" />
        </mxCell>
        <mxCell id="6tiOYfrDWPvPFfGhZScx-123" value="Item2" style="rounded=0;whiteSpace=wrap;html=1;" parent="6tiOYfrDWPvPFfGhZScx-121" vertex="1">
          <mxGeometry x="110" y="20" width="110" height="20" as="geometry" />
        </mxCell>
        <mxCell id="6tiOYfrDWPvPFfGhZScx-124" value="Item3" style="rounded=0;whiteSpace=wrap;html=1;" parent="6tiOYfrDWPvPFfGhZScx-121" vertex="1">
          <mxGeometry x="220" y="20" width="110" height="20" as="geometry" />
        </mxCell>
        <mxCell id="6tiOYfrDWPvPFfGhZScx-125" value="Item4" style="rounded=0;whiteSpace=wrap;html=1;" parent="6tiOYfrDWPvPFfGhZScx-121" vertex="1">
          <mxGeometry x="330" y="20" width="110" height="20" as="geometry" />
        </mxCell>
        <mxCell id="6tiOYfrDWPvPFfGhZScx-126" value="Item5" style="rounded=0;whiteSpace=wrap;html=1;" parent="6tiOYfrDWPvPFfGhZScx-121" vertex="1">
          <mxGeometry x="440" y="20" width="110" height="20" as="geometry" />
        </mxCell>
        <mxCell id="6tiOYfrDWPvPFfGhZScx-127" value="Item6" style="rounded=0;whiteSpace=wrap;html=1;" parent="6tiOYfrDWPvPFfGhZScx-121" vertex="1">
          <mxGeometry x="540" y="20" width="110" height="20" as="geometry" />
        </mxCell>
        <mxCell id="6tiOYfrDWPvPFfGhZScx-128" value="" style="ellipse;whiteSpace=wrap;html=1;aspect=fixed;fillColor=#000000;" parent="6tiOYfrDWPvPFfGhZScx-77" vertex="1">
          <mxGeometry x="320" y="270" width="10" height="10" as="geometry" />
        </mxCell>
        <mxCell id="6tiOYfrDWPvPFfGhZScx-129" value="" style="ellipse;whiteSpace=wrap;html=1;aspect=fixed;fillColor=#000000;" parent="6tiOYfrDWPvPFfGhZScx-77" vertex="1">
          <mxGeometry x="320" y="290" width="10" height="10" as="geometry" />
        </mxCell>
        <mxCell id="6tiOYfrDWPvPFfGhZScx-130" value="" style="ellipse;whiteSpace=wrap;html=1;aspect=fixed;fillColor=#000000;" parent="6tiOYfrDWPvPFfGhZScx-77" vertex="1">
          <mxGeometry x="320" y="310" width="10" height="10" as="geometry" />
        </mxCell>
        <mxCell id="6tiOYfrDWPvPFfGhZScx-131" value="Row N" style="swimlane;whiteSpace=wrap;html=1;startSize=20;" parent="6tiOYfrDWPvPFfGhZScx-77" vertex="1">
          <mxGeometry y="340" width="650" height="40" as="geometry">
            <mxRectangle y="20" width="70" height="30" as="alternateBounds" />
          </mxGeometry>
        </mxCell>
        <mxCell id="6tiOYfrDWPvPFfGhZScx-132" value="Item1" style="rounded=0;whiteSpace=wrap;html=1;" parent="6tiOYfrDWPvPFfGhZScx-131" vertex="1">
          <mxGeometry y="20" width="110" height="20" as="geometry" />
        </mxCell>
        <mxCell id="6tiOYfrDWPvPFfGhZScx-133" value="Item2" style="rounded=0;whiteSpace=wrap;html=1;" parent="6tiOYfrDWPvPFfGhZScx-131" vertex="1">
          <mxGeometry x="110" y="20" width="110" height="20" as="geometry" />
        </mxCell>
        <mxCell id="6tiOYfrDWPvPFfGhZScx-134" value="Item3" style="rounded=0;whiteSpace=wrap;html=1;" parent="6tiOYfrDWPvPFfGhZScx-131" vertex="1">
          <mxGeometry x="220" y="20" width="110" height="20" as="geometry" />
        </mxCell>
        <mxCell id="6tiOYfrDWPvPFfGhZScx-135" value="Item4" style="rounded=0;whiteSpace=wrap;html=1;" parent="6tiOYfrDWPvPFfGhZScx-131" vertex="1">
          <mxGeometry x="330" y="20" width="110" height="20" as="geometry" />
        </mxCell>
        <mxCell id="6tiOYfrDWPvPFfGhZScx-136" value="Item5" style="rounded=0;whiteSpace=wrap;html=1;" parent="6tiOYfrDWPvPFfGhZScx-131" vertex="1">
          <mxGeometry x="440" y="20" width="110" height="20" as="geometry" />
        </mxCell>
        <mxCell id="6tiOYfrDWPvPFfGhZScx-137" value="Item6" style="rounded=0;whiteSpace=wrap;html=1;" parent="6tiOYfrDWPvPFfGhZScx-131" vertex="1">
          <mxGeometry x="540" y="20" width="110" height="20" as="geometry" />
        </mxCell>
        <mxCell id="lOHqtVAEgEtYh9dNK8Uh-1" value="Current Session" style="swimlane;horizontal=0;whiteSpace=wrap;html=1;" parent="1" vertex="1">
          <mxGeometry x="20" y="600" width="200" height="200" as="geometry" />
        </mxCell>
        <mxCell id="lOHqtVAEgEtYh9dNK8Uh-4" value="Device1" style="swimlane;whiteSpace=wrap;html=1;startSize=20;" parent="lOHqtVAEgEtYh9dNK8Uh-1" vertex="1">
          <mxGeometry x="90" y="10" width="110" height="70" as="geometry" />
        </mxCell>
        <mxCell id="lOHqtVAEgEtYh9dNK8Uh-2" value="" style="shape=flexArrow;endArrow=classic;html=1;rounded=0;entryX=0.5;entryY=0;entryDx=0;entryDy=0;" parent="1" target="lOHqtVAEgEtYh9dNK8Uh-4" edge="1">
          <mxGeometry width="50" height="50" relative="1" as="geometry">
            <mxPoint x="130" y="380" as="sourcePoint" />
            <mxPoint x="90" y="690" as="targetPoint" />
          </mxGeometry>
        </mxCell>
        <mxCell id="1Vwl35dnmwv9R0JvPiRH-5" value="AddDeviceWindow" style="swimlane;whiteSpace=wrap;html=1;startSize=20;fillColor=#ffe6cc;strokeColor=#d79b00;" parent="1" vertex="1">
          <mxGeometry x="280" y="640" width="600" height="430" as="geometry">
            <mxRectangle x="260" y="20" width="110" height="30" as="alternateBounds" />
          </mxGeometry>
        </mxCell>
        <mxCell id="1Vwl35dnmwv9R0JvPiRH-9" value="" style="shape=flexArrow;endArrow=classic;html=1;rounded=0;" parent="1Vwl35dnmwv9R0JvPiRH-5" edge="1">
          <mxGeometry width="50" height="50" relative="1" as="geometry">
            <mxPoint x="-100" y="20" as="sourcePoint" />
            <mxPoint x="30" y="90" as="targetPoint" />
          </mxGeometry>
        </mxCell>
        <mxCell id="1Vwl35dnmwv9R0JvPiRH-10" value="OwenAutodetectionDevice" style="swimlane;whiteSpace=wrap;html=1;startSize=20;" parent="1Vwl35dnmwv9R0JvPiRH-5" vertex="1">
          <mxGeometry x="30" y="40" width="500" height="350" as="geometry" />
        </mxCell>
        <mxCell id="1Vwl35dnmwv9R0JvPiRH-11" value="Connect" style="swimlane;whiteSpace=wrap;html=1;startSize=20;" parent="1Vwl35dnmwv9R0JvPiRH-10" vertex="1">
          <mxGeometry x="94" y="40" width="110" height="70" as="geometry" />
        </mxCell>
        <mxCell id="DYn_FW78fLzUVVsHQx3w-1" value="TCP Connect" style="swimlane;whiteSpace=wrap;html=1;startSize=20;" parent="1Vwl35dnmwv9R0JvPiRH-10" vertex="1">
          <mxGeometry x="320" y="120" width="110" height="70" as="geometry" />
        </mxCell>
        <mxCell id="DYn_FW78fLzUVVsHQx3w-2" value="COM Connect" style="swimlane;whiteSpace=wrap;html=1;startSize=20;" parent="1Vwl35dnmwv9R0JvPiRH-10" vertex="1">
          <mxGeometry x="20" y="130" width="110" height="70" as="geometry" />
        </mxCell>
        <mxCell id="DYn_FW78fLzUVVsHQx3w-3" value="ModbusTCP Connect" style="swimlane;whiteSpace=wrap;html=1;startSize=20;" parent="1Vwl35dnmwv9R0JvPiRH-10" vertex="1">
          <mxGeometry x="290" y="210" width="180" height="70" as="geometry">
            <mxRectangle x="290" y="210" width="120" height="30" as="alternateBounds" />
          </mxGeometry>
        </mxCell>
        <mxCell id="DYn_FW78fLzUVVsHQx3w-4" value="ModbusRTU Connect" style="swimlane;whiteSpace=wrap;html=1;startSize=20;" parent="1Vwl35dnmwv9R0JvPiRH-10" vertex="1">
          <mxGeometry x="80" y="210" width="180" height="70" as="geometry">
            <mxRectangle x="290" y="210" width="120" height="30" as="alternateBounds" />
          </mxGeometry>
        </mxCell>
        <mxCell id="DYn_FW78fLzUVVsHQx3w-5" value="OwenCOM Connect" style="swimlane;whiteSpace=wrap;html=1;startSize=20;" parent="1Vwl35dnmwv9R0JvPiRH-5" vertex="1">
          <mxGeometry x="-100" y="250" width="180" height="70" as="geometry">
            <mxRectangle x="290" y="210" width="120" height="30" as="alternateBounds" />
          </mxGeometry>
        </mxCell>
        <mxCell id="u7Q1o4zM7s_bbqrdyaGv-1" value="DeviceTreeViewManager" style="swimlane;whiteSpace=wrap;html=1;startSize=20;" parent="1" vertex="1">
          <mxGeometry x="950" y="360" width="650" height="380" as="geometry">
            <mxRectangle x="130" y="170" width="160" height="30" as="alternateBounds" />
          </mxGeometry>
        </mxCell>
        <mxCell id="u7Q1o4zM7s_bbqrdyaGv-54" value="DeviceTreeView1" style="swimlane;whiteSpace=wrap;html=1;startSize=20;" parent="u7Q1o4zM7s_bbqrdyaGv-1" vertex="1">
          <mxGeometry x="80" y="60" width="110" height="70" as="geometry" />
        </mxCell>
        <mxCell id="u7Q1o4zM7s_bbqrdyaGv-55" value="DeviceTreeView2" style="swimlane;whiteSpace=wrap;html=1;startSize=20;" parent="u7Q1o4zM7s_bbqrdyaGv-1" vertex="1">
          <mxGeometry x="80" y="150" width="110" height="70" as="geometry" />
        </mxCell>
        <mxCell id="u7Q1o4zM7s_bbqrdyaGv-56" value="" style="ellipse;whiteSpace=wrap;html=1;aspect=fixed;fillColor=#000000;" parent="u7Q1o4zM7s_bbqrdyaGv-1" vertex="1">
          <mxGeometry x="130" y="230" width="10" height="10" as="geometry" />
        </mxCell>
        <mxCell id="u7Q1o4zM7s_bbqrdyaGv-57" value="" style="ellipse;whiteSpace=wrap;html=1;aspect=fixed;fillColor=#000000;" parent="u7Q1o4zM7s_bbqrdyaGv-1" vertex="1">
          <mxGeometry x="130" y="250" width="10" height="10" as="geometry" />
        </mxCell>
        <mxCell id="u7Q1o4zM7s_bbqrdyaGv-58" value="" style="ellipse;whiteSpace=wrap;html=1;aspect=fixed;fillColor=#000000;" parent="u7Q1o4zM7s_bbqrdyaGv-1" vertex="1">
          <mxGeometry x="130" y="270" width="10" height="10" as="geometry" />
        </mxCell>
        <mxCell id="u7Q1o4zM7s_bbqrdyaGv-60" value="DeviceTreeView2" style="swimlane;whiteSpace=wrap;html=1;startSize=20;" parent="u7Q1o4zM7s_bbqrdyaGv-1" vertex="1">
          <mxGeometry x="80" y="290" width="110" height="70" as="geometry" />
        </mxCell>
        <mxCell id="u7Q1o4zM7s_bbqrdyaGv-61" value="TreeViewPresentation" style="swimlane;whiteSpace=wrap;html=1;startSize=20;" parent="u7Q1o4zM7s_bbqrdyaGv-1" vertex="1">
          <mxGeometry x="240" y="75" width="380" height="230" as="geometry">
            <mxRectangle x="130" y="170" width="160" height="30" as="alternateBounds" />
          </mxGeometry>
        </mxCell>
      </root>
    </mxGraphModel>
  </diagram>
  <diagram id="BzIfoZugE8wiM1zAfk6w" name="Страница — 2">
    <mxGraphModel dx="773" dy="869" grid="1" gridSize="10" guides="1" tooltips="1" connect="1" arrows="1" fold="1" page="1" pageScale="1" pageWidth="827" pageHeight="1169" math="0" shadow="0">
      <root>
        <mxCell id="0" />
        <mxCell id="1" parent="0" />
        <mxCell id="Bwr0L0Hsob2mZvG-uBst-1" value="&lt;p style=&quot;margin:0px;margin-top:4px;text-align:center;&quot;&gt;ActionButtonsLayout:QHBoxLayout&lt;br&gt;&lt;/p&gt;&lt;hr size=&quot;1&quot;&gt;&lt;p style=&quot;margin:0px;margin-left:4px;&quot;&gt;+ buttonsLayouts: CustomButtonLayout&lt;/p&gt;&lt;span style=&quot;border-color: var(--border-color); text-align: center;&quot;&gt;&lt;br&gt;&lt;/span&gt;&lt;hr size=&quot;1&quot;&gt;&lt;p style=&quot;margin:0px;margin-left:4px;&quot;&gt;+ CreateButtonsToolbar ()&lt;/p&gt;" style="verticalAlign=top;align=left;overflow=fill;fontSize=12;fontFamily=Helvetica;html=1;whiteSpace=wrap;fillColor=#dae8fc;strokeColor=#6c8ebf;" parent="1" vertex="1">
          <mxGeometry x="850" y="70" width="380" height="90" as="geometry" />
        </mxCell>
        <mxCell id="Bwr0L0Hsob2mZvG-uBst-2" value="&lt;p style=&quot;margin:0px;margin-top:4px;text-align:center;&quot;&gt;&lt;i&gt;&amp;lt;&amp;lt;Interface&amp;gt;&amp;gt;&lt;/i&gt;&lt;br&gt;&lt;b&gt;CustomButtonLayout: QBoxLayout&lt;/b&gt;&lt;/p&gt;&lt;hr size=&quot;1&quot;&gt;&lt;p style=&quot;margin:0px;margin-left:4px;&quot;&gt;+ buttonsList: MyButton&lt;br&gt;&lt;/p&gt;&lt;hr size=&quot;1&quot;&gt;&lt;p style=&quot;margin:0px;margin-left:4px;&quot;&gt;+ setDirection (QBoxLayout.Direction)&lt;/p&gt;&lt;p style=&quot;margin:0px;margin-left:4px;&quot;&gt;&lt;br&gt;&lt;/p&gt;" style="verticalAlign=top;align=left;overflow=fill;fontSize=12;fontFamily=Helvetica;html=1;whiteSpace=wrap;fillColor=#dae8fc;strokeColor=#6c8ebf;" parent="1" vertex="1">
          <mxGeometry x="1429.5" y="50" width="220" height="130" as="geometry" />
        </mxCell>
        <mxCell id="Bwr0L0Hsob2mZvG-uBst-3" value="1" style="endArrow=open;html=1;endSize=12;startArrow=diamondThin;startSize=14;startFill=0;edgeStyle=orthogonalEdgeStyle;align=left;verticalAlign=bottom;rounded=0;exitX=1;exitY=0.5;exitDx=0;exitDy=0;entryX=0;entryY=0.5;entryDx=0;entryDy=0;" parent="1" source="Bwr0L0Hsob2mZvG-uBst-1" target="Bwr0L0Hsob2mZvG-uBst-2" edge="1">
          <mxGeometry x="-1" y="3" relative="1" as="geometry">
            <mxPoint x="1240" y="140" as="sourcePoint" />
            <mxPoint x="1400" y="140" as="targetPoint" />
          </mxGeometry>
        </mxCell>
        <mxCell id="Bwr0L0Hsob2mZvG-uBst-4" value="&lt;p style=&quot;margin:0px;margin-top:4px;text-align:center;&quot;&gt;DeviceActionButtonsLayout&lt;br&gt;&lt;/p&gt;&lt;hr size=&quot;1&quot;&gt;&lt;p style=&quot;margin:0px;margin-left:4px;&quot;&gt;+ buttonsList: MyButton&lt;/p&gt;&lt;span style=&quot;border-color: var(--border-color); text-align: center;&quot;&gt;&lt;br&gt;&lt;/span&gt;&lt;hr size=&quot;1&quot;&gt;&lt;p style=&quot;border-color: var(--border-color); margin: 0px 0px 0px 4px;&quot;&gt;+ setDirection (QBoxLayout.Direction)&lt;/p&gt;&lt;p style=&quot;border-color: var(--border-color); margin: 0px 0px 0px 4px;&quot;&gt;&lt;br style=&quot;border-color: var(--border-color);&quot;&gt;&lt;/p&gt;" style="verticalAlign=top;align=left;overflow=fill;fontSize=12;fontFamily=Helvetica;html=1;whiteSpace=wrap;fillColor=#f8cecc;strokeColor=#b85450;" parent="1" vertex="1">
          <mxGeometry x="1059" y="310" width="180" height="110" as="geometry" />
        </mxCell>
        <mxCell id="Bwr0L0Hsob2mZvG-uBst-5" value="&lt;p style=&quot;margin:0px;margin-top:4px;text-align:center;&quot;&gt;ParamActionButtonsLayout&lt;br&gt;&lt;/p&gt;&lt;hr size=&quot;1&quot;&gt;&lt;p style=&quot;margin:0px;margin-left:4px;&quot;&gt;+ buttonsList: MyButton&lt;/p&gt;&lt;span style=&quot;border-color: var(--border-color); text-align: center;&quot;&gt;&lt;br&gt;&lt;/span&gt;&lt;hr size=&quot;1&quot;&gt;&lt;p style=&quot;border-color: var(--border-color); margin: 0px 0px 0px 4px;&quot;&gt;+ setDirection (QBoxLayout.Direction)&lt;/p&gt;&lt;p style=&quot;border-color: var(--border-color); margin: 0px 0px 0px 4px;&quot;&gt;&lt;br style=&quot;border-color: var(--border-color);&quot;&gt;&lt;/p&gt;" style="verticalAlign=top;align=left;overflow=fill;fontSize=12;fontFamily=Helvetica;html=1;whiteSpace=wrap;fillColor=#f8cecc;strokeColor=#b85450;" parent="1" vertex="1">
          <mxGeometry x="1250" y="310" width="190" height="110" as="geometry" />
        </mxCell>
        <mxCell id="Bwr0L0Hsob2mZvG-uBst-6" value="&lt;p style=&quot;margin:0px;margin-top:4px;text-align:center;&quot;&gt;UtilButtonsLayout&lt;br&gt;&lt;/p&gt;&lt;hr size=&quot;1&quot;&gt;&lt;p style=&quot;margin:0px;margin-left:4px;&quot;&gt;+ buttonsList: MyButton&lt;/p&gt;&lt;span style=&quot;border-color: var(--border-color); text-align: center;&quot;&gt;&lt;br&gt;&lt;/span&gt;&lt;hr size=&quot;1&quot;&gt;&lt;p style=&quot;border-color: var(--border-color); margin: 0px 0px 0px 4px;&quot;&gt;+ setDirection (QBoxLayout.Direction)&lt;/p&gt;&lt;p style=&quot;border-color: var(--border-color); margin: 0px 0px 0px 4px;&quot;&gt;&lt;br style=&quot;border-color: var(--border-color);&quot;&gt;&lt;/p&gt;" style="verticalAlign=top;align=left;overflow=fill;fontSize=12;fontFamily=Helvetica;html=1;whiteSpace=wrap;fillColor=#f8cecc;strokeColor=#b85450;" parent="1" vertex="1">
          <mxGeometry x="1449" y="310" width="181" height="110" as="geometry" />
        </mxCell>
        <mxCell id="Bwr0L0Hsob2mZvG-uBst-7" value="&lt;p style=&quot;margin:0px;margin-top:4px;text-align:center;&quot;&gt;ArchieveButtonsLayout&lt;br&gt;&lt;/p&gt;&lt;hr size=&quot;1&quot;&gt;&lt;p style=&quot;margin:0px;margin-left:4px;&quot;&gt;+ buttonsList: MyButton&lt;/p&gt;&lt;span style=&quot;border-color: var(--border-color); text-align: center;&quot;&gt;&lt;br&gt;&lt;/span&gt;&lt;hr size=&quot;1&quot;&gt;&lt;p style=&quot;border-color: var(--border-color); margin: 0px 0px 0px 4px;&quot;&gt;+ setDirection (QBoxLayout.Direction)&lt;/p&gt;&lt;p style=&quot;border-color: var(--border-color); margin: 0px 0px 0px 4px;&quot;&gt;&lt;br style=&quot;border-color: var(--border-color);&quot;&gt;&lt;/p&gt;" style="verticalAlign=top;align=left;overflow=fill;fontSize=12;fontFamily=Helvetica;html=1;whiteSpace=wrap;fillColor=#f8cecc;strokeColor=#b85450;" parent="1" vertex="1">
          <mxGeometry x="1642" y="310" width="180" height="110" as="geometry" />
        </mxCell>
        <mxCell id="Bwr0L0Hsob2mZvG-uBst-8" value="&lt;p style=&quot;margin:0px;margin-top:4px;text-align:center;&quot;&gt;FirmwareButtonsLayout&lt;br&gt;&lt;/p&gt;&lt;hr size=&quot;1&quot;&gt;&lt;p style=&quot;margin:0px;margin-left:4px;&quot;&gt;+ buttonsList: MyButton&lt;/p&gt;&lt;span style=&quot;border-color: var(--border-color); text-align: center;&quot;&gt;&lt;br&gt;&lt;/span&gt;&lt;hr size=&quot;1&quot;&gt;&lt;p style=&quot;border-color: var(--border-color); margin: 0px 0px 0px 4px;&quot;&gt;+ setDirection (QBoxLayout.Direction)&lt;/p&gt;&lt;p style=&quot;border-color: var(--border-color); margin: 0px 0px 0px 4px;&quot;&gt;&lt;br style=&quot;border-color: var(--border-color);&quot;&gt;&lt;/p&gt;" style="verticalAlign=top;align=left;overflow=fill;fontSize=12;fontFamily=Helvetica;html=1;whiteSpace=wrap;fillColor=#f8cecc;strokeColor=#b85450;" parent="1" vertex="1">
          <mxGeometry x="1830" y="310" width="190" height="110" as="geometry" />
        </mxCell>
        <mxCell id="Bwr0L0Hsob2mZvG-uBst-9" value="&lt;p style=&quot;margin:0px;margin-top:4px;text-align:center;&quot;&gt;OtherButtonsLayout&lt;br&gt;&lt;/p&gt;&lt;hr size=&quot;1&quot;&gt;&lt;p style=&quot;margin:0px;margin-left:4px;&quot;&gt;+ buttonsList: MyButton&lt;/p&gt;&lt;span style=&quot;border-color: var(--border-color); text-align: center;&quot;&gt;&lt;br&gt;&lt;/span&gt;&lt;hr size=&quot;1&quot;&gt;&lt;p style=&quot;border-color: var(--border-color); margin: 0px 0px 0px 4px;&quot;&gt;+ setDirection (QBoxLayout.Direction)&lt;/p&gt;&lt;p style=&quot;border-color: var(--border-color); margin: 0px 0px 0px 4px;&quot;&gt;&lt;br style=&quot;border-color: var(--border-color);&quot;&gt;&lt;/p&gt;" style="verticalAlign=top;align=left;overflow=fill;fontSize=12;fontFamily=Helvetica;html=1;whiteSpace=wrap;fillColor=#f8cecc;strokeColor=#b85450;" parent="1" vertex="1">
          <mxGeometry x="2030" y="310" width="200" height="110" as="geometry" />
        </mxCell>
        <mxCell id="Bwr0L0Hsob2mZvG-uBst-10" value="" style="endArrow=block;dashed=1;endFill=0;endSize=12;html=1;rounded=0;exitX=0;exitY=1;exitDx=0;exitDy=0;entryX=0.5;entryY=0;entryDx=0;entryDy=0;" parent="1" source="Bwr0L0Hsob2mZvG-uBst-2" target="Bwr0L0Hsob2mZvG-uBst-4" edge="1">
          <mxGeometry width="160" relative="1" as="geometry">
            <mxPoint x="1520" y="210" as="sourcePoint" />
            <mxPoint x="1680" y="210" as="targetPoint" />
          </mxGeometry>
        </mxCell>
        <mxCell id="Bwr0L0Hsob2mZvG-uBst-11" value="" style="endArrow=block;dashed=1;endFill=0;endSize=12;html=1;rounded=0;exitX=0.25;exitY=1;exitDx=0;exitDy=0;entryX=0.5;entryY=0;entryDx=0;entryDy=0;" parent="1" source="Bwr0L0Hsob2mZvG-uBst-2" target="Bwr0L0Hsob2mZvG-uBst-5" edge="1">
          <mxGeometry width="160" relative="1" as="geometry">
            <mxPoint x="1540" y="160" as="sourcePoint" />
            <mxPoint x="1260" y="310" as="targetPoint" />
          </mxGeometry>
        </mxCell>
        <mxCell id="Bwr0L0Hsob2mZvG-uBst-12" value="" style="endArrow=block;dashed=1;endFill=0;endSize=12;html=1;rounded=0;exitX=0.5;exitY=1;exitDx=0;exitDy=0;entryX=0.5;entryY=0;entryDx=0;entryDy=0;" parent="1" source="Bwr0L0Hsob2mZvG-uBst-2" target="Bwr0L0Hsob2mZvG-uBst-6" edge="1">
          <mxGeometry width="160" relative="1" as="geometry">
            <mxPoint x="1470" y="180" as="sourcePoint" />
            <mxPoint x="1190" y="330" as="targetPoint" />
          </mxGeometry>
        </mxCell>
        <mxCell id="Bwr0L0Hsob2mZvG-uBst-13" value="" style="endArrow=block;dashed=1;endFill=0;endSize=12;html=1;rounded=0;exitX=0.75;exitY=1;exitDx=0;exitDy=0;entryX=0.5;entryY=0;entryDx=0;entryDy=0;" parent="1" source="Bwr0L0Hsob2mZvG-uBst-2" target="Bwr0L0Hsob2mZvG-uBst-7" edge="1">
          <mxGeometry width="160" relative="1" as="geometry">
            <mxPoint x="1480" y="190" as="sourcePoint" />
            <mxPoint x="1200" y="340" as="targetPoint" />
          </mxGeometry>
        </mxCell>
        <mxCell id="Bwr0L0Hsob2mZvG-uBst-14" value="" style="endArrow=block;dashed=1;endFill=0;endSize=12;html=1;rounded=0;exitX=1;exitY=1;exitDx=0;exitDy=0;entryX=0.5;entryY=0;entryDx=0;entryDy=0;" parent="1" source="Bwr0L0Hsob2mZvG-uBst-2" target="Bwr0L0Hsob2mZvG-uBst-8" edge="1">
          <mxGeometry width="160" relative="1" as="geometry">
            <mxPoint x="1680" y="150" as="sourcePoint" />
            <mxPoint x="1807" y="300" as="targetPoint" />
          </mxGeometry>
        </mxCell>
        <mxCell id="Bwr0L0Hsob2mZvG-uBst-15" value="" style="endArrow=block;dashed=1;endFill=0;endSize=12;html=1;rounded=0;exitX=1;exitY=0.75;exitDx=0;exitDy=0;entryX=0.5;entryY=0;entryDx=0;entryDy=0;" parent="1" source="Bwr0L0Hsob2mZvG-uBst-2" target="Bwr0L0Hsob2mZvG-uBst-9" edge="1">
          <mxGeometry width="160" relative="1" as="geometry">
            <mxPoint x="1760" y="130" as="sourcePoint" />
            <mxPoint x="1887" y="280" as="targetPoint" />
          </mxGeometry>
        </mxCell>
        <mxCell id="Bwr0L0Hsob2mZvG-uBst-16" value="&lt;p style=&quot;margin:0px;margin-top:4px;text-align:center;&quot;&gt;MyButton:QToolButton&lt;/p&gt;&lt;hr size=&quot;1&quot;&gt;&lt;p style=&quot;margin:0px;margin-left:4px;&quot;&gt;&lt;br&gt;&lt;/p&gt;&lt;span style=&quot;border-color: var(--border-color); text-align: center;&quot;&gt;&lt;br&gt;&lt;/span&gt;&lt;hr size=&quot;1&quot;&gt;&lt;p style=&quot;margin:0px;margin-left:4px;&quot;&gt;+MyButton (Text, Icon)&lt;br&gt;&lt;/p&gt;&lt;p style=&quot;margin:0px;margin-left:4px;&quot;&gt;+ChangeStyle (style)&lt;/p&gt;" style="verticalAlign=top;align=left;overflow=fill;fontSize=12;fontFamily=Helvetica;html=1;whiteSpace=wrap;fillColor=#dae8fc;strokeColor=#6c8ebf;" parent="1" vertex="1">
          <mxGeometry x="1465" y="490" width="160" height="140" as="geometry" />
        </mxCell>
        <mxCell id="Bwr0L0Hsob2mZvG-uBst-17" value="1" style="endArrow=open;html=1;endSize=12;startArrow=diamondThin;startSize=14;startFill=0;edgeStyle=orthogonalEdgeStyle;align=left;verticalAlign=bottom;rounded=0;exitX=0.5;exitY=1;exitDx=0;exitDy=0;entryX=0;entryY=0.25;entryDx=0;entryDy=0;" parent="1" source="Bwr0L0Hsob2mZvG-uBst-4" target="Bwr0L0Hsob2mZvG-uBst-16" edge="1">
          <mxGeometry x="-0.9018" y="10" relative="1" as="geometry">
            <mxPoint x="1245" y="470" as="sourcePoint" />
            <mxPoint x="1475" y="470" as="targetPoint" />
            <mxPoint as="offset" />
          </mxGeometry>
        </mxCell>
        <mxCell id="Bwr0L0Hsob2mZvG-uBst-18" value="1" style="endArrow=open;html=1;endSize=12;startArrow=diamondThin;startSize=14;startFill=0;edgeStyle=orthogonalEdgeStyle;align=left;verticalAlign=bottom;rounded=0;exitX=0.5;exitY=1;exitDx=0;exitDy=0;entryX=0.25;entryY=0;entryDx=0;entryDy=0;" parent="1" source="Bwr0L0Hsob2mZvG-uBst-5" target="Bwr0L0Hsob2mZvG-uBst-16" edge="1">
          <mxGeometry x="-0.8298" y="10" relative="1" as="geometry">
            <mxPoint x="1364" y="440" as="sourcePoint" />
            <mxPoint x="1594" y="440" as="targetPoint" />
            <mxPoint as="offset" />
          </mxGeometry>
        </mxCell>
        <mxCell id="Bwr0L0Hsob2mZvG-uBst-19" value="1" style="endArrow=open;html=1;endSize=12;startArrow=diamondThin;startSize=14;startFill=0;edgeStyle=orthogonalEdgeStyle;align=left;verticalAlign=bottom;rounded=0;exitX=0.5;exitY=1;exitDx=0;exitDy=0;" parent="1" source="Bwr0L0Hsob2mZvG-uBst-6" target="Bwr0L0Hsob2mZvG-uBst-16" edge="1">
          <mxGeometry x="-0.5556" y="5" relative="1" as="geometry">
            <mxPoint x="1594" y="430" as="sourcePoint" />
            <mxPoint x="1824" y="430" as="targetPoint" />
            <mxPoint as="offset" />
          </mxGeometry>
        </mxCell>
        <mxCell id="Bwr0L0Hsob2mZvG-uBst-20" value="1" style="endArrow=open;html=1;endSize=12;startArrow=diamondThin;startSize=14;startFill=0;edgeStyle=orthogonalEdgeStyle;align=left;verticalAlign=bottom;rounded=0;exitX=0.5;exitY=1;exitDx=0;exitDy=0;entryX=0.75;entryY=0;entryDx=0;entryDy=0;" parent="1" source="Bwr0L0Hsob2mZvG-uBst-7" target="Bwr0L0Hsob2mZvG-uBst-16" edge="1">
          <mxGeometry x="-0.8222" y="10" relative="1" as="geometry">
            <mxPoint x="1260" y="155" as="sourcePoint" />
            <mxPoint x="1580" y="480" as="targetPoint" />
            <mxPoint as="offset" />
          </mxGeometry>
        </mxCell>
        <mxCell id="Bwr0L0Hsob2mZvG-uBst-21" value="1" style="endArrow=open;html=1;endSize=12;startArrow=diamondThin;startSize=14;startFill=0;edgeStyle=orthogonalEdgeStyle;align=left;verticalAlign=bottom;rounded=0;exitX=0.5;exitY=1;exitDx=0;exitDy=0;entryX=1;entryY=0.25;entryDx=0;entryDy=0;" parent="1" source="Bwr0L0Hsob2mZvG-uBst-8" target="Bwr0L0Hsob2mZvG-uBst-16" edge="1">
          <mxGeometry x="-0.8968" y="10" relative="1" as="geometry">
            <mxPoint x="1860" y="500" as="sourcePoint" />
            <mxPoint x="2090" y="500" as="targetPoint" />
            <mxPoint as="offset" />
          </mxGeometry>
        </mxCell>
        <mxCell id="Bwr0L0Hsob2mZvG-uBst-22" value="1" style="endArrow=open;html=1;endSize=12;startArrow=diamondThin;startSize=14;startFill=0;edgeStyle=orthogonalEdgeStyle;align=left;verticalAlign=bottom;rounded=0;exitX=0.5;exitY=1;exitDx=0;exitDy=0;entryX=1;entryY=0.5;entryDx=0;entryDy=0;" parent="1" source="Bwr0L0Hsob2mZvG-uBst-9" target="Bwr0L0Hsob2mZvG-uBst-16" edge="1">
          <mxGeometry x="-0.9322" y="10" relative="1" as="geometry">
            <mxPoint x="1800" y="580" as="sourcePoint" />
            <mxPoint x="2030" y="580" as="targetPoint" />
            <mxPoint as="offset" />
          </mxGeometry>
        </mxCell>
        <mxCell id="Bwr0L0Hsob2mZvG-uBst-23" value="&lt;p style=&quot;margin:0px;margin-top:4px;text-align:center;&quot;&gt;OtherButtonsLayout&lt;br&gt;&lt;/p&gt;&lt;hr size=&quot;1&quot;&gt;&lt;p style=&quot;margin:0px;margin-left:4px;&quot;&gt;+ buttonsList: MyButton&lt;/p&gt;&lt;span style=&quot;border-color: var(--border-color); text-align: center;&quot;&gt;&lt;br&gt;&lt;/span&gt;&lt;hr size=&quot;1&quot;&gt;&lt;p style=&quot;border-color: var(--border-color); margin: 0px 0px 0px 4px;&quot;&gt;+ setDirection (QBoxLayout.Direction)&lt;/p&gt;&lt;p style=&quot;border-color: var(--border-color); margin: 0px 0px 0px 4px;&quot;&gt;&lt;br style=&quot;border-color: var(--border-color);&quot;&gt;&lt;/p&gt;" style="verticalAlign=top;align=left;overflow=fill;fontSize=12;fontFamily=Helvetica;html=1;whiteSpace=wrap;fillColor=#f8cecc;strokeColor=#b85450;" parent="1" vertex="1">
          <mxGeometry x="2250" y="310" width="200" height="110" as="geometry" />
        </mxCell>
      </root>
    </mxGraphModel>
  </diagram>
  <diagram id="pjJTZr1cSsnJUgvu7oiQ" name="Страница — 3">
    <mxGraphModel dx="53" dy="478" grid="1" gridSize="10" guides="1" tooltips="1" connect="1" arrows="1" fold="1" page="1" pageScale="1" pageWidth="827" pageHeight="1169" math="0" shadow="0">
      <root>
        <mxCell id="0" />
        <mxCell id="1" parent="0" />
        <mxCell id="CsvQiILTnvwMcvAEq7lJ-1" value="&lt;p style=&quot;margin:0px;margin-top:4px;text-align:center;&quot;&gt;Device&lt;br&gt;&lt;/p&gt;&lt;hr size=&quot;1&quot;&gt;&lt;p style=&quot;margin:0px;margin-left:4px;&quot;&gt;+ id&lt;/p&gt;&lt;p style=&quot;margin:0px;margin-left:4px;&quot;&gt;+ name&lt;/p&gt;&lt;p style=&quot;margin:0px;margin-left:4px;&quot;&gt;+ isFirmwareUpdateAvailable&lt;/p&gt;&lt;p style=&quot;margin:0px;margin-left:4px;&quot;&gt;....&lt;/p&gt;&lt;p style=&quot;margin:0px;margin-left:4px;&quot;&gt;+ Connection&lt;/p&gt;&lt;span style=&quot;border-color: var(--border-color); text-align: center;&quot;&gt;&lt;br&gt;&lt;/span&gt;&lt;hr size=&quot;1&quot;&gt;&lt;p style=&quot;border-color: var(--border-color); margin: 0px 0px 0px 4px;&quot;&gt;+ InitDevice&lt;/p&gt;" style="verticalAlign=top;align=left;overflow=fill;fontSize=12;fontFamily=Helvetica;html=1;whiteSpace=wrap;fillColor=#f8cecc;strokeColor=#b85450;" parent="1" vertex="1">
          <mxGeometry x="1150" y="390" width="190" height="320" as="geometry" />
        </mxCell>
        <mxCell id="CsvQiILTnvwMcvAEq7lJ-3" value="&lt;p style=&quot;margin:0px;margin-top:4px;text-align:center;&quot;&gt;&lt;i&gt;&amp;lt;&amp;lt;Interface&amp;gt;&amp;gt;&lt;/i&gt;&lt;br&gt;&lt;b&gt;Connection&lt;/b&gt;&lt;/p&gt;&lt;hr size=&quot;1&quot;&gt;&lt;p style=&quot;margin:0px;margin-left:4px;&quot;&gt;&lt;br&gt;&lt;/p&gt;&lt;hr size=&quot;1&quot;&gt;&lt;p style=&quot;border-color: var(--border-color); margin: 0px 0px 0px 4px;&quot;&gt;+ Open&lt;/p&gt;&lt;p style=&quot;border-color: var(--border-color); margin: 0px 0px 0px 4px;&quot;&gt;+ Close&lt;/p&gt;&lt;p style=&quot;border-color: var(--border-color); margin: 0px 0px 0px 4px;&quot;&gt;+ Read&lt;/p&gt;&lt;p style=&quot;border-color: var(--border-color); margin: 0px 0px 0px 4px;&quot;&gt;+ Write&lt;/p&gt;&lt;p style=&quot;border-color: var(--border-color); margin: 0px 0px 0px 4px;&quot;&gt;+ OnError&lt;/p&gt;" style="verticalAlign=top;align=left;overflow=fill;fontSize=12;fontFamily=Helvetica;html=1;whiteSpace=wrap;" parent="1" vertex="1">
          <mxGeometry x="1790" y="280" width="190" height="160" as="geometry" />
        </mxCell>
        <mxCell id="CsvQiILTnvwMcvAEq7lJ-5" value="&lt;p style=&quot;margin:0px;margin-top:4px;text-align:center;&quot;&gt;EtherConnection&lt;/p&gt;&lt;hr size=&quot;1&quot;&gt;&lt;p style=&quot;margin:0px;margin-left:4px;&quot;&gt;&lt;/p&gt;&lt;span style=&quot;border-color: var(--border-color); text-align: center;&quot;&gt;&lt;p style=&quot;border-color: var(--border-color); text-align: left; margin: 0px 0px 0px 4px;&quot;&gt;&lt;br&gt;&lt;/p&gt;&lt;/span&gt;&lt;hr size=&quot;1&quot;&gt;&lt;p style=&quot;border-color: var(--border-color); margin: 0px 0px 0px 4px;&quot;&gt;+ Open&lt;/p&gt;&lt;p style=&quot;border-color: var(--border-color); margin: 0px 0px 0px 4px;&quot;&gt;+ Close&lt;/p&gt;&lt;p style=&quot;border-color: var(--border-color); margin: 0px 0px 0px 4px;&quot;&gt;+ Read&lt;/p&gt;&lt;p style=&quot;border-color: var(--border-color); margin: 0px 0px 0px 4px;&quot;&gt;+ Write&lt;/p&gt;&lt;p style=&quot;border-color: var(--border-color); margin: 0px 0px 0px 4px;&quot;&gt;+ OnError&lt;/p&gt;&lt;p style=&quot;border-color: var(--border-color); margin: 0px 0px 0px 4px;&quot;&gt;...&lt;/p&gt;" style="verticalAlign=top;align=left;overflow=fill;fontSize=12;fontFamily=Helvetica;html=1;whiteSpace=wrap;fillColor=#f8cecc;strokeColor=#b85450;" parent="1" vertex="1">
          <mxGeometry x="1654" y="570" width="186" height="150" as="geometry" />
        </mxCell>
        <mxCell id="CsvQiILTnvwMcvAEq7lJ-7" value="&lt;p style=&quot;margin:0px;margin-top:4px;text-align:center;&quot;&gt;ComConnection&lt;/p&gt;&lt;hr size=&quot;1&quot;&gt;&lt;p style=&quot;border-color: var(--border-color); margin: 0px 0px 0px 4px;&quot;&gt;&lt;/p&gt;&lt;span style=&quot;border-color: var(--border-color); text-align: center;&quot;&gt;&lt;br&gt;&lt;/span&gt;&lt;hr size=&quot;1&quot;&gt;&lt;p style=&quot;border-color: var(--border-color); margin: 0px 0px 0px 4px;&quot;&gt;+ Open&lt;/p&gt;&lt;p style=&quot;border-color: var(--border-color); margin: 0px 0px 0px 4px;&quot;&gt;+ Close&lt;/p&gt;&lt;p style=&quot;border-color: var(--border-color); margin: 0px 0px 0px 4px;&quot;&gt;+ Read&lt;/p&gt;&lt;p style=&quot;border-color: var(--border-color); margin: 0px 0px 0px 4px;&quot;&gt;+ Write&lt;/p&gt;&lt;p style=&quot;border-color: var(--border-color); margin: 0px 0px 0px 4px;&quot;&gt;+ OnError&lt;/p&gt;&lt;p style=&quot;border-color: var(--border-color); margin: 0px 0px 0px 4px;&quot;&gt;....&lt;/p&gt;&lt;p style=&quot;border-color: var(--border-color); margin: 0px 0px 0px 4px;&quot;&gt;&lt;br style=&quot;border-color: var(--border-color);&quot;&gt;&lt;/p&gt;" style="verticalAlign=top;align=left;overflow=fill;fontSize=12;fontFamily=Helvetica;html=1;whiteSpace=wrap;fillColor=#f8cecc;strokeColor=#b85450;" parent="1" vertex="1">
          <mxGeometry x="1920" y="570" width="200" height="150" as="geometry" />
        </mxCell>
        <mxCell id="IR0ScQQ0yflvrXLzgEa8-1" value="&lt;p style=&quot;margin:0px;margin-top:4px;text-align:center;&quot;&gt;&lt;i&gt;&amp;lt;&amp;lt;Interface&amp;gt;&amp;gt;&lt;/i&gt;&lt;br&gt;&lt;b&gt;Proto&lt;/b&gt;&lt;/p&gt;&lt;hr size=&quot;1&quot;&gt;&lt;p style=&quot;margin:0px;margin-left:4px;&quot;&gt;&lt;br&gt;&lt;/p&gt;&lt;hr size=&quot;1&quot;&gt;&lt;p style=&quot;border-color: var(--border-color); margin: 0px 0px 0px 4px;&quot;&gt;&lt;br&gt;&lt;/p&gt;" style="verticalAlign=top;align=left;overflow=fill;fontSize=12;fontFamily=Helvetica;html=1;whiteSpace=wrap;" parent="1" vertex="1">
          <mxGeometry x="1160" y="840" width="190" height="100" as="geometry" />
        </mxCell>
        <mxCell id="IR0ScQQ0yflvrXLzgEa8-2" value="&lt;p style=&quot;margin:0px;margin-top:4px;text-align:center;&quot;&gt;Owen&lt;/p&gt;&lt;hr size=&quot;1&quot;&gt;&lt;p style=&quot;margin:0px;margin-left:4px;&quot;&gt;&lt;/p&gt;&lt;span style=&quot;border-color: var(--border-color); text-align: center;&quot;&gt;&lt;p style=&quot;border-color: var(--border-color); text-align: left; margin: 0px 0px 0px 4px;&quot;&gt;&lt;br&gt;&lt;/p&gt;&lt;/span&gt;&lt;hr size=&quot;1&quot;&gt;&lt;p style=&quot;border-color: var(--border-color); margin: 0px 0px 0px 4px;&quot;&gt;&lt;br&gt;&lt;/p&gt;" style="verticalAlign=top;align=left;overflow=fill;fontSize=12;fontFamily=Helvetica;html=1;whiteSpace=wrap;fillColor=#f8cecc;strokeColor=#b85450;" parent="1" vertex="1">
          <mxGeometry x="920" y="990" width="186" height="150" as="geometry" />
        </mxCell>
        <mxCell id="IR0ScQQ0yflvrXLzgEa8-3" value="&lt;p style=&quot;margin:0px;margin-top:4px;text-align:center;&quot;&gt;Modbus&lt;/p&gt;&lt;hr size=&quot;1&quot;&gt;&lt;p style=&quot;margin:0px;margin-left:4px;&quot;&gt;&lt;/p&gt;&lt;span style=&quot;border-color: var(--border-color); text-align: center;&quot;&gt;&lt;p style=&quot;border-color: var(--border-color); text-align: left; margin: 0px 0px 0px 4px;&quot;&gt;&lt;br&gt;&lt;/p&gt;&lt;/span&gt;&lt;hr size=&quot;1&quot;&gt;&lt;p style=&quot;border-color: var(--border-color); margin: 0px 0px 0px 4px;&quot;&gt;&lt;br&gt;&lt;/p&gt;" style="verticalAlign=top;align=left;overflow=fill;fontSize=12;fontFamily=Helvetica;html=1;whiteSpace=wrap;fillColor=#f8cecc;strokeColor=#b85450;" parent="1" vertex="1">
          <mxGeometry x="1170" y="990" width="186" height="150" as="geometry" />
        </mxCell>
      </root>
    </mxGraphModel>
  </diagram>
  <diagram id="03p9jBIHx3gJBhGYKCNe" name="Страница — 4">
    <mxGraphModel dx="2587" dy="956" grid="1" gridSize="10" guides="1" tooltips="1" connect="1" arrows="1" fold="1" page="1" pageScale="1" pageWidth="827" pageHeight="1169" math="0" shadow="0">
      <root>
        <mxCell id="0" />
        <mxCell id="1" parent="0" />
        <mxCell id="YDet27CRgese8Jpq6OLI-1" value="DeviceModel" style="swimlane;whiteSpace=wrap;html=1;" parent="1" vertex="1">
          <mxGeometry x="630" y="100" width="490" height="420" as="geometry" />
        </mxCell>
        <mxCell id="YDet27CRgese8Jpq6OLI-2" value="Param1" style="swimlane;whiteSpace=wrap;html=1;startSize=23;" parent="YDet27CRgese8Jpq6OLI-1" vertex="1">
          <mxGeometry x="40" y="40" width="230" height="70" as="geometry" />
        </mxCell>
        <mxCell id="YDet27CRgese8Jpq6OLI-3" value="Param2" style="swimlane;whiteSpace=wrap;html=1;startSize=20;" parent="YDet27CRgese8Jpq6OLI-1" vertex="1">
          <mxGeometry x="40" y="120" width="230" height="70" as="geometry" />
        </mxCell>
        <mxCell id="YDet27CRgese8Jpq6OLI-4" value="ParamN" style="swimlane;whiteSpace=wrap;html=1;startSize=20;" parent="YDet27CRgese8Jpq6OLI-1" vertex="1">
          <mxGeometry x="40" y="330" width="230" height="70" as="geometry" />
        </mxCell>
        <mxCell id="hIjIpluaW1T3QAzOSgsU-1" value="DeviceDataContainer" style="swimlane;whiteSpace=wrap;html=1;startSize=20;" parent="1" vertex="1">
          <mxGeometry x="-680" y="110" width="650" height="380" as="geometry">
            <mxRectangle x="130" y="170" width="160" height="30" as="alternateBounds" />
          </mxGeometry>
        </mxCell>
        <mxCell id="hIjIpluaW1T3QAzOSgsU-2" value="Row 1" style="swimlane;whiteSpace=wrap;html=1;startSize=20;" parent="hIjIpluaW1T3QAzOSgsU-1" vertex="1">
          <mxGeometry y="20" width="650" height="40" as="geometry">
            <mxRectangle y="20" width="70" height="30" as="alternateBounds" />
          </mxGeometry>
        </mxCell>
        <mxCell id="hIjIpluaW1T3QAzOSgsU-3" value="Item1" style="rounded=0;whiteSpace=wrap;html=1;" parent="hIjIpluaW1T3QAzOSgsU-2" vertex="1">
          <mxGeometry y="20" width="110" height="20" as="geometry" />
        </mxCell>
        <mxCell id="hIjIpluaW1T3QAzOSgsU-4" value="Item2" style="rounded=0;whiteSpace=wrap;html=1;" parent="hIjIpluaW1T3QAzOSgsU-2" vertex="1">
          <mxGeometry x="110" y="20" width="110" height="20" as="geometry" />
        </mxCell>
        <mxCell id="hIjIpluaW1T3QAzOSgsU-5" value="Item3" style="rounded=0;whiteSpace=wrap;html=1;" parent="hIjIpluaW1T3QAzOSgsU-2" vertex="1">
          <mxGeometry x="220" y="20" width="110" height="20" as="geometry" />
        </mxCell>
        <mxCell id="hIjIpluaW1T3QAzOSgsU-6" value="Item4" style="rounded=0;whiteSpace=wrap;html=1;" parent="hIjIpluaW1T3QAzOSgsU-2" vertex="1">
          <mxGeometry x="330" y="20" width="110" height="20" as="geometry" />
        </mxCell>
        <mxCell id="hIjIpluaW1T3QAzOSgsU-7" value="Item5" style="rounded=0;whiteSpace=wrap;html=1;" parent="hIjIpluaW1T3QAzOSgsU-2" vertex="1">
          <mxGeometry x="440" y="20" width="110" height="20" as="geometry" />
        </mxCell>
        <mxCell id="hIjIpluaW1T3QAzOSgsU-8" value="Item6" style="rounded=0;whiteSpace=wrap;html=1;" parent="hIjIpluaW1T3QAzOSgsU-2" vertex="1">
          <mxGeometry x="540" y="20" width="110" height="20" as="geometry" />
        </mxCell>
        <mxCell id="hIjIpluaW1T3QAzOSgsU-9" value="Row 2" style="swimlane;whiteSpace=wrap;html=1;startSize=20;" parent="hIjIpluaW1T3QAzOSgsU-1" vertex="1">
          <mxGeometry y="60" width="650" height="40" as="geometry">
            <mxRectangle y="20" width="70" height="30" as="alternateBounds" />
          </mxGeometry>
        </mxCell>
        <mxCell id="hIjIpluaW1T3QAzOSgsU-10" value="Item1" style="rounded=0;whiteSpace=wrap;html=1;" parent="hIjIpluaW1T3QAzOSgsU-9" vertex="1">
          <mxGeometry y="20" width="110" height="20" as="geometry" />
        </mxCell>
        <mxCell id="hIjIpluaW1T3QAzOSgsU-11" value="Item2" style="rounded=0;whiteSpace=wrap;html=1;" parent="hIjIpluaW1T3QAzOSgsU-9" vertex="1">
          <mxGeometry x="110" y="20" width="110" height="20" as="geometry" />
        </mxCell>
        <mxCell id="hIjIpluaW1T3QAzOSgsU-12" value="Item3" style="rounded=0;whiteSpace=wrap;html=1;" parent="hIjIpluaW1T3QAzOSgsU-9" vertex="1">
          <mxGeometry x="220" y="20" width="110" height="20" as="geometry" />
        </mxCell>
        <mxCell id="hIjIpluaW1T3QAzOSgsU-13" value="Item4" style="rounded=0;whiteSpace=wrap;html=1;" parent="hIjIpluaW1T3QAzOSgsU-9" vertex="1">
          <mxGeometry x="330" y="20" width="110" height="20" as="geometry" />
        </mxCell>
        <mxCell id="hIjIpluaW1T3QAzOSgsU-14" value="Item5" style="rounded=0;whiteSpace=wrap;html=1;" parent="hIjIpluaW1T3QAzOSgsU-9" vertex="1">
          <mxGeometry x="440" y="20" width="110" height="20" as="geometry" />
        </mxCell>
        <mxCell id="hIjIpluaW1T3QAzOSgsU-15" value="Item6" style="rounded=0;whiteSpace=wrap;html=1;" parent="hIjIpluaW1T3QAzOSgsU-9" vertex="1">
          <mxGeometry x="540" y="20" width="110" height="20" as="geometry" />
        </mxCell>
        <mxCell id="hIjIpluaW1T3QAzOSgsU-16" value="Row 3" style="swimlane;whiteSpace=wrap;html=1;startSize=20;" parent="hIjIpluaW1T3QAzOSgsU-1" vertex="1">
          <mxGeometry y="100" width="650" height="40" as="geometry">
            <mxRectangle y="20" width="70" height="30" as="alternateBounds" />
          </mxGeometry>
        </mxCell>
        <mxCell id="hIjIpluaW1T3QAzOSgsU-17" value="Item1" style="rounded=0;whiteSpace=wrap;html=1;" parent="hIjIpluaW1T3QAzOSgsU-16" vertex="1">
          <mxGeometry y="20" width="110" height="20" as="geometry" />
        </mxCell>
        <mxCell id="hIjIpluaW1T3QAzOSgsU-18" value="Item2" style="rounded=0;whiteSpace=wrap;html=1;" parent="hIjIpluaW1T3QAzOSgsU-16" vertex="1">
          <mxGeometry x="110" y="20" width="110" height="20" as="geometry" />
        </mxCell>
        <mxCell id="hIjIpluaW1T3QAzOSgsU-19" value="Item3" style="rounded=0;whiteSpace=wrap;html=1;" parent="hIjIpluaW1T3QAzOSgsU-16" vertex="1">
          <mxGeometry x="220" y="20" width="110" height="20" as="geometry" />
        </mxCell>
        <mxCell id="hIjIpluaW1T3QAzOSgsU-20" value="Item4" style="rounded=0;whiteSpace=wrap;html=1;" parent="hIjIpluaW1T3QAzOSgsU-16" vertex="1">
          <mxGeometry x="330" y="20" width="110" height="20" as="geometry" />
        </mxCell>
        <mxCell id="hIjIpluaW1T3QAzOSgsU-21" value="Item5" style="rounded=0;whiteSpace=wrap;html=1;" parent="hIjIpluaW1T3QAzOSgsU-16" vertex="1">
          <mxGeometry x="440" y="20" width="110" height="20" as="geometry" />
        </mxCell>
        <mxCell id="hIjIpluaW1T3QAzOSgsU-22" value="Item6" style="rounded=0;whiteSpace=wrap;html=1;" parent="hIjIpluaW1T3QAzOSgsU-16" vertex="1">
          <mxGeometry x="540" y="20" width="110" height="20" as="geometry" />
        </mxCell>
        <mxCell id="K9TdSCrLy_sZJZUxqsYD-1" style="edgeStyle=orthogonalEdgeStyle;rounded=0;orthogonalLoop=1;jettySize=auto;html=1;exitX=0.25;exitY=1;exitDx=0;exitDy=0;" parent="hIjIpluaW1T3QAzOSgsU-16" source="hIjIpluaW1T3QAzOSgsU-19" target="hIjIpluaW1T3QAzOSgsU-19" edge="1">
          <mxGeometry relative="1" as="geometry" />
        </mxCell>
        <mxCell id="hIjIpluaW1T3QAzOSgsU-23" value="Row 4" style="swimlane;whiteSpace=wrap;html=1;startSize=20;" parent="hIjIpluaW1T3QAzOSgsU-1" vertex="1">
          <mxGeometry y="140" width="650" height="40" as="geometry">
            <mxRectangle y="20" width="70" height="30" as="alternateBounds" />
          </mxGeometry>
        </mxCell>
        <mxCell id="hIjIpluaW1T3QAzOSgsU-24" value="Item1" style="rounded=0;whiteSpace=wrap;html=1;" parent="hIjIpluaW1T3QAzOSgsU-23" vertex="1">
          <mxGeometry y="20" width="110" height="20" as="geometry" />
        </mxCell>
        <mxCell id="hIjIpluaW1T3QAzOSgsU-25" value="Item2" style="rounded=0;whiteSpace=wrap;html=1;" parent="hIjIpluaW1T3QAzOSgsU-23" vertex="1">
          <mxGeometry x="110" y="20" width="110" height="20" as="geometry" />
        </mxCell>
        <mxCell id="hIjIpluaW1T3QAzOSgsU-26" value="Item3" style="rounded=0;whiteSpace=wrap;html=1;" parent="hIjIpluaW1T3QAzOSgsU-23" vertex="1">
          <mxGeometry x="220" y="20" width="110" height="20" as="geometry" />
        </mxCell>
        <mxCell id="hIjIpluaW1T3QAzOSgsU-27" value="Item4" style="rounded=0;whiteSpace=wrap;html=1;" parent="hIjIpluaW1T3QAzOSgsU-23" vertex="1">
          <mxGeometry x="330" y="20" width="110" height="20" as="geometry" />
        </mxCell>
        <mxCell id="hIjIpluaW1T3QAzOSgsU-28" value="Item5" style="rounded=0;whiteSpace=wrap;html=1;" parent="hIjIpluaW1T3QAzOSgsU-23" vertex="1">
          <mxGeometry x="440" y="20" width="110" height="20" as="geometry" />
        </mxCell>
        <mxCell id="hIjIpluaW1T3QAzOSgsU-29" value="Item6" style="rounded=0;whiteSpace=wrap;html=1;" parent="hIjIpluaW1T3QAzOSgsU-23" vertex="1">
          <mxGeometry x="540" y="20" width="110" height="20" as="geometry" />
        </mxCell>
        <mxCell id="hIjIpluaW1T3QAzOSgsU-30" value="Row 5" style="swimlane;whiteSpace=wrap;html=1;startSize=20;" parent="hIjIpluaW1T3QAzOSgsU-1" vertex="1">
          <mxGeometry y="180" width="650" height="40" as="geometry">
            <mxRectangle y="20" width="70" height="30" as="alternateBounds" />
          </mxGeometry>
        </mxCell>
        <mxCell id="hIjIpluaW1T3QAzOSgsU-31" value="Item1" style="rounded=0;whiteSpace=wrap;html=1;" parent="hIjIpluaW1T3QAzOSgsU-30" vertex="1">
          <mxGeometry y="20" width="110" height="20" as="geometry" />
        </mxCell>
        <mxCell id="hIjIpluaW1T3QAzOSgsU-32" value="Item2" style="rounded=0;whiteSpace=wrap;html=1;" parent="hIjIpluaW1T3QAzOSgsU-30" vertex="1">
          <mxGeometry x="110" y="20" width="110" height="20" as="geometry" />
        </mxCell>
        <mxCell id="hIjIpluaW1T3QAzOSgsU-33" value="Item3" style="rounded=0;whiteSpace=wrap;html=1;" parent="hIjIpluaW1T3QAzOSgsU-30" vertex="1">
          <mxGeometry x="220" y="20" width="110" height="20" as="geometry" />
        </mxCell>
        <mxCell id="hIjIpluaW1T3QAzOSgsU-34" value="Item4" style="rounded=0;whiteSpace=wrap;html=1;" parent="hIjIpluaW1T3QAzOSgsU-30" vertex="1">
          <mxGeometry x="330" y="20" width="110" height="20" as="geometry" />
        </mxCell>
        <mxCell id="hIjIpluaW1T3QAzOSgsU-35" value="Item5" style="rounded=0;whiteSpace=wrap;html=1;" parent="hIjIpluaW1T3QAzOSgsU-30" vertex="1">
          <mxGeometry x="440" y="20" width="110" height="20" as="geometry" />
        </mxCell>
        <mxCell id="hIjIpluaW1T3QAzOSgsU-36" value="Item6" style="rounded=0;whiteSpace=wrap;html=1;" parent="hIjIpluaW1T3QAzOSgsU-30" vertex="1">
          <mxGeometry x="540" y="20" width="110" height="20" as="geometry" />
        </mxCell>
        <mxCell id="hIjIpluaW1T3QAzOSgsU-37" value="Row 6" style="swimlane;whiteSpace=wrap;html=1;startSize=20;" parent="hIjIpluaW1T3QAzOSgsU-1" vertex="1">
          <mxGeometry y="220" width="650" height="40" as="geometry">
            <mxRectangle y="20" width="70" height="30" as="alternateBounds" />
          </mxGeometry>
        </mxCell>
        <mxCell id="hIjIpluaW1T3QAzOSgsU-38" value="Item1" style="rounded=0;whiteSpace=wrap;html=1;" parent="hIjIpluaW1T3QAzOSgsU-37" vertex="1">
          <mxGeometry y="20" width="110" height="20" as="geometry" />
        </mxCell>
        <mxCell id="hIjIpluaW1T3QAzOSgsU-39" value="Item2" style="rounded=0;whiteSpace=wrap;html=1;" parent="hIjIpluaW1T3QAzOSgsU-37" vertex="1">
          <mxGeometry x="110" y="20" width="110" height="20" as="geometry" />
        </mxCell>
        <mxCell id="hIjIpluaW1T3QAzOSgsU-40" value="Item3" style="rounded=0;whiteSpace=wrap;html=1;" parent="hIjIpluaW1T3QAzOSgsU-37" vertex="1">
          <mxGeometry x="220" y="20" width="110" height="20" as="geometry" />
        </mxCell>
        <mxCell id="hIjIpluaW1T3QAzOSgsU-41" value="Item4" style="rounded=0;whiteSpace=wrap;html=1;" parent="hIjIpluaW1T3QAzOSgsU-37" vertex="1">
          <mxGeometry x="330" y="20" width="110" height="20" as="geometry" />
        </mxCell>
        <mxCell id="hIjIpluaW1T3QAzOSgsU-42" value="Item5" style="rounded=0;whiteSpace=wrap;html=1;" parent="hIjIpluaW1T3QAzOSgsU-37" vertex="1">
          <mxGeometry x="440" y="20" width="110" height="20" as="geometry" />
        </mxCell>
        <mxCell id="hIjIpluaW1T3QAzOSgsU-43" value="Item6" style="rounded=0;whiteSpace=wrap;html=1;" parent="hIjIpluaW1T3QAzOSgsU-37" vertex="1">
          <mxGeometry x="540" y="20" width="110" height="20" as="geometry" />
        </mxCell>
        <mxCell id="hIjIpluaW1T3QAzOSgsU-44" value="" style="ellipse;whiteSpace=wrap;html=1;aspect=fixed;fillColor=#000000;" parent="hIjIpluaW1T3QAzOSgsU-1" vertex="1">
          <mxGeometry x="320" y="270" width="10" height="10" as="geometry" />
        </mxCell>
        <mxCell id="hIjIpluaW1T3QAzOSgsU-45" value="" style="ellipse;whiteSpace=wrap;html=1;aspect=fixed;fillColor=#000000;" parent="hIjIpluaW1T3QAzOSgsU-1" vertex="1">
          <mxGeometry x="320" y="290" width="10" height="10" as="geometry" />
        </mxCell>
        <mxCell id="hIjIpluaW1T3QAzOSgsU-46" value="" style="ellipse;whiteSpace=wrap;html=1;aspect=fixed;fillColor=#000000;" parent="hIjIpluaW1T3QAzOSgsU-1" vertex="1">
          <mxGeometry x="320" y="310" width="10" height="10" as="geometry" />
        </mxCell>
        <mxCell id="hIjIpluaW1T3QAzOSgsU-47" value="Row N" style="swimlane;whiteSpace=wrap;html=1;startSize=20;" parent="hIjIpluaW1T3QAzOSgsU-1" vertex="1">
          <mxGeometry y="340" width="650" height="40" as="geometry">
            <mxRectangle y="20" width="70" height="30" as="alternateBounds" />
          </mxGeometry>
        </mxCell>
        <mxCell id="hIjIpluaW1T3QAzOSgsU-48" value="Item1" style="rounded=0;whiteSpace=wrap;html=1;" parent="hIjIpluaW1T3QAzOSgsU-47" vertex="1">
          <mxGeometry y="20" width="110" height="20" as="geometry" />
        </mxCell>
        <mxCell id="hIjIpluaW1T3QAzOSgsU-49" value="Item2" style="rounded=0;whiteSpace=wrap;html=1;" parent="hIjIpluaW1T3QAzOSgsU-47" vertex="1">
          <mxGeometry x="110" y="20" width="110" height="20" as="geometry" />
        </mxCell>
        <mxCell id="hIjIpluaW1T3QAzOSgsU-50" value="Item3" style="rounded=0;whiteSpace=wrap;html=1;" parent="hIjIpluaW1T3QAzOSgsU-47" vertex="1">
          <mxGeometry x="220" y="20" width="110" height="20" as="geometry" />
        </mxCell>
        <mxCell id="hIjIpluaW1T3QAzOSgsU-51" value="Item4" style="rounded=0;whiteSpace=wrap;html=1;" parent="hIjIpluaW1T3QAzOSgsU-47" vertex="1">
          <mxGeometry x="330" y="20" width="110" height="20" as="geometry" />
        </mxCell>
        <mxCell id="hIjIpluaW1T3QAzOSgsU-52" value="Item5" style="rounded=0;whiteSpace=wrap;html=1;" parent="hIjIpluaW1T3QAzOSgsU-47" vertex="1">
          <mxGeometry x="440" y="20" width="110" height="20" as="geometry" />
        </mxCell>
        <mxCell id="hIjIpluaW1T3QAzOSgsU-53" value="Item6" style="rounded=0;whiteSpace=wrap;html=1;" parent="hIjIpluaW1T3QAzOSgsU-47" vertex="1">
          <mxGeometry x="540" y="20" width="110" height="20" as="geometry" />
        </mxCell>
        <mxCell id="Vnx2I8xYcSAUIZG2XtK0-122" value="" style="shape=flexArrow;endArrow=classic;html=1;rounded=0;exitX=0.627;exitY=0.1;exitDx=0;exitDy=0;exitPerimeter=0;" parent="hIjIpluaW1T3QAzOSgsU-1" source="hIjIpluaW1T3QAzOSgsU-8" edge="1">
          <mxGeometry width="50" height="50" relative="1" as="geometry">
            <mxPoint x="620" y="50" as="sourcePoint" />
            <mxPoint x="820" y="10" as="targetPoint" />
          </mxGeometry>
        </mxCell>
        <mxCell id="Vnx2I8xYcSAUIZG2XtK0-108" value="DeviceTreeModel" style="swimlane;whiteSpace=wrap;html=1;startSize=30;" parent="1" vertex="1">
          <mxGeometry x="60" y="20" width="490" height="420" as="geometry" />
        </mxCell>
        <mxCell id="Vnx2I8xYcSAUIZG2XtK0-109" value="item1 name" style="swimlane;whiteSpace=wrap;html=1;" parent="Vnx2I8xYcSAUIZG2XtK0-108" vertex="1">
          <mxGeometry x="40" y="57" width="110" height="80" as="geometry" />
        </mxCell>
        <mxCell id="Vnx2I8xYcSAUIZG2XtK0-120" value="" style="shape=flexArrow;endArrow=classic;html=1;rounded=0;" parent="Vnx2I8xYcSAUIZG2XtK0-109" edge="1">
          <mxGeometry width="50" height="50" relative="1" as="geometry">
            <mxPoint x="200" y="70" as="sourcePoint" />
            <mxPoint x="580" y="120" as="targetPoint" />
          </mxGeometry>
        </mxCell>
        <mxCell id="Vnx2I8xYcSAUIZG2XtK0-110" value="TreeParam2" style="swimlane;whiteSpace=wrap;html=1;startSize=20;" parent="Vnx2I8xYcSAUIZG2XtK0-108" vertex="1">
          <mxGeometry x="40" y="170" width="230" height="100" as="geometry" />
        </mxCell>
        <mxCell id="Vnx2I8xYcSAUIZG2XtK0-111" value="ParamN" style="swimlane;whiteSpace=wrap;html=1;startSize=20;" parent="Vnx2I8xYcSAUIZG2XtK0-108" vertex="1">
          <mxGeometry x="40" y="330" width="230" height="70" as="geometry" />
        </mxCell>
        <mxCell id="ggpiklewXceaOVgF7J1V-1" value="item 2 value" style="swimlane;whiteSpace=wrap;html=1;" parent="Vnx2I8xYcSAUIZG2XtK0-108" vertex="1">
          <mxGeometry x="160" y="56" width="110" height="80" as="geometry" />
        </mxCell>
        <mxCell id="ggpiklewXceaOVgF7J1V-3" value="param manager 1" style="swimlane;whiteSpace=wrap;html=1;startSize=20;" parent="Vnx2I8xYcSAUIZG2XtK0-108" vertex="1">
          <mxGeometry x="20" y="30" width="280" height="130" as="geometry" />
        </mxCell>
        <mxCell id="Vnx2I8xYcSAUIZG2XtK0-112" value="DeviceTableModel" style="swimlane;whiteSpace=wrap;html=1;startSize=30;" parent="1" vertex="1">
          <mxGeometry x="60" y="480" width="490" height="420" as="geometry" />
        </mxCell>
        <mxCell id="Vnx2I8xYcSAUIZG2XtK0-113" value="Param1" style="swimlane;whiteSpace=wrap;html=1;" parent="Vnx2I8xYcSAUIZG2XtK0-112" vertex="1">
          <mxGeometry x="40" y="40" width="230" height="70" as="geometry" />
        </mxCell>
        <mxCell id="Vnx2I8xYcSAUIZG2XtK0-114" value="Param2" style="swimlane;whiteSpace=wrap;html=1;startSize=20;" parent="Vnx2I8xYcSAUIZG2XtK0-112" vertex="1">
          <mxGeometry x="40" y="120" width="230" height="70" as="geometry" />
        </mxCell>
        <mxCell id="Vnx2I8xYcSAUIZG2XtK0-115" value="ParamN" style="swimlane;whiteSpace=wrap;html=1;startSize=20;" parent="Vnx2I8xYcSAUIZG2XtK0-112" vertex="1">
          <mxGeometry x="40" y="330" width="230" height="70" as="geometry" />
        </mxCell>
        <mxCell id="Vnx2I8xYcSAUIZG2XtK0-116" value="DeviceListModel" style="swimlane;whiteSpace=wrap;html=1;startSize=30;" parent="1" vertex="1">
          <mxGeometry x="60" y="940" width="490" height="420" as="geometry" />
        </mxCell>
        <mxCell id="Vnx2I8xYcSAUIZG2XtK0-117" value="Param1" style="swimlane;whiteSpace=wrap;html=1;" parent="Vnx2I8xYcSAUIZG2XtK0-116" vertex="1">
          <mxGeometry x="40" y="40" width="230" height="70" as="geometry" />
        </mxCell>
        <mxCell id="Vnx2I8xYcSAUIZG2XtK0-118" value="Param2" style="swimlane;whiteSpace=wrap;html=1;startSize=20;" parent="Vnx2I8xYcSAUIZG2XtK0-116" vertex="1">
          <mxGeometry x="40" y="120" width="230" height="70" as="geometry" />
        </mxCell>
        <mxCell id="Vnx2I8xYcSAUIZG2XtK0-119" value="ParamN" style="swimlane;whiteSpace=wrap;html=1;startSize=20;" parent="Vnx2I8xYcSAUIZG2XtK0-116" vertex="1">
          <mxGeometry x="40" y="330" width="230" height="70" as="geometry" />
        </mxCell>
        <mxCell id="Vnx2I8xYcSAUIZG2XtK0-121" value="" style="shape=flexArrow;endArrow=classic;html=1;rounded=0;" parent="1" edge="1">
          <mxGeometry width="50" height="50" relative="1" as="geometry">
            <mxPoint x="300" y="240" as="sourcePoint" />
            <mxPoint x="680" y="270" as="targetPoint" />
          </mxGeometry>
        </mxCell>
        <mxCell id="Vnx2I8xYcSAUIZG2XtK0-123" value="" style="shape=flexArrow;endArrow=classic;html=1;rounded=0;exitX=0.627;exitY=0.1;exitDx=0;exitDy=0;exitPerimeter=0;" parent="1" edge="1">
          <mxGeometry width="50" height="50" relative="1" as="geometry">
            <mxPoint x="-70" y="202" as="sourcePoint" />
            <mxPoint x="120" y="260" as="targetPoint" />
          </mxGeometry>
        </mxCell>
        <mxCell id="Vnx2I8xYcSAUIZG2XtK0-124" value="" style="shape=flexArrow;endArrow=classic;html=1;rounded=0;exitX=0.627;exitY=0.1;exitDx=0;exitDy=0;exitPerimeter=0;" parent="1" edge="1">
          <mxGeometry width="50" height="50" relative="1" as="geometry">
            <mxPoint x="-100" y="472" as="sourcePoint" />
            <mxPoint x="130" y="390" as="targetPoint" />
          </mxGeometry>
        </mxCell>
      </root>
    </mxGraphModel>
  </diagram>
  <diagram id="djoSWErhMeJ_OOO3q6N0" name="Страница — 5">
    <mxGraphModel dx="3585" dy="3144" grid="1" gridSize="10" guides="1" tooltips="1" connect="1" arrows="1" fold="1" page="1" pageScale="1" pageWidth="827" pageHeight="1169" math="0" shadow="0">
      <root>
        <mxCell id="0" />
        <mxCell id="1" parent="0" />
        <mxCell id="B11gTvaxnq1XmtoSN8UW-1" value="AQ_Session &lt;font style=&quot;font-size: 10px;&quot;&gt;&lt;i style=&quot;font-weight: normal;&quot;&gt;(owner - Main)&lt;/i&gt;&lt;/font&gt;" style="swimlane;whiteSpace=wrap;html=1;fillColor=#d5e8d4;strokeColor=#82b366;" parent="1" vertex="1">
          <mxGeometry x="10" y="10" width="250" height="360" as="geometry" />
        </mxCell>
        <mxCell id="B11gTvaxnq1XmtoSN8UW-2" value="&lt;b&gt;-Parent - main&lt;/b&gt;" style="text;html=1;align=center;verticalAlign=middle;resizable=0;points=[];autosize=1;strokeColor=none;fillColor=none;" parent="B11gTvaxnq1XmtoSN8UW-1" vertex="1">
          <mxGeometry y="20" width="100" height="30" as="geometry" />
        </mxCell>
        <mxCell id="B11gTvaxnq1XmtoSN8UW-14" value="Methods" style="swimlane;fontStyle=0;childLayout=stackLayout;horizontal=1;startSize=20;horizontalStack=0;resizeParent=1;resizeParentMax=0;resizeLast=0;collapsible=1;marginBottom=0;whiteSpace=wrap;html=1;" parent="B11gTvaxnq1XmtoSN8UW-1" vertex="1">
          <mxGeometry y="160" width="250" height="200" as="geometry" />
        </mxCell>
        <mxCell id="B11gTvaxnq1XmtoSN8UW-15" value="&lt;ul&gt;&lt;li&gt;open_AddDevices (*EventM)&lt;/li&gt;&lt;/ul&gt;" style="text;strokeColor=none;fillColor=none;align=left;verticalAlign=middle;spacingLeft=4;spacingRight=4;overflow=hidden;points=[[0,0.5],[1,0.5]];portConstraint=eastwest;rotatable=0;whiteSpace=wrap;html=1;" parent="B11gTvaxnq1XmtoSN8UW-14" vertex="1">
          <mxGeometry y="20" width="250" height="30" as="geometry" />
        </mxCell>
        <mxCell id="B11gTvaxnq1XmtoSN8UW-16" value="&lt;ul&gt;&lt;li&gt;add_new_devices(*EventM)&lt;/li&gt;&lt;/ul&gt;" style="text;strokeColor=none;fillColor=none;align=left;verticalAlign=middle;spacingLeft=4;spacingRight=4;overflow=hidden;points=[[0,0.5],[1,0.5]];portConstraint=eastwest;rotatable=0;whiteSpace=wrap;html=1;" parent="B11gTvaxnq1XmtoSN8UW-14" vertex="1">
          <mxGeometry y="50" width="250" height="30" as="geometry" />
        </mxCell>
        <mxCell id="BPRDDZzdLg85-zejRSAX-1" value="&lt;ul&gt;&lt;li&gt;set_cur_active_device(*EventM)&lt;/li&gt;&lt;/ul&gt;" style="text;strokeColor=none;fillColor=none;align=left;verticalAlign=middle;spacingLeft=4;spacingRight=4;overflow=hidden;points=[[0,0.5],[1,0.5]];portConstraint=eastwest;rotatable=0;whiteSpace=wrap;html=1;" parent="B11gTvaxnq1XmtoSN8UW-14" vertex="1">
          <mxGeometry y="80" width="250" height="30" as="geometry" />
        </mxCell>
        <mxCell id="BPRDDZzdLg85-zejRSAX-2" value="&lt;ul&gt;&lt;li&gt;read_params_cur_active_device(*EventM)&lt;/li&gt;&lt;/ul&gt;" style="text;strokeColor=none;fillColor=none;align=left;verticalAlign=middle;spacingLeft=4;spacingRight=4;overflow=hidden;points=[[0,0.5],[1,0.5]];portConstraint=eastwest;rotatable=0;whiteSpace=wrap;html=1;" parent="B11gTvaxnq1XmtoSN8UW-14" vertex="1">
          <mxGeometry y="110" width="250" height="30" as="geometry" />
        </mxCell>
        <mxCell id="zfRY00krcIHAmy4edK_9-1" value="&lt;ul&gt;&lt;li&gt;write_params_cur_active_device(*EventM)&lt;/li&gt;&lt;/ul&gt;" style="text;strokeColor=none;fillColor=none;align=left;verticalAlign=middle;spacingLeft=4;spacingRight=4;overflow=hidden;points=[[0,0.5],[1,0.5]];portConstraint=eastwest;rotatable=0;whiteSpace=wrap;html=1;" parent="B11gTvaxnq1XmtoSN8UW-14" vertex="1">
          <mxGeometry y="140" width="250" height="30" as="geometry" />
        </mxCell>
        <mxCell id="zfRY00krcIHAmy4edK_9-2" value="&lt;ul&gt;&lt;li&gt;delete_device(*EventM)&lt;/li&gt;&lt;/ul&gt;" style="text;strokeColor=none;fillColor=none;align=left;verticalAlign=middle;spacingLeft=4;spacingRight=4;overflow=hidden;points=[[0,0.5],[1,0.5]];portConstraint=eastwest;rotatable=0;whiteSpace=wrap;html=1;" parent="B11gTvaxnq1XmtoSN8UW-14" vertex="1">
          <mxGeometry y="170" width="250" height="30" as="geometry" />
        </mxCell>
        <mxCell id="B11gTvaxnq1XmtoSN8UW-27" value="fields" style="swimlane;fontStyle=0;childLayout=stackLayout;horizontal=1;startSize=20;horizontalStack=0;resizeParent=1;resizeParentMax=0;resizeLast=0;collapsible=1;marginBottom=0;whiteSpace=wrap;html=1;" parent="B11gTvaxnq1XmtoSN8UW-1" vertex="1">
          <mxGeometry y="50" width="250" height="110" as="geometry" />
        </mxCell>
        <mxCell id="B11gTvaxnq1XmtoSN8UW-28" value="&lt;ul style=&quot;border-color: var(--border-color);&quot;&gt;&lt;li style=&quot;border-color: var(--border-color);&quot;&gt;&lt;span style=&quot;background-color: rgb(241, 156, 153);&quot;&gt;*event_manager&lt;/span&gt;&lt;/li&gt;&lt;/ul&gt;" style="text;strokeColor=none;fillColor=none;align=left;verticalAlign=middle;spacingLeft=4;spacingRight=4;overflow=hidden;points=[[0,0.5],[1,0.5]];portConstraint=eastwest;rotatable=0;whiteSpace=wrap;html=1;" parent="B11gTvaxnq1XmtoSN8UW-27" vertex="1">
          <mxGeometry y="20" width="250" height="30" as="geometry" />
        </mxCell>
        <mxCell id="B11gTvaxnq1XmtoSN8UW-29" value="&lt;ul style=&quot;border-color: var(--border-color);&quot;&gt;&lt;li style=&quot;border-color: var(--border-color);&quot;&gt;devices_list(*AQ_device)&lt;/li&gt;&lt;/ul&gt;" style="text;strokeColor=none;fillColor=none;align=left;verticalAlign=middle;spacingLeft=4;spacingRight=4;overflow=hidden;points=[[0,0.5],[1,0.5]];portConstraint=eastwest;rotatable=0;whiteSpace=wrap;html=1;" parent="B11gTvaxnq1XmtoSN8UW-27" vertex="1">
          <mxGeometry y="50" width="250" height="30" as="geometry" />
        </mxCell>
        <mxCell id="B11gTvaxnq1XmtoSN8UW-30" value="&lt;ul style=&quot;border-color: var(--border-color);&quot;&gt;&lt;li style=&quot;border-color: var(--border-color);&quot;&gt;*cur_active_device&lt;/li&gt;&lt;/ul&gt;" style="text;strokeColor=none;fillColor=none;align=left;verticalAlign=middle;spacingLeft=4;spacingRight=4;overflow=hidden;points=[[0,0.5],[1,0.5]];portConstraint=eastwest;rotatable=0;whiteSpace=wrap;html=1;" parent="B11gTvaxnq1XmtoSN8UW-27" vertex="1">
          <mxGeometry y="80" width="250" height="30" as="geometry" />
        </mxCell>
        <mxCell id="B11gTvaxnq1XmtoSN8UW-18" value="AQ_Device&amp;nbsp;&lt;font style=&quot;font-size: 10px;&quot;&gt;&lt;i style=&quot;font-weight: normal;&quot;&gt;(owner - Main.devices_list)&lt;/i&gt;&lt;/font&gt;" style="swimlane;whiteSpace=wrap;html=1;fillColor=#d5e8d4;strokeColor=#82b366;" parent="1" vertex="1">
          <mxGeometry x="330" y="10" width="250" height="390" as="geometry" />
        </mxCell>
        <mxCell id="B11gTvaxnq1XmtoSN8UW-19" value="&lt;b&gt;-Parent - None&lt;/b&gt;" style="text;html=1;align=center;verticalAlign=middle;resizable=0;points=[];autosize=1;strokeColor=none;fillColor=none;" parent="B11gTvaxnq1XmtoSN8UW-18" vertex="1">
          <mxGeometry x="-5" y="20" width="110" height="30" as="geometry" />
        </mxCell>
        <mxCell id="B11gTvaxnq1XmtoSN8UW-20" value="Methods" style="swimlane;fontStyle=0;childLayout=stackLayout;horizontal=1;startSize=20;horizontalStack=0;resizeParent=1;resizeParentMax=0;resizeLast=0;collapsible=1;marginBottom=0;whiteSpace=wrap;html=1;" parent="B11gTvaxnq1XmtoSN8UW-18" vertex="1">
          <mxGeometry y="190" width="250" height="200" as="geometry" />
        </mxCell>
        <mxCell id="B11gTvaxnq1XmtoSN8UW-21" value="&lt;ul&gt;&lt;li&gt;&lt;span style=&quot;background-color: initial;&quot;&gt;get_device_status&lt;/span&gt;&lt;br&gt;&lt;/li&gt;&lt;/ul&gt;" style="text;strokeColor=none;fillColor=none;align=left;verticalAlign=middle;spacingLeft=4;spacingRight=4;overflow=hidden;points=[[0,0.5],[1,0.5]];portConstraint=eastwest;rotatable=0;whiteSpace=wrap;html=1;" parent="B11gTvaxnq1XmtoSN8UW-20" vertex="1">
          <mxGeometry y="20" width="250" height="30" as="geometry" />
        </mxCell>
        <mxCell id="BPRDDZzdLg85-zejRSAX-3" value="&lt;ul&gt;&lt;li&gt;get_device_data&lt;/li&gt;&lt;/ul&gt;" style="text;strokeColor=none;fillColor=none;align=left;verticalAlign=middle;spacingLeft=4;spacingRight=4;overflow=hidden;points=[[0,0.5],[1,0.5]];portConstraint=eastwest;rotatable=0;whiteSpace=wrap;html=1;" parent="B11gTvaxnq1XmtoSN8UW-20" vertex="1">
          <mxGeometry y="50" width="250" height="30" as="geometry" />
        </mxCell>
        <mxCell id="B11gTvaxnq1XmtoSN8UW-22" value="&lt;ul&gt;&lt;li&gt;read_parameter&lt;/li&gt;&lt;/ul&gt;" style="text;strokeColor=none;fillColor=none;align=left;verticalAlign=middle;spacingLeft=4;spacingRight=4;overflow=hidden;points=[[0,0.5],[1,0.5]];portConstraint=eastwest;rotatable=0;whiteSpace=wrap;html=1;" parent="B11gTvaxnq1XmtoSN8UW-20" vertex="1">
          <mxGeometry y="80" width="250" height="30" as="geometry" />
        </mxCell>
        <mxCell id="BPRDDZzdLg85-zejRSAX-4" value="&lt;ul&gt;&lt;li&gt;read_all_parameters&lt;/li&gt;&lt;/ul&gt;" style="text;strokeColor=none;fillColor=none;align=left;verticalAlign=middle;spacingLeft=4;spacingRight=4;overflow=hidden;points=[[0,0.5],[1,0.5]];portConstraint=eastwest;rotatable=0;whiteSpace=wrap;html=1;" parent="B11gTvaxnq1XmtoSN8UW-20" vertex="1">
          <mxGeometry y="110" width="250" height="30" as="geometry" />
        </mxCell>
        <mxCell id="zfRY00krcIHAmy4edK_9-3" value="&lt;ul&gt;&lt;li&gt;write_parameter&lt;/li&gt;&lt;/ul&gt;" style="text;strokeColor=none;fillColor=none;align=left;verticalAlign=middle;spacingLeft=4;spacingRight=4;overflow=hidden;points=[[0,0.5],[1,0.5]];portConstraint=eastwest;rotatable=0;whiteSpace=wrap;html=1;" parent="B11gTvaxnq1XmtoSN8UW-20" vertex="1">
          <mxGeometry y="140" width="250" height="30" as="geometry" />
        </mxCell>
        <mxCell id="zfRY00krcIHAmy4edK_9-4" value="&lt;ul&gt;&lt;li style=&quot;border-color: var(--border-color);&quot;&gt;write_all_parameters&lt;/li&gt;&lt;/ul&gt;" style="text;strokeColor=none;fillColor=none;align=left;verticalAlign=middle;spacingLeft=4;spacingRight=4;overflow=hidden;points=[[0,0.5],[1,0.5]];portConstraint=eastwest;rotatable=0;whiteSpace=wrap;html=1;" parent="B11gTvaxnq1XmtoSN8UW-20" vertex="1">
          <mxGeometry y="170" width="250" height="30" as="geometry" />
        </mxCell>
        <mxCell id="B11gTvaxnq1XmtoSN8UW-8" value="fields" style="swimlane;fontStyle=0;childLayout=stackLayout;horizontal=1;startSize=20;horizontalStack=0;resizeParent=1;resizeParentMax=0;resizeLast=0;collapsible=1;marginBottom=0;whiteSpace=wrap;html=1;" parent="B11gTvaxnq1XmtoSN8UW-18" vertex="1">
          <mxGeometry y="50" width="250" height="140" as="geometry" />
        </mxCell>
        <mxCell id="B11gTvaxnq1XmtoSN8UW-9" value="&lt;ul style=&quot;border-color: var(--border-color);&quot;&gt;&lt;li style=&quot;border-color: var(--border-color);&quot;&gt;&lt;span style=&quot;background-color: rgb(241, 156, 153);&quot;&gt;*event_manager&lt;/span&gt;&lt;/li&gt;&lt;/ul&gt;" style="text;strokeColor=none;fillColor=none;align=left;verticalAlign=middle;spacingLeft=4;spacingRight=4;overflow=hidden;points=[[0,0.5],[1,0.5]];portConstraint=eastwest;rotatable=0;whiteSpace=wrap;html=1;" parent="B11gTvaxnq1XmtoSN8UW-8" vertex="1">
          <mxGeometry y="20" width="250" height="30" as="geometry" />
        </mxCell>
        <mxCell id="B11gTvaxnq1XmtoSN8UW-10" value="&lt;ul style=&quot;border-color: var(--border-color);&quot;&gt;&lt;li style=&quot;border-color: var(--border-color);&quot;&gt;device_data&lt;/li&gt;&lt;/ul&gt;" style="text;strokeColor=none;fillColor=none;align=left;verticalAlign=middle;spacingLeft=4;spacingRight=4;overflow=hidden;points=[[0,0.5],[1,0.5]];portConstraint=eastwest;rotatable=0;whiteSpace=wrap;html=1;" parent="B11gTvaxnq1XmtoSN8UW-8" vertex="1">
          <mxGeometry y="50" width="250" height="30" as="geometry" />
        </mxCell>
        <mxCell id="B11gTvaxnq1XmtoSN8UW-11" value="&lt;ul style=&quot;border-color: var(--border-color);&quot;&gt;&lt;li style=&quot;border-color: var(--border-color);&quot;&gt;client&lt;/li&gt;&lt;/ul&gt;" style="text;strokeColor=none;fillColor=none;align=left;verticalAlign=middle;spacingLeft=4;spacingRight=4;overflow=hidden;points=[[0,0.5],[1,0.5]];portConstraint=eastwest;rotatable=0;whiteSpace=wrap;html=1;" parent="B11gTvaxnq1XmtoSN8UW-8" vertex="1">
          <mxGeometry y="80" width="250" height="30" as="geometry" />
        </mxCell>
        <mxCell id="B11gTvaxnq1XmtoSN8UW-31" value="&lt;ul style=&quot;border-color: var(--border-color);&quot;&gt;&lt;li style=&quot;border-color: var(--border-color);&quot;&gt;device_tree (model)&lt;/li&gt;&lt;/ul&gt;" style="text;strokeColor=none;fillColor=none;align=left;verticalAlign=middle;spacingLeft=4;spacingRight=4;overflow=hidden;points=[[0,0.5],[1,0.5]];portConstraint=eastwest;rotatable=0;whiteSpace=wrap;html=1;" parent="B11gTvaxnq1XmtoSN8UW-8" vertex="1">
          <mxGeometry y="110" width="250" height="30" as="geometry" />
        </mxCell>
        <mxCell id="B11gTvaxnq1XmtoSN8UW-33" value="AQ_DeviceTreeModel(QStandardItemModel)&lt;br&gt;&amp;nbsp;&lt;font style=&quot;font-size: 10px;&quot;&gt;&lt;i style=&quot;font-weight: normal;&quot;&gt;(owner - AQ_Device)&lt;/i&gt;&lt;/font&gt;" style="swimlane;whiteSpace=wrap;html=1;startSize=60;fillColor=#d5e8d4;strokeColor=#82b366;" parent="1" vertex="1">
          <mxGeometry x="660" y="10" width="250" height="280" as="geometry" />
        </mxCell>
        <mxCell id="B11gTvaxnq1XmtoSN8UW-34" value="&lt;b&gt;-Parent - None&lt;/b&gt;" style="text;html=1;align=center;verticalAlign=middle;resizable=0;points=[];autosize=1;strokeColor=none;fillColor=none;" parent="B11gTvaxnq1XmtoSN8UW-33" vertex="1">
          <mxGeometry x="-5" y="60" width="110" height="30" as="geometry" />
        </mxCell>
        <mxCell id="B11gTvaxnq1XmtoSN8UW-35" value="Methods" style="swimlane;fontStyle=0;childLayout=stackLayout;horizontal=1;startSize=20;horizontalStack=0;resizeParent=1;resizeParentMax=0;resizeLast=0;collapsible=1;marginBottom=0;whiteSpace=wrap;html=1;" parent="B11gTvaxnq1XmtoSN8UW-33" vertex="1">
          <mxGeometry y="140" width="250" height="80" as="geometry" />
        </mxCell>
        <mxCell id="B11gTvaxnq1XmtoSN8UW-36" value="&lt;ul&gt;&lt;li&gt;&lt;span style=&quot;background-color: initial;&quot;&gt;set_device&lt;/span&gt;&lt;br&gt;&lt;/li&gt;&lt;/ul&gt;" style="text;strokeColor=none;fillColor=none;align=left;verticalAlign=middle;spacingLeft=4;spacingRight=4;overflow=hidden;points=[[0,0.5],[1,0.5]];portConstraint=eastwest;rotatable=0;whiteSpace=wrap;html=1;" parent="B11gTvaxnq1XmtoSN8UW-35" vertex="1">
          <mxGeometry y="20" width="250" height="30" as="geometry" />
        </mxCell>
        <mxCell id="B11gTvaxnq1XmtoSN8UW-37" value="&lt;ul&gt;&lt;li&gt;get_device&lt;/li&gt;&lt;/ul&gt;" style="text;strokeColor=none;fillColor=none;align=left;verticalAlign=middle;spacingLeft=4;spacingRight=4;overflow=hidden;points=[[0,0.5],[1,0.5]];portConstraint=eastwest;rotatable=0;whiteSpace=wrap;html=1;" parent="B11gTvaxnq1XmtoSN8UW-35" vertex="1">
          <mxGeometry y="50" width="250" height="30" as="geometry" />
        </mxCell>
        <mxCell id="B11gTvaxnq1XmtoSN8UW-38" value="fields" style="swimlane;fontStyle=0;childLayout=stackLayout;horizontal=1;startSize=20;horizontalStack=0;resizeParent=1;resizeParentMax=0;resizeLast=0;collapsible=1;marginBottom=0;whiteSpace=wrap;html=1;" parent="B11gTvaxnq1XmtoSN8UW-33" vertex="1">
          <mxGeometry y="90" width="250" height="50" as="geometry" />
        </mxCell>
        <mxCell id="B11gTvaxnq1XmtoSN8UW-39" value="&lt;ul style=&quot;border-color: var(--border-color);&quot;&gt;&lt;li style=&quot;border-color: var(--border-color);&quot;&gt;&lt;span style=&quot;background-color: rgb(126, 166, 224);&quot;&gt;device&lt;/span&gt;&lt;/li&gt;&lt;/ul&gt;" style="text;strokeColor=none;fillColor=none;align=left;verticalAlign=middle;spacingLeft=4;spacingRight=4;overflow=hidden;points=[[0,0.5],[1,0.5]];portConstraint=eastwest;rotatable=0;whiteSpace=wrap;html=1;" parent="B11gTvaxnq1XmtoSN8UW-38" vertex="1">
          <mxGeometry y="20" width="250" height="30" as="geometry" />
        </mxCell>
        <mxCell id="B11gTvaxnq1XmtoSN8UW-46" value="Items" style="swimlane;fontStyle=0;childLayout=stackLayout;horizontal=1;startSize=30;horizontalStack=0;resizeParent=1;resizeParentMax=0;resizeLast=0;collapsible=1;marginBottom=0;whiteSpace=wrap;html=1;" parent="B11gTvaxnq1XmtoSN8UW-33" vertex="1">
          <mxGeometry y="220" width="250" height="60" as="geometry" />
        </mxCell>
        <mxCell id="B11gTvaxnq1XmtoSN8UW-47" value="Наследники от AQ_param_item, для каждого типа данных свой" style="text;strokeColor=none;fillColor=none;align=left;verticalAlign=middle;spacingLeft=4;spacingRight=4;overflow=hidden;points=[[0,0.5],[1,0.5]];portConstraint=eastwest;rotatable=0;whiteSpace=wrap;html=1;" parent="B11gTvaxnq1XmtoSN8UW-46" vertex="1">
          <mxGeometry y="30" width="250" height="30" as="geometry" />
        </mxCell>
        <mxCell id="B11gTvaxnq1XmtoSN8UW-43" value="" style="endArrow=classic;html=1;rounded=0;entryX=-0.004;entryY=0.088;entryDx=0;entryDy=0;entryPerimeter=0;edgeStyle=orthogonalEdgeStyle;dashed=1;strokeWidth=2;" parent="1" target="B11gTvaxnq1XmtoSN8UW-33" edge="1">
          <mxGeometry width="50" height="50" relative="1" as="geometry">
            <mxPoint x="500" y="190" as="sourcePoint" />
            <mxPoint x="800" y="90" as="targetPoint" />
            <Array as="points">
              <mxPoint x="500" y="191" />
              <mxPoint x="610" y="191" />
              <mxPoint x="610" y="35" />
            </Array>
          </mxGeometry>
        </mxCell>
        <mxCell id="B11gTvaxnq1XmtoSN8UW-45" value="" style="endArrow=classic;html=1;rounded=0;exitX=0.745;exitY=-0.122;exitDx=0;exitDy=0;exitPerimeter=0;entryX=-0.009;entryY=0.026;entryDx=0;entryDy=0;entryPerimeter=0;edgeStyle=orthogonalEdgeStyle;dashed=1;strokeWidth=2;" parent="1" source="B11gTvaxnq1XmtoSN8UW-30" target="B11gTvaxnq1XmtoSN8UW-18" edge="1">
          <mxGeometry width="50" height="50" relative="1" as="geometry">
            <mxPoint x="340" y="170" as="sourcePoint" />
            <mxPoint x="390" y="120" as="targetPoint" />
          </mxGeometry>
        </mxCell>
        <mxCell id="B11gTvaxnq1XmtoSN8UW-50" value="AQ_ParamItem(QStandardItem)&lt;br&gt;&amp;nbsp;&lt;font style=&quot;font-size: 10px;&quot;&gt;&lt;i style=&quot;font-weight: normal;&quot;&gt;(owner -&amp;nbsp;&lt;/i&gt;AQ_TreeItemModel&lt;i style=&quot;font-weight: normal;&quot;&gt;)&lt;/i&gt;&lt;/font&gt;" style="swimlane;whiteSpace=wrap;html=1;startSize=40;fillColor=#d5e8d4;strokeColor=#82b366;" parent="1" vertex="1">
          <mxGeometry x="660" y="290" width="250" height="320" as="geometry" />
        </mxCell>
        <mxCell id="B11gTvaxnq1XmtoSN8UW-51" value="&lt;b&gt;-Parent - None&lt;/b&gt;" style="text;html=1;align=center;verticalAlign=middle;resizable=0;points=[];autosize=1;strokeColor=none;fillColor=none;" parent="B11gTvaxnq1XmtoSN8UW-50" vertex="1">
          <mxGeometry y="40" width="110" height="30" as="geometry" />
        </mxCell>
        <mxCell id="B11gTvaxnq1XmtoSN8UW-52" value="Methods" style="swimlane;fontStyle=0;childLayout=stackLayout;horizontal=1;startSize=20;horizontalStack=0;resizeParent=1;resizeParentMax=0;resizeLast=0;collapsible=1;marginBottom=0;whiteSpace=wrap;html=1;" parent="B11gTvaxnq1XmtoSN8UW-50" vertex="1">
          <mxGeometry y="150" width="250" height="170" as="geometry" />
        </mxCell>
        <mxCell id="B11gTvaxnq1XmtoSN8UW-53" value="&lt;ul&gt;&lt;li&gt;&lt;span style=&quot;background-color: initial;&quot;&gt;get_param_attributes&lt;/span&gt;&lt;br&gt;&lt;/li&gt;&lt;/ul&gt;" style="text;strokeColor=none;fillColor=none;align=left;verticalAlign=middle;spacingLeft=4;spacingRight=4;overflow=hidden;points=[[0,0.5],[1,0.5]];portConstraint=eastwest;rotatable=0;whiteSpace=wrap;html=1;" parent="B11gTvaxnq1XmtoSN8UW-52" vertex="1">
          <mxGeometry y="20" width="250" height="30" as="geometry" />
        </mxCell>
        <mxCell id="BPRDDZzdLg85-zejRSAX-5" value="&lt;ul&gt;&lt;li&gt;&lt;span style=&quot;background-color: initial;&quot;&gt;get_editor&lt;/span&gt;&lt;br&gt;&lt;/li&gt;&lt;/ul&gt;" style="text;strokeColor=none;fillColor=none;align=left;verticalAlign=middle;spacingLeft=4;spacingRight=4;overflow=hidden;points=[[0,0.5],[1,0.5]];portConstraint=eastwest;rotatable=0;whiteSpace=wrap;html=1;" parent="B11gTvaxnq1XmtoSN8UW-52" vertex="1">
          <mxGeometry y="50" width="250" height="30" as="geometry" />
        </mxCell>
        <mxCell id="zfRY00krcIHAmy4edK_9-5" value="&lt;ul style=&quot;border-color: var(--border-color);&quot;&gt;&lt;li style=&quot;border-color: var(--border-color);&quot;&gt;set_last_value_from_device&lt;div style=&quot;font-family: &amp;quot;JetBrains Mono&amp;quot;, monospace;&quot;&gt;&lt;/div&gt;&lt;/li&gt;&lt;/ul&gt;" style="text;strokeColor=none;fillColor=none;align=left;verticalAlign=middle;spacingLeft=4;spacingRight=4;overflow=hidden;points=[[0,0.5],[1,0.5]];portConstraint=eastwest;rotatable=0;whiteSpace=wrap;html=1;" parent="B11gTvaxnq1XmtoSN8UW-52" vertex="1">
          <mxGeometry y="80" width="250" height="30" as="geometry" />
        </mxCell>
        <mxCell id="zfRY00krcIHAmy4edK_9-7" value="&lt;ul&gt;&lt;li&gt;&lt;span style=&quot;background-color: initial;&quot;&gt;synchro_last_value_and_value&lt;/span&gt;&lt;br&gt;&lt;/li&gt;&lt;/ul&gt;" style="text;strokeColor=none;fillColor=none;align=left;verticalAlign=middle;spacingLeft=4;spacingRight=4;overflow=hidden;points=[[0,0.5],[1,0.5]];portConstraint=eastwest;rotatable=0;whiteSpace=wrap;html=1;" parent="B11gTvaxnq1XmtoSN8UW-52" vertex="1">
          <mxGeometry y="110" width="250" height="30" as="geometry" />
        </mxCell>
        <mxCell id="zfRY00krcIHAmy4edK_9-8" value="&lt;ul&gt;&lt;li&gt;&lt;span style=&quot;background-color: initial;&quot;&gt;get_status&lt;/span&gt;&lt;br&gt;&lt;/li&gt;&lt;/ul&gt;" style="text;strokeColor=none;fillColor=none;align=left;verticalAlign=middle;spacingLeft=4;spacingRight=4;overflow=hidden;points=[[0,0.5],[1,0.5]];portConstraint=eastwest;rotatable=0;whiteSpace=wrap;html=1;" parent="B11gTvaxnq1XmtoSN8UW-52" vertex="1">
          <mxGeometry y="140" width="250" height="30" as="geometry" />
        </mxCell>
        <mxCell id="B11gTvaxnq1XmtoSN8UW-55" value="fields" style="swimlane;fontStyle=0;childLayout=stackLayout;horizontal=1;startSize=20;horizontalStack=0;resizeParent=1;resizeParentMax=0;resizeLast=0;collapsible=1;marginBottom=0;whiteSpace=wrap;html=1;" parent="B11gTvaxnq1XmtoSN8UW-50" vertex="1">
          <mxGeometry y="70" width="250" height="80" as="geometry" />
        </mxCell>
        <mxCell id="B11gTvaxnq1XmtoSN8UW-56" value="&lt;ul style=&quot;border-color: var(--border-color);&quot;&gt;&lt;li style=&quot;border-color: var(--border-color);&quot;&gt;value&lt;/li&gt;&lt;/ul&gt;" style="text;strokeColor=none;fillColor=none;align=left;verticalAlign=middle;spacingLeft=4;spacingRight=4;overflow=hidden;points=[[0,0.5],[1,0.5]];portConstraint=eastwest;rotatable=0;whiteSpace=wrap;html=1;" parent="B11gTvaxnq1XmtoSN8UW-55" vertex="1">
          <mxGeometry y="20" width="250" height="30" as="geometry" />
        </mxCell>
        <mxCell id="zfRY00krcIHAmy4edK_9-6" value="&lt;ul style=&quot;border-color: var(--border-color);&quot;&gt;&lt;li style=&quot;border-color: var(--border-color);&quot;&gt;last_value_from_device&lt;/li&gt;&lt;/ul&gt;" style="text;strokeColor=none;fillColor=none;align=left;verticalAlign=middle;spacingLeft=4;spacingRight=4;overflow=hidden;points=[[0,0.5],[1,0.5]];portConstraint=eastwest;rotatable=0;whiteSpace=wrap;html=1;" parent="B11gTvaxnq1XmtoSN8UW-55" vertex="1">
          <mxGeometry y="50" width="250" height="30" as="geometry" />
        </mxCell>
        <mxCell id="B11gTvaxnq1XmtoSN8UW-62" value="AQ_TreeViewManager(QStackedWidget):&amp;nbsp;&lt;br&gt;&lt;font style=&quot;font-size: 10px;&quot;&gt;&lt;i style=&quot;font-weight: normal;&quot;&gt;(owner - MainFieldFrame)&lt;/i&gt;&lt;/font&gt;" style="swimlane;whiteSpace=wrap;html=1;startSize=40;fillColor=#ffe6cc;strokeColor=#d79b00;" parent="1" vertex="1">
          <mxGeometry x="1050" y="-440" width="250" height="390" as="geometry" />
        </mxCell>
        <mxCell id="B11gTvaxnq1XmtoSN8UW-63" value="&lt;b&gt;-Parent -&amp;nbsp;&lt;/b&gt;&lt;i style=&quot;border-color: var(--border-color); font-size: 10px;&quot;&gt;MainFieldFrame&lt;/i&gt;" style="text;html=1;align=center;verticalAlign=middle;resizable=0;points=[];autosize=1;strokeColor=none;fillColor=none;" parent="B11gTvaxnq1XmtoSN8UW-62" vertex="1">
          <mxGeometry y="40" width="150" height="30" as="geometry" />
        </mxCell>
        <mxCell id="B11gTvaxnq1XmtoSN8UW-64" value="Methods" style="swimlane;fontStyle=0;childLayout=stackLayout;horizontal=1;startSize=20;horizontalStack=0;resizeParent=1;resizeParentMax=0;resizeLast=0;collapsible=1;marginBottom=0;whiteSpace=wrap;html=1;" parent="B11gTvaxnq1XmtoSN8UW-62" vertex="1">
          <mxGeometry y="200" width="250" height="190" as="geometry" />
        </mxCell>
        <mxCell id="B11gTvaxnq1XmtoSN8UW-65" value="&lt;ul&gt;&lt;li&gt;add_new_devices_trees (*EventM)&lt;br&gt;&lt;/li&gt;&lt;/ul&gt;" style="text;strokeColor=none;fillColor=none;align=left;verticalAlign=middle;spacingLeft=4;spacingRight=4;overflow=hidden;points=[[0,0.5],[1,0.5]];portConstraint=eastwest;rotatable=0;whiteSpace=wrap;html=1;" parent="B11gTvaxnq1XmtoSN8UW-64" vertex="1">
          <mxGeometry y="20" width="250" height="30" as="geometry" />
        </mxCell>
        <mxCell id="B11gTvaxnq1XmtoSN8UW-66" value="&lt;ul&gt;&lt;li&gt;set_active_device_tree (*EventM)&lt;/li&gt;&lt;/ul&gt;" style="text;strokeColor=none;fillColor=none;align=left;verticalAlign=middle;spacingLeft=4;spacingRight=4;overflow=hidden;points=[[0,0.5],[1,0.5]];portConstraint=eastwest;rotatable=0;whiteSpace=wrap;html=1;" parent="B11gTvaxnq1XmtoSN8UW-64" vertex="1">
          <mxGeometry y="50" width="250" height="30" as="geometry" />
        </mxCell>
        <mxCell id="BPRDDZzdLg85-zejRSAX-9" value="&lt;ul&gt;&lt;li&gt;update_device_values (*EventM)&lt;/li&gt;&lt;/ul&gt;" style="text;strokeColor=none;fillColor=none;align=left;verticalAlign=middle;spacingLeft=4;spacingRight=4;overflow=hidden;points=[[0,0.5],[1,0.5]];portConstraint=eastwest;rotatable=0;whiteSpace=wrap;html=1;" parent="B11gTvaxnq1XmtoSN8UW-64" vertex="1">
          <mxGeometry y="80" width="250" height="30" as="geometry" />
        </mxCell>
        <mxCell id="zfRY00krcIHAmy4edK_9-14" value="&lt;ul&gt;&lt;li&gt;delete_device_view (*EventM)&lt;/li&gt;&lt;/ul&gt;" style="text;strokeColor=none;fillColor=none;align=left;verticalAlign=middle;spacingLeft=4;spacingRight=4;overflow=hidden;points=[[0,0.5],[1,0.5]];portConstraint=eastwest;rotatable=0;whiteSpace=wrap;html=1;" parent="B11gTvaxnq1XmtoSN8UW-64" vertex="1">
          <mxGeometry y="110" width="250" height="30" as="geometry" />
        </mxCell>
        <mxCell id="zfRY00krcIHAmy4edK_9-15" value="&lt;ul&gt;&lt;li&gt;update_device_param_statuses (*EventM)&lt;/li&gt;&lt;/ul&gt;" style="text;strokeColor=none;fillColor=none;align=left;verticalAlign=middle;spacingLeft=4;spacingRight=4;overflow=hidden;points=[[0,0.5],[1,0.5]];portConstraint=eastwest;rotatable=0;whiteSpace=wrap;html=1;" parent="B11gTvaxnq1XmtoSN8UW-64" vertex="1">
          <mxGeometry y="140" width="250" height="50" as="geometry" />
        </mxCell>
        <mxCell id="B11gTvaxnq1XmtoSN8UW-67" value="fields" style="swimlane;fontStyle=0;childLayout=stackLayout;horizontal=1;startSize=20;horizontalStack=0;resizeParent=1;resizeParentMax=0;resizeLast=0;collapsible=1;marginBottom=0;whiteSpace=wrap;html=1;" parent="B11gTvaxnq1XmtoSN8UW-62" vertex="1">
          <mxGeometry y="70" width="250" height="130" as="geometry" />
        </mxCell>
        <mxCell id="B11gTvaxnq1XmtoSN8UW-68" value="&lt;ul style=&quot;border-color: var(--border-color);&quot;&gt;&lt;li style=&quot;border-color: var(--border-color);&quot;&gt;&lt;span style=&quot;background-color: rgb(241, 156, 153);&quot;&gt;*event_manager&lt;/span&gt;&lt;/li&gt;&lt;/ul&gt;" style="text;strokeColor=none;fillColor=none;align=left;verticalAlign=middle;spacingLeft=4;spacingRight=4;overflow=hidden;points=[[0,0.5],[1,0.5]];portConstraint=eastwest;rotatable=0;whiteSpace=wrap;html=1;" parent="B11gTvaxnq1XmtoSN8UW-67" vertex="1">
          <mxGeometry y="20" width="250" height="30" as="geometry" />
        </mxCell>
        <mxCell id="B11gTvaxnq1XmtoSN8UW-69" value="&lt;ul style=&quot;border-color: var(--border-color);&quot;&gt;&lt;li style=&quot;border-color: var(--border-color);&quot;&gt;tree_view (AQ_TreeView)&lt;/li&gt;&lt;/ul&gt;" style="text;strokeColor=none;fillColor=none;align=left;verticalAlign=middle;spacingLeft=4;spacingRight=4;overflow=hidden;points=[[0,0.5],[1,0.5]];portConstraint=eastwest;rotatable=0;whiteSpace=wrap;html=1;" parent="B11gTvaxnq1XmtoSN8UW-67" vertex="1">
          <mxGeometry y="50" width="250" height="30" as="geometry" />
        </mxCell>
        <mxCell id="B11gTvaxnq1XmtoSN8UW-70" value="&lt;ul style=&quot;border-color: var(--border-color);&quot;&gt;&lt;li style=&quot;border-color: var(--border-color);&quot;&gt;devices_view_trees (AQ_TreeViewItemModel)&lt;/li&gt;&lt;/ul&gt;" style="text;strokeColor=none;fillColor=none;align=left;verticalAlign=middle;spacingLeft=4;spacingRight=4;overflow=hidden;points=[[0,0.5],[1,0.5]];portConstraint=eastwest;rotatable=0;whiteSpace=wrap;html=1;" parent="B11gTvaxnq1XmtoSN8UW-67" vertex="1">
          <mxGeometry y="80" width="250" height="50" as="geometry" />
        </mxCell>
        <mxCell id="QRJC5hoEvioDWSZd4Zeh-1" value="AQ_TreeViewItemModel&lt;br&gt;(QStandardItemModel)&lt;br&gt;&amp;nbsp;&lt;font style=&quot;font-size: 10px;&quot;&gt;&lt;i style=&quot;font-weight: normal;&quot;&gt;(owner -&amp;nbsp;&lt;/i&gt;&lt;span style=&quot;font-weight: normal;&quot;&gt;&lt;i&gt;AQ_treeView_manager&lt;/i&gt;&lt;/span&gt;&lt;i style=&quot;font-weight: normal;&quot;&gt;)&lt;/i&gt;&lt;/font&gt;" style="swimlane;whiteSpace=wrap;html=1;startSize=60;fillColor=#ffe6cc;strokeColor=#d79b00;" parent="1" vertex="1">
          <mxGeometry x="1040" y="10" width="250" height="430" as="geometry" />
        </mxCell>
        <mxCell id="QRJC5hoEvioDWSZd4Zeh-2" value="&lt;b&gt;-Parent - None&lt;/b&gt;" style="text;html=1;align=center;verticalAlign=middle;resizable=0;points=[];autosize=1;strokeColor=none;fillColor=none;" parent="QRJC5hoEvioDWSZd4Zeh-1" vertex="1">
          <mxGeometry x="-5" y="60" width="110" height="30" as="geometry" />
        </mxCell>
        <mxCell id="QRJC5hoEvioDWSZd4Zeh-3" value="Methods" style="swimlane;fontStyle=0;childLayout=stackLayout;horizontal=1;startSize=20;horizontalStack=0;resizeParent=1;resizeParentMax=0;resizeLast=0;collapsible=1;marginBottom=0;whiteSpace=wrap;html=1;" parent="QRJC5hoEvioDWSZd4Zeh-1" vertex="1">
          <mxGeometry y="170" width="250" height="200" as="geometry" />
        </mxCell>
        <mxCell id="QRJC5hoEvioDWSZd4Zeh-4" value="&lt;ul&gt;&lt;li&gt;update_parameter_value&lt;br&gt;&lt;/li&gt;&lt;/ul&gt;" style="text;strokeColor=none;fillColor=none;align=left;verticalAlign=middle;spacingLeft=4;spacingRight=4;overflow=hidden;points=[[0,0.5],[1,0.5]];portConstraint=eastwest;rotatable=0;whiteSpace=wrap;html=1;" parent="QRJC5hoEvioDWSZd4Zeh-3" vertex="1">
          <mxGeometry y="20" width="250" height="30" as="geometry" />
        </mxCell>
        <mxCell id="_51MCv_2TeiqCNKURIOB-1" value="&lt;ul&gt;&lt;li&gt;update_all_params_value&lt;br&gt;&lt;/li&gt;&lt;/ul&gt;" style="text;strokeColor=none;fillColor=none;align=left;verticalAlign=middle;spacingLeft=4;spacingRight=4;overflow=hidden;points=[[0,0.5],[1,0.5]];portConstraint=eastwest;rotatable=0;whiteSpace=wrap;html=1;" parent="QRJC5hoEvioDWSZd4Zeh-3" vertex="1">
          <mxGeometry y="50" width="250" height="30" as="geometry" />
        </mxCell>
        <mxCell id="zfRY00krcIHAmy4edK_9-9" value="&lt;ul&gt;&lt;li&gt;update_parameter_status&lt;br&gt;&lt;/li&gt;&lt;/ul&gt;" style="text;strokeColor=none;fillColor=none;align=left;verticalAlign=middle;spacingLeft=4;spacingRight=4;overflow=hidden;points=[[0,0.5],[1,0.5]];portConstraint=eastwest;rotatable=0;whiteSpace=wrap;html=1;" parent="QRJC5hoEvioDWSZd4Zeh-3" vertex="1">
          <mxGeometry y="80" width="250" height="30" as="geometry" />
        </mxCell>
        <mxCell id="zfRY00krcIHAmy4edK_9-10" value="&lt;ul&gt;&lt;li style=&quot;border-color: var(--border-color);&quot;&gt;update_all_params_status&lt;/li&gt;&lt;/ul&gt;" style="text;strokeColor=none;fillColor=none;align=left;verticalAlign=middle;spacingLeft=4;spacingRight=4;overflow=hidden;points=[[0,0.5],[1,0.5]];portConstraint=eastwest;rotatable=0;whiteSpace=wrap;html=1;" parent="QRJC5hoEvioDWSZd4Zeh-3" vertex="1">
          <mxGeometry y="110" width="250" height="30" as="geometry" />
        </mxCell>
        <mxCell id="_51MCv_2TeiqCNKURIOB-3" value="&lt;ul&gt;&lt;li&gt;read_parameter(call device)&lt;br&gt;&lt;/li&gt;&lt;/ul&gt;" style="text;strokeColor=none;fillColor=none;align=left;verticalAlign=middle;spacingLeft=4;spacingRight=4;overflow=hidden;points=[[0,0.5],[1,0.5]];portConstraint=eastwest;rotatable=0;whiteSpace=wrap;html=1;" parent="QRJC5hoEvioDWSZd4Zeh-3" vertex="1">
          <mxGeometry y="140" width="250" height="30" as="geometry" />
        </mxCell>
        <mxCell id="_51MCv_2TeiqCNKURIOB-2" value="&lt;ul&gt;&lt;li&gt;write_parameter(call device)&lt;/li&gt;&lt;/ul&gt;" style="text;strokeColor=none;fillColor=none;align=left;verticalAlign=middle;spacingLeft=4;spacingRight=4;overflow=hidden;points=[[0,0.5],[1,0.5]];portConstraint=eastwest;rotatable=0;whiteSpace=wrap;html=1;" parent="QRJC5hoEvioDWSZd4Zeh-3" vertex="1">
          <mxGeometry y="170" width="250" height="30" as="geometry" />
        </mxCell>
        <mxCell id="QRJC5hoEvioDWSZd4Zeh-6" value="fields" style="swimlane;fontStyle=0;childLayout=stackLayout;horizontal=1;startSize=20;horizontalStack=0;resizeParent=1;resizeParentMax=0;resizeLast=0;collapsible=1;marginBottom=0;whiteSpace=wrap;html=1;" parent="QRJC5hoEvioDWSZd4Zeh-1" vertex="1">
          <mxGeometry y="90" width="250" height="80" as="geometry" />
        </mxCell>
        <mxCell id="QRJC5hoEvioDWSZd4Zeh-16" value="&lt;ul style=&quot;border-color: var(--border-color);&quot;&gt;&lt;li style=&quot;border-color: var(--border-color);&quot;&gt;&lt;span style=&quot;background-color: rgb(241, 156, 153);&quot;&gt;event_manager&lt;/span&gt;&lt;/li&gt;&lt;/ul&gt;" style="text;strokeColor=none;fillColor=none;align=left;verticalAlign=middle;spacingLeft=4;spacingRight=4;overflow=hidden;points=[[0,0.5],[1,0.5]];portConstraint=eastwest;rotatable=0;whiteSpace=wrap;html=1;" parent="QRJC5hoEvioDWSZd4Zeh-6" vertex="1">
          <mxGeometry y="20" width="250" height="30" as="geometry" />
        </mxCell>
        <mxCell id="QRJC5hoEvioDWSZd4Zeh-7" value="&lt;ul style=&quot;border-color: var(--border-color);&quot;&gt;&lt;li style=&quot;border-color: var(--border-color);&quot;&gt;&lt;span style=&quot;background-color: rgb(126, 166, 224);&quot;&gt;device&lt;/span&gt;&lt;/li&gt;&lt;/ul&gt;" style="text;strokeColor=none;fillColor=none;align=left;verticalAlign=middle;spacingLeft=4;spacingRight=4;overflow=hidden;points=[[0,0.5],[1,0.5]];portConstraint=eastwest;rotatable=0;whiteSpace=wrap;html=1;" parent="QRJC5hoEvioDWSZd4Zeh-6" vertex="1">
          <mxGeometry y="50" width="250" height="30" as="geometry" />
        </mxCell>
        <mxCell id="QRJC5hoEvioDWSZd4Zeh-8" value="Items" style="swimlane;fontStyle=0;childLayout=stackLayout;horizontal=1;startSize=30;horizontalStack=0;resizeParent=1;resizeParentMax=0;resizeLast=0;collapsible=1;marginBottom=0;whiteSpace=wrap;html=1;" parent="QRJC5hoEvioDWSZd4Zeh-1" vertex="1">
          <mxGeometry y="370" width="250" height="60" as="geometry" />
        </mxCell>
        <mxCell id="QRJC5hoEvioDWSZd4Zeh-9" value="AQ_param_manager_item" style="text;strokeColor=none;fillColor=none;align=left;verticalAlign=middle;spacingLeft=4;spacingRight=4;overflow=hidden;points=[[0,0.5],[1,0.5]];portConstraint=eastwest;rotatable=0;whiteSpace=wrap;html=1;" parent="QRJC5hoEvioDWSZd4Zeh-8" vertex="1">
          <mxGeometry y="30" width="250" height="30" as="geometry" />
        </mxCell>
        <mxCell id="QRJC5hoEvioDWSZd4Zeh-10" value="" style="endArrow=classic;html=1;rounded=0;exitX=0.08;exitY=0.4;exitDx=0;exitDy=0;exitPerimeter=0;edgeStyle=orthogonalEdgeStyle;dashed=1;strokeWidth=2;entryX=-0.012;entryY=0.107;entryDx=0;entryDy=0;entryPerimeter=0;" parent="1" source="B11gTvaxnq1XmtoSN8UW-70" target="QRJC5hoEvioDWSZd4Zeh-1" edge="1">
          <mxGeometry width="50" height="50" relative="1" as="geometry">
            <mxPoint x="1010" y="-180" as="sourcePoint" />
            <mxPoint x="1000" y="70" as="targetPoint" />
            <Array as="points">
              <mxPoint x="990" y="-270" />
              <mxPoint x="990" y="56" />
            </Array>
          </mxGeometry>
        </mxCell>
        <mxCell id="QRJC5hoEvioDWSZd4Zeh-11" value="AQ_ParamManagerItem(QStandardItem)&lt;br&gt;&amp;nbsp;&lt;font style=&quot;font-size: 10px;&quot;&gt;&lt;i style=&quot;font-weight: normal;&quot;&gt;(owner -&amp;nbsp;&lt;/i&gt;AQ_TreeViewItemModel&lt;i style=&quot;font-weight: normal;&quot;&gt;)&lt;/i&gt;&lt;/font&gt;" style="swimlane;whiteSpace=wrap;html=1;startSize=60;fillColor=#ffe6cc;strokeColor=#d79b00;" parent="1" vertex="1">
          <mxGeometry x="1040" y="440" width="250" height="460" as="geometry" />
        </mxCell>
        <mxCell id="QRJC5hoEvioDWSZd4Zeh-12" value="&lt;b&gt;-Parent - None&lt;/b&gt;" style="text;html=1;align=center;verticalAlign=middle;resizable=0;points=[];autosize=1;strokeColor=none;fillColor=none;" parent="QRJC5hoEvioDWSZd4Zeh-11" vertex="1">
          <mxGeometry x="-10" y="60" width="110" height="30" as="geometry" />
        </mxCell>
        <mxCell id="QRJC5hoEvioDWSZd4Zeh-13" value="Methods" style="swimlane;fontStyle=0;childLayout=stackLayout;horizontal=1;startSize=20;horizontalStack=0;resizeParent=1;resizeParentMax=0;resizeLast=0;collapsible=1;marginBottom=0;whiteSpace=wrap;html=1;" parent="QRJC5hoEvioDWSZd4Zeh-11" vertex="1">
          <mxGeometry y="200" width="250" height="260" as="geometry" />
        </mxCell>
        <mxCell id="QRJC5hoEvioDWSZd4Zeh-18" value="&lt;ul&gt;&lt;li&gt;&lt;span style=&quot;background-color: initial;&quot;&gt;get_param_attributes&lt;/span&gt;&lt;br&gt;&lt;/li&gt;&lt;/ul&gt;" style="text;strokeColor=none;fillColor=none;align=left;verticalAlign=middle;spacingLeft=4;spacingRight=4;overflow=hidden;points=[[0,0.5],[1,0.5]];portConstraint=eastwest;rotatable=0;whiteSpace=wrap;html=1;" parent="QRJC5hoEvioDWSZd4Zeh-13" vertex="1">
          <mxGeometry y="20" width="250" height="30" as="geometry" />
        </mxCell>
        <mxCell id="QRJC5hoEvioDWSZd4Zeh-14" value="&lt;ul&gt;&lt;li&gt;&lt;span style=&quot;background-color: initial;&quot;&gt;get_sourse_item&lt;/span&gt;&lt;br&gt;&lt;/li&gt;&lt;/ul&gt;" style="text;strokeColor=none;fillColor=none;align=left;verticalAlign=middle;spacingLeft=4;spacingRight=4;overflow=hidden;points=[[0,0.5],[1,0.5]];portConstraint=eastwest;rotatable=0;whiteSpace=wrap;html=1;" parent="QRJC5hoEvioDWSZd4Zeh-13" vertex="1">
          <mxGeometry y="50" width="250" height="30" as="geometry" />
        </mxCell>
        <mxCell id="QRJC5hoEvioDWSZd4Zeh-36" value="&lt;ul&gt;&lt;li&gt;&lt;span style=&quot;background-color: initial;&quot;&gt;get_value&lt;/span&gt;&lt;br&gt;&lt;/li&gt;&lt;/ul&gt;" style="text;strokeColor=none;fillColor=none;align=left;verticalAlign=middle;spacingLeft=4;spacingRight=4;overflow=hidden;points=[[0,0.5],[1,0.5]];portConstraint=eastwest;rotatable=0;whiteSpace=wrap;html=1;" parent="QRJC5hoEvioDWSZd4Zeh-13" vertex="1">
          <mxGeometry y="80" width="250" height="30" as="geometry" />
        </mxCell>
        <mxCell id="BPRDDZzdLg85-zejRSAX-6" value="&lt;ul&gt;&lt;li&gt;&lt;span style=&quot;background-color: initial;&quot;&gt;show_new_value&lt;/span&gt;&lt;br&gt;&lt;/li&gt;&lt;/ul&gt;" style="text;strokeColor=none;fillColor=none;align=left;verticalAlign=middle;spacingLeft=4;spacingRight=4;overflow=hidden;points=[[0,0.5],[1,0.5]];portConstraint=eastwest;rotatable=0;whiteSpace=wrap;html=1;" parent="QRJC5hoEvioDWSZd4Zeh-13" vertex="1">
          <mxGeometry y="110" width="250" height="30" as="geometry" />
        </mxCell>
        <mxCell id="BPRDDZzdLg85-zejRSAX-7" value="&lt;ul&gt;&lt;li&gt;save_editor_object&lt;br&gt;&lt;/li&gt;&lt;/ul&gt;" style="text;strokeColor=none;fillColor=none;align=left;verticalAlign=middle;spacingLeft=4;spacingRight=4;overflow=hidden;points=[[0,0.5],[1,0.5]];portConstraint=eastwest;rotatable=0;whiteSpace=wrap;html=1;" parent="QRJC5hoEvioDWSZd4Zeh-13" vertex="1">
          <mxGeometry y="140" width="250" height="30" as="geometry" />
        </mxCell>
        <mxCell id="BPRDDZzdLg85-zejRSAX-8" value="&lt;ul&gt;&lt;li&gt;get_editor&lt;br&gt;&lt;/li&gt;&lt;/ul&gt;" style="text;strokeColor=none;fillColor=none;align=left;verticalAlign=middle;spacingLeft=4;spacingRight=4;overflow=hidden;points=[[0,0.5],[1,0.5]];portConstraint=eastwest;rotatable=0;whiteSpace=wrap;html=1;" parent="QRJC5hoEvioDWSZd4Zeh-13" vertex="1">
          <mxGeometry y="170" width="250" height="30" as="geometry" />
        </mxCell>
        <mxCell id="zfRY00krcIHAmy4edK_9-12" value="&lt;ul&gt;&lt;li&gt;save_new_value&lt;br&gt;&lt;/li&gt;&lt;/ul&gt;" style="text;strokeColor=none;fillColor=none;align=left;verticalAlign=middle;spacingLeft=4;spacingRight=4;overflow=hidden;points=[[0,0.5],[1,0.5]];portConstraint=eastwest;rotatable=0;whiteSpace=wrap;html=1;" parent="QRJC5hoEvioDWSZd4Zeh-13" vertex="1">
          <mxGeometry y="200" width="250" height="30" as="geometry" />
        </mxCell>
        <mxCell id="zfRY00krcIHAmy4edK_9-13" value="&lt;ul&gt;&lt;li&gt;update_status&lt;br&gt;&lt;/li&gt;&lt;/ul&gt;" style="text;strokeColor=none;fillColor=none;align=left;verticalAlign=middle;spacingLeft=4;spacingRight=4;overflow=hidden;points=[[0,0.5],[1,0.5]];portConstraint=eastwest;rotatable=0;whiteSpace=wrap;html=1;" parent="QRJC5hoEvioDWSZd4Zeh-13" vertex="1">
          <mxGeometry y="230" width="250" height="30" as="geometry" />
        </mxCell>
        <mxCell id="QRJC5hoEvioDWSZd4Zeh-15" value="fields" style="swimlane;fontStyle=0;childLayout=stackLayout;horizontal=1;startSize=20;horizontalStack=0;resizeParent=1;resizeParentMax=0;resizeLast=0;collapsible=1;marginBottom=0;whiteSpace=wrap;html=1;" parent="QRJC5hoEvioDWSZd4Zeh-11" vertex="1">
          <mxGeometry y="90" width="250" height="110" as="geometry" />
        </mxCell>
        <mxCell id="QRJC5hoEvioDWSZd4Zeh-17" value="&lt;ul style=&quot;border-color: var(--border-color);&quot;&gt;&lt;li style=&quot;border-color: var(--border-color);&quot;&gt;*sourse_item(AQ_param_item)&lt;/li&gt;&lt;/ul&gt;" style="text;strokeColor=none;fillColor=none;align=left;verticalAlign=middle;spacingLeft=4;spacingRight=4;overflow=hidden;points=[[0,0.5],[1,0.5]];portConstraint=eastwest;rotatable=0;whiteSpace=wrap;html=1;" parent="QRJC5hoEvioDWSZd4Zeh-15" vertex="1">
          <mxGeometry y="20" width="250" height="30" as="geometry" />
        </mxCell>
        <mxCell id="BPRDDZzdLg85-zejRSAX-26" value="&lt;ul style=&quot;border-color: var(--border-color);&quot;&gt;&lt;li style=&quot;border-color: var(--border-color);&quot;&gt;*editor_object(&quot;Delegate Editor&quot;)&lt;/li&gt;&lt;/ul&gt;" style="text;strokeColor=none;fillColor=none;align=left;verticalAlign=middle;spacingLeft=4;spacingRight=4;overflow=hidden;points=[[0,0.5],[1,0.5]];portConstraint=eastwest;rotatable=0;whiteSpace=wrap;html=1;" parent="QRJC5hoEvioDWSZd4Zeh-15" vertex="1">
          <mxGeometry y="50" width="250" height="30" as="geometry" />
        </mxCell>
        <mxCell id="zfRY00krcIHAmy4edK_9-11" value="&lt;ul style=&quot;border-color: var(--border-color);&quot;&gt;&lt;li style=&quot;border-color: var(--border-color);&quot;&gt;param_status&lt;/li&gt;&lt;/ul&gt;" style="text;strokeColor=none;fillColor=none;align=left;verticalAlign=middle;spacingLeft=4;spacingRight=4;overflow=hidden;points=[[0,0.5],[1,0.5]];portConstraint=eastwest;rotatable=0;whiteSpace=wrap;html=1;" parent="QRJC5hoEvioDWSZd4Zeh-15" vertex="1">
          <mxGeometry y="80" width="250" height="30" as="geometry" />
        </mxCell>
        <mxCell id="QRJC5hoEvioDWSZd4Zeh-20" value="" style="endArrow=classic;html=1;rounded=0;exitX=0.08;exitY=0.667;exitDx=0;exitDy=0;exitPerimeter=0;entryX=0.997;entryY=0.104;entryDx=0;entryDy=0;entryPerimeter=0;edgeStyle=orthogonalEdgeStyle;strokeWidth=3;" parent="1" source="QRJC5hoEvioDWSZd4Zeh-17" target="B11gTvaxnq1XmtoSN8UW-50" edge="1">
          <mxGeometry width="50" height="50" relative="1" as="geometry">
            <mxPoint x="1030" y="790" as="sourcePoint" />
            <mxPoint x="1070" y="630" as="targetPoint" />
            <Array as="points">
              <mxPoint x="960" y="510" />
              <mxPoint x="960" y="323" />
              <mxPoint x="915" y="323" />
            </Array>
          </mxGeometry>
        </mxCell>
        <mxCell id="QRJC5hoEvioDWSZd4Zeh-22" value="AQ_TreeView(QTreeView)&lt;br&gt;&amp;nbsp;&lt;font style=&quot;&quot;&gt;&lt;i style=&quot;&quot;&gt;&lt;span style=&quot;font-weight: normal;&quot;&gt;(owner -&lt;/span&gt; &lt;span style=&quot;font-size: 10px; font-weight: 400;&quot;&gt;AQ_treeView_frame&lt;/span&gt;&lt;span style=&quot;font-size: 10px; font-weight: normal;&quot;&gt;)&lt;/span&gt;&lt;/i&gt;&lt;/font&gt;" style="swimlane;whiteSpace=wrap;html=1;startSize=60;fillColor=#e1d5e7;strokeColor=#9673a6;" parent="1" vertex="1">
          <mxGeometry x="1050" y="-700" width="250" height="240" as="geometry" />
        </mxCell>
        <mxCell id="QRJC5hoEvioDWSZd4Zeh-23" value="&lt;b&gt;-Parent -&amp;nbsp;AQ_treeView_frame&lt;/b&gt;" style="text;html=1;align=center;verticalAlign=middle;resizable=0;points=[];autosize=1;strokeColor=none;fillColor=none;" parent="QRJC5hoEvioDWSZd4Zeh-22" vertex="1">
          <mxGeometry y="60" width="190" height="30" as="geometry" />
        </mxCell>
        <mxCell id="QRJC5hoEvioDWSZd4Zeh-24" value="Methods" style="swimlane;fontStyle=0;childLayout=stackLayout;horizontal=1;startSize=20;horizontalStack=0;resizeParent=1;resizeParentMax=0;resizeLast=0;collapsible=1;marginBottom=0;whiteSpace=wrap;html=1;" parent="QRJC5hoEvioDWSZd4Zeh-22" vertex="1">
          <mxGeometry y="140" width="250" height="50" as="geometry" />
        </mxCell>
        <mxCell id="QRJC5hoEvioDWSZd4Zeh-25" value="&lt;ul&gt;&lt;li&gt;&lt;br&gt;&lt;/li&gt;&lt;/ul&gt;" style="text;strokeColor=none;fillColor=none;align=left;verticalAlign=middle;spacingLeft=4;spacingRight=4;overflow=hidden;points=[[0,0.5],[1,0.5]];portConstraint=eastwest;rotatable=0;whiteSpace=wrap;html=1;" parent="QRJC5hoEvioDWSZd4Zeh-24" vertex="1">
          <mxGeometry y="20" width="250" height="30" as="geometry" />
        </mxCell>
        <mxCell id="QRJC5hoEvioDWSZd4Zeh-27" value="fields" style="swimlane;fontStyle=0;childLayout=stackLayout;horizontal=1;startSize=20;horizontalStack=0;resizeParent=1;resizeParentMax=0;resizeLast=0;collapsible=1;marginBottom=0;whiteSpace=wrap;html=1;" parent="QRJC5hoEvioDWSZd4Zeh-22" vertex="1">
          <mxGeometry y="90" width="250" height="50" as="geometry" />
        </mxCell>
        <mxCell id="QRJC5hoEvioDWSZd4Zeh-28" value="&lt;ul style=&quot;border-color: var(--border-color);&quot;&gt;&lt;li style=&quot;border-color: var(--border-color);&quot;&gt;&lt;br&gt;&lt;/li&gt;&lt;/ul&gt;" style="text;strokeColor=none;fillColor=none;align=left;verticalAlign=middle;spacingLeft=4;spacingRight=4;overflow=hidden;points=[[0,0.5],[1,0.5]];portConstraint=eastwest;rotatable=0;whiteSpace=wrap;html=1;" parent="QRJC5hoEvioDWSZd4Zeh-27" vertex="1">
          <mxGeometry y="20" width="250" height="30" as="geometry" />
        </mxCell>
        <mxCell id="QRJC5hoEvioDWSZd4Zeh-33" value="Model" style="swimlane;fontStyle=0;childLayout=stackLayout;horizontal=1;startSize=20;horizontalStack=0;resizeParent=1;resizeParentMax=0;resizeLast=0;collapsible=1;marginBottom=0;whiteSpace=wrap;html=1;" parent="QRJC5hoEvioDWSZd4Zeh-22" vertex="1">
          <mxGeometry y="190" width="250" height="50" as="geometry" />
        </mxCell>
        <mxCell id="QRJC5hoEvioDWSZd4Zeh-34" value="&lt;ul&gt;&lt;li&gt;AQ_TreeViewItemModel&lt;br style=&quot;border-color: var(--border-color); font-weight: 700; text-align: center;&quot;&gt;&lt;/li&gt;&lt;/ul&gt;" style="text;strokeColor=none;fillColor=none;align=left;verticalAlign=middle;spacingLeft=4;spacingRight=4;overflow=hidden;points=[[0,0.5],[1,0.5]];portConstraint=eastwest;rotatable=0;whiteSpace=wrap;html=1;" parent="QRJC5hoEvioDWSZd4Zeh-33" vertex="1">
          <mxGeometry y="20" width="250" height="30" as="geometry" />
        </mxCell>
        <mxCell id="QRJC5hoEvioDWSZd4Zeh-31" value="" style="endArrow=classic;html=1;rounded=0;entryX=0.001;entryY=0.102;entryDx=0;entryDy=0;entryPerimeter=0;exitX=0.08;exitY=0.667;exitDx=0;exitDy=0;exitPerimeter=0;edgeStyle=orthogonalEdgeStyle;dashed=1;strokeWidth=2;" parent="1" source="B11gTvaxnq1XmtoSN8UW-69" target="QRJC5hoEvioDWSZd4Zeh-22" edge="1">
          <mxGeometry width="50" height="50" relative="1" as="geometry">
            <mxPoint x="1020" y="-230" as="sourcePoint" />
            <mxPoint x="1110" y="-460" as="targetPoint" />
            <Array as="points">
              <mxPoint x="990" y="-300" />
              <mxPoint x="990" y="-675" />
            </Array>
          </mxGeometry>
        </mxCell>
        <mxCell id="QRJC5hoEvioDWSZd4Zeh-35" value="" style="endArrow=classic;html=1;rounded=0;entryX=0.997;entryY=0.12;entryDx=0;entryDy=0;entryPerimeter=0;exitX=0.8;exitY=0.667;exitDx=0;exitDy=0;exitPerimeter=0;edgeStyle=orthogonalEdgeStyle;strokeWidth=2;" parent="1" source="QRJC5hoEvioDWSZd4Zeh-34" target="QRJC5hoEvioDWSZd4Zeh-1" edge="1">
          <mxGeometry width="50" height="50" relative="1" as="geometry">
            <mxPoint x="1330" y="-470" as="sourcePoint" />
            <mxPoint x="1350" y="40" as="targetPoint" />
            <Array as="points">
              <mxPoint x="1350" y="-470" />
              <mxPoint x="1350" y="60" />
              <mxPoint x="1291" y="60" />
              <mxPoint x="1291" y="62" />
            </Array>
          </mxGeometry>
        </mxCell>
        <mxCell id="BPRDDZzdLg85-zejRSAX-11" value="AQ_ValueTreeDelegate&lt;br&gt;(QStyledItemDelegate)&lt;br&gt;&lt;span style=&quot;font-weight: normal;&quot;&gt;&amp;nbsp;&lt;font style=&quot;&quot;&gt;&lt;i style=&quot;&quot;&gt;(owner -&amp;nbsp;&lt;/i&gt;AQ_TreeView&lt;i style=&quot;&quot;&gt;)&lt;/i&gt;&lt;/font&gt;&lt;/span&gt;" style="swimlane;whiteSpace=wrap;html=1;startSize=60;fillColor=#e1d5e7;strokeColor=#9673a6;" parent="1" vertex="1">
          <mxGeometry x="1460" y="-700" width="250" height="190" as="geometry" />
        </mxCell>
        <mxCell id="BPRDDZzdLg85-zejRSAX-12" value="&lt;b&gt;-Parent -&amp;nbsp;AQ_TreeView&lt;/b&gt;" style="text;html=1;align=center;verticalAlign=middle;resizable=0;points=[];autosize=1;strokeColor=none;fillColor=none;" parent="BPRDDZzdLg85-zejRSAX-11" vertex="1">
          <mxGeometry x="20" y="60" width="150" height="30" as="geometry" />
        </mxCell>
        <mxCell id="BPRDDZzdLg85-zejRSAX-13" value="Methods" style="swimlane;fontStyle=0;childLayout=stackLayout;horizontal=1;startSize=20;horizontalStack=0;resizeParent=1;resizeParentMax=0;resizeLast=0;collapsible=1;marginBottom=0;whiteSpace=wrap;html=1;" parent="BPRDDZzdLg85-zejRSAX-11" vertex="1">
          <mxGeometry y="140" width="250" height="50" as="geometry" />
        </mxCell>
        <mxCell id="BPRDDZzdLg85-zejRSAX-14" value="&lt;ul&gt;&lt;li&gt;create_editor&lt;/li&gt;&lt;/ul&gt;" style="text;strokeColor=none;fillColor=none;align=left;verticalAlign=middle;spacingLeft=4;spacingRight=4;overflow=hidden;points=[[0,0.5],[1,0.5]];portConstraint=eastwest;rotatable=0;whiteSpace=wrap;html=1;" parent="BPRDDZzdLg85-zejRSAX-13" vertex="1">
          <mxGeometry y="20" width="250" height="30" as="geometry" />
        </mxCell>
        <mxCell id="BPRDDZzdLg85-zejRSAX-15" value="fields" style="swimlane;fontStyle=0;childLayout=stackLayout;horizontal=1;startSize=20;horizontalStack=0;resizeParent=1;resizeParentMax=0;resizeLast=0;collapsible=1;marginBottom=0;whiteSpace=wrap;html=1;" parent="BPRDDZzdLg85-zejRSAX-11" vertex="1">
          <mxGeometry y="90" width="250" height="50" as="geometry" />
        </mxCell>
        <mxCell id="BPRDDZzdLg85-zejRSAX-16" value="&lt;ul style=&quot;border-color: var(--border-color);&quot;&gt;&lt;li style=&quot;border-color: var(--border-color);&quot;&gt;&lt;br&gt;&lt;/li&gt;&lt;/ul&gt;" style="text;strokeColor=none;fillColor=none;align=left;verticalAlign=middle;spacingLeft=4;spacingRight=4;overflow=hidden;points=[[0,0.5],[1,0.5]];portConstraint=eastwest;rotatable=0;whiteSpace=wrap;html=1;" parent="BPRDDZzdLg85-zejRSAX-15" vertex="1">
          <mxGeometry y="20" width="250" height="30" as="geometry" />
        </mxCell>
        <mxCell id="BPRDDZzdLg85-zejRSAX-19" value="" style="endArrow=classic;html=1;rounded=0;entryX=-0.01;entryY=0.127;entryDx=0;entryDy=0;entryPerimeter=0;dashed=1;strokeWidth=2;edgeStyle=orthogonalEdgeStyle;" parent="1" target="BPRDDZzdLg85-zejRSAX-11" edge="1">
          <mxGeometry width="50" height="50" relative="1" as="geometry">
            <mxPoint x="1300" y="-600" as="sourcePoint" />
            <mxPoint x="1500" y="-500" as="targetPoint" />
          </mxGeometry>
        </mxCell>
        <mxCell id="BPRDDZzdLg85-zejRSAX-20" value="&quot;Delegate Editor&quot;&lt;br&gt;AQ_TreeLineEdit(QLineEdit)&lt;br&gt;&lt;span style=&quot;font-weight: normal;&quot;&gt;&amp;nbsp;&lt;font style=&quot;&quot;&gt;&lt;i style=&quot;&quot;&gt;(owner -&amp;nbsp;&lt;/i&gt;AQ_TreeView&lt;i style=&quot;&quot;&gt;)&lt;/i&gt;&lt;/font&gt;&lt;/span&gt;" style="swimlane;whiteSpace=wrap;html=1;startSize=60;fillColor=#e1d5e7;strokeColor=#9673a6;" parent="1" vertex="1">
          <mxGeometry x="1460" y="380" width="250" height="220" as="geometry" />
        </mxCell>
        <mxCell id="BPRDDZzdLg85-zejRSAX-21" value="&lt;b&gt;-Parent -&amp;nbsp;AQ_TreeView&lt;/b&gt;" style="text;html=1;align=center;verticalAlign=middle;resizable=0;points=[];autosize=1;strokeColor=none;fillColor=none;" parent="BPRDDZzdLg85-zejRSAX-20" vertex="1">
          <mxGeometry x="20" y="60" width="150" height="30" as="geometry" />
        </mxCell>
        <mxCell id="BPRDDZzdLg85-zejRSAX-22" value="Methods" style="swimlane;fontStyle=0;childLayout=stackLayout;horizontal=1;startSize=20;horizontalStack=0;resizeParent=1;resizeParentMax=0;resizeLast=0;collapsible=1;marginBottom=0;whiteSpace=wrap;html=1;" parent="BPRDDZzdLg85-zejRSAX-20" vertex="1">
          <mxGeometry y="140" width="250" height="80" as="geometry" />
        </mxCell>
        <mxCell id="BPRDDZzdLg85-zejRSAX-23" value="&lt;ul&gt;&lt;li&gt;set_value(set_text)&lt;/li&gt;&lt;/ul&gt;" style="text;strokeColor=none;fillColor=none;align=left;verticalAlign=middle;spacingLeft=4;spacingRight=4;overflow=hidden;points=[[0,0.5],[1,0.5]];portConstraint=eastwest;rotatable=0;whiteSpace=wrap;html=1;" parent="BPRDDZzdLg85-zejRSAX-22" vertex="1">
          <mxGeometry y="20" width="250" height="30" as="geometry" />
        </mxCell>
        <mxCell id="zfRY00krcIHAmy4edK_9-21" value="&lt;ul&gt;&lt;li&gt;set_new_value_handler&lt;/li&gt;&lt;/ul&gt;" style="text;strokeColor=none;fillColor=none;align=left;verticalAlign=middle;spacingLeft=4;spacingRight=4;overflow=hidden;points=[[0,0.5],[1,0.5]];portConstraint=eastwest;rotatable=0;whiteSpace=wrap;html=1;" parent="BPRDDZzdLg85-zejRSAX-22" vertex="1">
          <mxGeometry y="50" width="250" height="30" as="geometry" />
        </mxCell>
        <mxCell id="BPRDDZzdLg85-zejRSAX-24" value="fields" style="swimlane;fontStyle=0;childLayout=stackLayout;horizontal=1;startSize=20;horizontalStack=0;resizeParent=1;resizeParentMax=0;resizeLast=0;collapsible=1;marginBottom=0;whiteSpace=wrap;html=1;" parent="BPRDDZzdLg85-zejRSAX-20" vertex="1">
          <mxGeometry y="90" width="250" height="50" as="geometry" />
        </mxCell>
        <mxCell id="BPRDDZzdLg85-zejRSAX-25" value="&lt;ul style=&quot;border-color: var(--border-color);&quot;&gt;&lt;li style=&quot;border-color: var(--border-color);&quot;&gt;&lt;br&gt;&lt;/li&gt;&lt;/ul&gt;" style="text;strokeColor=none;fillColor=none;align=left;verticalAlign=middle;spacingLeft=4;spacingRight=4;overflow=hidden;points=[[0,0.5],[1,0.5]];portConstraint=eastwest;rotatable=0;whiteSpace=wrap;html=1;" parent="BPRDDZzdLg85-zejRSAX-24" vertex="1">
          <mxGeometry y="20" width="250" height="30" as="geometry" />
        </mxCell>
        <mxCell id="BPRDDZzdLg85-zejRSAX-27" value="" style="endArrow=classic;html=1;rounded=0;entryX=0.5;entryY=0;entryDx=0;entryDy=0;exitX=0.504;exitY=1.024;exitDx=0;exitDy=0;exitPerimeter=0;strokeWidth=2;dashed=1;edgeStyle=orthogonalEdgeStyle;" parent="1" source="BPRDDZzdLg85-zejRSAX-14" target="BPRDDZzdLg85-zejRSAX-20" edge="1">
          <mxGeometry width="50" height="50" relative="1" as="geometry">
            <mxPoint x="1510" y="50" as="sourcePoint" />
            <mxPoint x="1560" as="targetPoint" />
          </mxGeometry>
        </mxCell>
        <mxCell id="BPRDDZzdLg85-zejRSAX-28" value="" style="endArrow=classic;html=1;rounded=0;exitX=0.92;exitY=0.667;exitDx=0;exitDy=0;exitPerimeter=0;entryX=-0.005;entryY=0.185;entryDx=0;entryDy=0;entryPerimeter=0;strokeWidth=2;edgeStyle=orthogonalEdgeStyle;" parent="1" source="BPRDDZzdLg85-zejRSAX-26" target="BPRDDZzdLg85-zejRSAX-20" edge="1">
          <mxGeometry width="50" height="50" relative="1" as="geometry">
            <mxPoint x="1320" y="540" as="sourcePoint" />
            <mxPoint x="1480" y="430" as="targetPoint" />
            <Array as="points">
              <mxPoint x="1380" y="600" />
              <mxPoint x="1380" y="420" />
              <mxPoint x="1459" y="420" />
            </Array>
          </mxGeometry>
        </mxCell>
      </root>
    </mxGraphModel>
  </diagram>
  <diagram id="kYDECnq7GESs7CxAmDQw" name="Вичтення значення параметру">
    <mxGraphModel dx="1366" dy="752" grid="1" gridSize="10" guides="1" tooltips="1" connect="1" arrows="1" fold="1" page="1" pageScale="1" pageWidth="827" pageHeight="1169" math="0" shadow="0">
      <root>
        <mxCell id="0" />
        <mxCell id="1" parent="0" />
        <mxCell id="Jswc4MHu7NB6cm5qxilA-2" value="" style="endArrow=classic;html=1;rounded=0;strokeWidth=3;" parent="1" edge="1">
          <mxGeometry width="50" height="50" relative="1" as="geometry">
            <mxPoint x="9" y="380" as="sourcePoint" />
            <mxPoint x="819" y="380" as="targetPoint" />
          </mxGeometry>
        </mxCell>
        <mxCell id="Jswc4MHu7NB6cm5qxilA-3" value="" style="endArrow=none;dashed=1;html=1;dashPattern=1 3;strokeWidth=2;rounded=0;" parent="1" edge="1">
          <mxGeometry width="50" height="50" relative="1" as="geometry">
            <mxPoint x="10" y="380" as="sourcePoint" />
            <mxPoint x="10" y="10" as="targetPoint" />
          </mxGeometry>
        </mxCell>
        <mxCell id="Jswc4MHu7NB6cm5qxilA-5" value="read_param_btn&lt;br&gt;pressed" style="rounded=1;whiteSpace=wrap;html=1;strokeWidth=1;" parent="1" vertex="1">
          <mxGeometry x="10" y="320" width="120" height="60" as="geometry" />
        </mxCell>
        <mxCell id="Jswc4MHu7NB6cm5qxilA-6" value="AQ_EventManager" style="rounded=1;whiteSpace=wrap;html=1;fillColor=#f8cecc;strokeColor=#b85450;" parent="1" vertex="1">
          <mxGeometry x="10" y="10" width="810" height="30" as="geometry" />
        </mxCell>
        <mxCell id="Jswc4MHu7NB6cm5qxilA-7" value="" style="endArrow=classic;html=1;rounded=0;exitX=0.902;exitY=-0.032;exitDx=0;exitDy=0;exitPerimeter=0;entryX=0.136;entryY=1.04;entryDx=0;entryDy=0;entryPerimeter=0;strokeWidth=1;" parent="1" source="Jswc4MHu7NB6cm5qxilA-5" target="Jswc4MHu7NB6cm5qxilA-6" edge="1">
          <mxGeometry width="50" height="50" relative="1" as="geometry">
            <mxPoint x="410" y="180" as="sourcePoint" />
            <mxPoint x="460" y="130" as="targetPoint" />
          </mxGeometry>
        </mxCell>
        <mxCell id="Jswc4MHu7NB6cm5qxilA-8" value="&lt;font style=&quot;font-size: 13px;&quot;&gt;&lt;b&gt;emit_event(&lt;font color=&quot;#009900&quot;&gt;&#39;read_parameter&#39;&lt;/font&gt;,&lt;font color=&quot;#009900&quot;&gt; &lt;/font&gt;item)&lt;/b&gt;&lt;/font&gt;" style="edgeLabel;html=1;align=center;verticalAlign=middle;resizable=0;points=[];rotation=-90;labelBorderColor=default;" parent="Jswc4MHu7NB6cm5qxilA-7" vertex="1" connectable="0">
          <mxGeometry x="-0.2427" y="2" relative="1" as="geometry">
            <mxPoint y="-16" as="offset" />
          </mxGeometry>
        </mxCell>
        <mxCell id="IQ265LHhyj9Io30Nn-vx-1" value="Cur_active_device::&lt;br&gt;&lt;div style=&quot;font-family: &amp;quot;JetBrains Mono&amp;quot;, monospace;&quot;&gt;read_all_parameters&lt;/div&gt;" style="rounded=1;whiteSpace=wrap;html=1;strokeWidth=1;fillColor=#d5e8d4;strokeColor=#82b366;" vertex="1" parent="1">
          <mxGeometry x="160" y="320" width="130" height="60" as="geometry" />
        </mxCell>
        <mxCell id="IQ265LHhyj9Io30Nn-vx-2" value="" style="endArrow=classic;html=1;rounded=0;exitX=0.25;exitY=1;exitDx=0;exitDy=0;entryX=0.408;entryY=-0.017;entryDx=0;entryDy=0;entryPerimeter=0;strokeWidth=1;" edge="1" parent="1" source="Jswc4MHu7NB6cm5qxilA-6" target="IQ265LHhyj9Io30Nn-vx-1">
          <mxGeometry width="50" height="50" relative="1" as="geometry">
            <mxPoint x="700" y="230" as="sourcePoint" />
            <mxPoint x="750" y="180" as="targetPoint" />
          </mxGeometry>
        </mxCell>
        <mxCell id="IQ265LHhyj9Io30Nn-vx-3" value="&lt;div style=&quot;font-family: &amp;quot;JetBrains Mono&amp;quot;, monospace;&quot;&gt;AQ_ParamItem::&lt;br&gt;&lt;div style=&quot;&quot;&gt;set_last_value_&lt;br&gt;from_device&lt;/div&gt;&lt;/div&gt;" style="rounded=1;whiteSpace=wrap;html=1;fillColor=#d5e8d4;strokeColor=#82b366;" vertex="1" parent="1">
          <mxGeometry x="380" y="320" width="130" height="60" as="geometry" />
        </mxCell>
        <mxCell id="IQ265LHhyj9Io30Nn-vx-4" value="" style="endArrow=classic;html=1;rounded=0;exitX=1;exitY=0.5;exitDx=0;exitDy=0;entryX=0;entryY=0.5;entryDx=0;entryDy=0;" edge="1" parent="1" source="IQ265LHhyj9Io30Nn-vx-1" target="IQ265LHhyj9Io30Nn-vx-3">
          <mxGeometry width="50" height="50" relative="1" as="geometry">
            <mxPoint x="700" y="230" as="sourcePoint" />
            <mxPoint x="750" y="180" as="targetPoint" />
          </mxGeometry>
        </mxCell>
        <mxCell id="IQ265LHhyj9Io30Nn-vx-5" value="For i in &lt;br&gt;all params" style="edgeLabel;html=1;align=center;verticalAlign=middle;resizable=0;points=[];labelBorderColor=default;" vertex="1" connectable="0" parent="IQ265LHhyj9Io30Nn-vx-4">
          <mxGeometry x="-0.0222" y="-1" relative="1" as="geometry">
            <mxPoint as="offset" />
          </mxGeometry>
        </mxCell>
        <mxCell id="jUPAS11lpUYyrczg_2EJ-1" value="" style="endArrow=none;html=1;rounded=0;exitX=0.843;exitY=0.002;exitDx=0;exitDy=0;exitPerimeter=0;" edge="1" parent="1" source="IQ265LHhyj9Io30Nn-vx-1">
          <mxGeometry width="50" height="50" relative="1" as="geometry">
            <mxPoint x="700" y="230" as="sourcePoint" />
            <mxPoint x="270" y="270" as="targetPoint" />
          </mxGeometry>
        </mxCell>
        <mxCell id="jUPAS11lpUYyrczg_2EJ-2" value="Finished" style="edgeLabel;html=1;align=center;verticalAlign=middle;resizable=0;points=[];labelBorderColor=default;" vertex="1" connectable="0" parent="jUPAS11lpUYyrczg_2EJ-1">
          <mxGeometry x="-0.053" y="1" relative="1" as="geometry">
            <mxPoint as="offset" />
          </mxGeometry>
        </mxCell>
        <mxCell id="jUPAS11lpUYyrczg_2EJ-3" value="" style="endArrow=classic;html=1;rounded=0;entryX=0.322;entryY=1.044;entryDx=0;entryDy=0;entryPerimeter=0;" edge="1" parent="1" target="Jswc4MHu7NB6cm5qxilA-6">
          <mxGeometry width="50" height="50" relative="1" as="geometry">
            <mxPoint x="270" y="270" as="sourcePoint" />
            <mxPoint x="540" y="200" as="targetPoint" />
          </mxGeometry>
        </mxCell>
        <mxCell id="jUPAS11lpUYyrczg_2EJ-4" value="&lt;b style=&quot;border-color: var(--border-color); font-size: 13px;&quot;&gt;emit_event(&lt;font style=&quot;border-color: var(--border-color);&quot; color=&quot;#009900&quot;&gt;&#39;current_device&lt;br&gt;_data_updated&lt;/font&gt;&lt;/b&gt;&lt;b style=&quot;border-color: var(--border-color); font-size: 13px;&quot;&gt;&lt;font style=&quot;border-color: var(--border-color);&quot; color=&quot;#009900&quot;&gt;&#39;&lt;/font&gt;,&lt;font style=&quot;border-color: var(--border-color);&quot; color=&quot;#009900&quot;&gt;&amp;nbsp;&lt;/font&gt;item)&lt;/b&gt;" style="edgeLabel;html=1;align=center;verticalAlign=middle;resizable=0;points=[];rotation=-90;labelBorderColor=default;" vertex="1" connectable="0" parent="jUPAS11lpUYyrczg_2EJ-3">
          <mxGeometry x="-0.0164" y="2" relative="1" as="geometry">
            <mxPoint as="offset" />
          </mxGeometry>
        </mxCell>
      </root>
    </mxGraphModel>
  </diagram>
  <diagram id="SaOPtQxpaXjw3YlCLQ3A" name="WatchList">
    <mxGraphModel dx="2868" dy="2749" grid="1" gridSize="10" guides="1" tooltips="1" connect="1" arrows="1" fold="1" page="1" pageScale="1" pageWidth="827" pageHeight="1169" math="0" shadow="0">
      <root>
        <mxCell id="0" />
        <mxCell id="1" parent="0" />
        <mxCell id="ItmN7lF8-UJQIYZvULHr-1" value="AQ_Session &lt;font style=&quot;font-size: 10px;&quot;&gt;&lt;i style=&quot;font-weight: normal;&quot;&gt;(owner - Main)&lt;/i&gt;&lt;/font&gt;" style="swimlane;whiteSpace=wrap;html=1;fillColor=#d5e8d4;strokeColor=#82b366;" vertex="1" parent="1">
          <mxGeometry x="10" y="10" width="250" height="360" as="geometry" />
        </mxCell>
        <mxCell id="ItmN7lF8-UJQIYZvULHr-2" value="&lt;b&gt;-Parent - main&lt;/b&gt;" style="text;html=1;align=center;verticalAlign=middle;resizable=0;points=[];autosize=1;strokeColor=none;fillColor=none;" vertex="1" parent="ItmN7lF8-UJQIYZvULHr-1">
          <mxGeometry y="20" width="100" height="30" as="geometry" />
        </mxCell>
        <mxCell id="ItmN7lF8-UJQIYZvULHr-3" value="Methods" style="swimlane;fontStyle=0;childLayout=stackLayout;horizontal=1;startSize=20;horizontalStack=0;resizeParent=1;resizeParentMax=0;resizeLast=0;collapsible=1;marginBottom=0;whiteSpace=wrap;html=1;" vertex="1" parent="ItmN7lF8-UJQIYZvULHr-1">
          <mxGeometry y="160" width="250" height="200" as="geometry" />
        </mxCell>
        <mxCell id="ItmN7lF8-UJQIYZvULHr-4" value="&lt;ul&gt;&lt;li&gt;open_AddDevices (*EventM)&lt;/li&gt;&lt;/ul&gt;" style="text;strokeColor=none;fillColor=none;align=left;verticalAlign=middle;spacingLeft=4;spacingRight=4;overflow=hidden;points=[[0,0.5],[1,0.5]];portConstraint=eastwest;rotatable=0;whiteSpace=wrap;html=1;" vertex="1" parent="ItmN7lF8-UJQIYZvULHr-3">
          <mxGeometry y="20" width="250" height="30" as="geometry" />
        </mxCell>
        <mxCell id="ItmN7lF8-UJQIYZvULHr-5" value="&lt;ul&gt;&lt;li&gt;add_new_devices(*EventM)&lt;/li&gt;&lt;/ul&gt;" style="text;strokeColor=none;fillColor=none;align=left;verticalAlign=middle;spacingLeft=4;spacingRight=4;overflow=hidden;points=[[0,0.5],[1,0.5]];portConstraint=eastwest;rotatable=0;whiteSpace=wrap;html=1;" vertex="1" parent="ItmN7lF8-UJQIYZvULHr-3">
          <mxGeometry y="50" width="250" height="30" as="geometry" />
        </mxCell>
        <mxCell id="ItmN7lF8-UJQIYZvULHr-6" value="&lt;ul&gt;&lt;li&gt;set_cur_active_device(*EventM)&lt;/li&gt;&lt;/ul&gt;" style="text;strokeColor=none;fillColor=none;align=left;verticalAlign=middle;spacingLeft=4;spacingRight=4;overflow=hidden;points=[[0,0.5],[1,0.5]];portConstraint=eastwest;rotatable=0;whiteSpace=wrap;html=1;" vertex="1" parent="ItmN7lF8-UJQIYZvULHr-3">
          <mxGeometry y="80" width="250" height="30" as="geometry" />
        </mxCell>
        <mxCell id="ItmN7lF8-UJQIYZvULHr-7" value="&lt;ul&gt;&lt;li&gt;read_params_cur_active_device(*EventM)&lt;/li&gt;&lt;/ul&gt;" style="text;strokeColor=none;fillColor=none;align=left;verticalAlign=middle;spacingLeft=4;spacingRight=4;overflow=hidden;points=[[0,0.5],[1,0.5]];portConstraint=eastwest;rotatable=0;whiteSpace=wrap;html=1;" vertex="1" parent="ItmN7lF8-UJQIYZvULHr-3">
          <mxGeometry y="110" width="250" height="30" as="geometry" />
        </mxCell>
        <mxCell id="ItmN7lF8-UJQIYZvULHr-8" value="&lt;ul&gt;&lt;li&gt;write_params_cur_active_device(*EventM)&lt;/li&gt;&lt;/ul&gt;" style="text;strokeColor=none;fillColor=none;align=left;verticalAlign=middle;spacingLeft=4;spacingRight=4;overflow=hidden;points=[[0,0.5],[1,0.5]];portConstraint=eastwest;rotatable=0;whiteSpace=wrap;html=1;" vertex="1" parent="ItmN7lF8-UJQIYZvULHr-3">
          <mxGeometry y="140" width="250" height="30" as="geometry" />
        </mxCell>
        <mxCell id="ItmN7lF8-UJQIYZvULHr-9" value="&lt;ul&gt;&lt;li&gt;delete_device(*EventM)&lt;/li&gt;&lt;/ul&gt;" style="text;strokeColor=none;fillColor=none;align=left;verticalAlign=middle;spacingLeft=4;spacingRight=4;overflow=hidden;points=[[0,0.5],[1,0.5]];portConstraint=eastwest;rotatable=0;whiteSpace=wrap;html=1;" vertex="1" parent="ItmN7lF8-UJQIYZvULHr-3">
          <mxGeometry y="170" width="250" height="30" as="geometry" />
        </mxCell>
        <mxCell id="ItmN7lF8-UJQIYZvULHr-10" value="fields" style="swimlane;fontStyle=0;childLayout=stackLayout;horizontal=1;startSize=20;horizontalStack=0;resizeParent=1;resizeParentMax=0;resizeLast=0;collapsible=1;marginBottom=0;whiteSpace=wrap;html=1;" vertex="1" parent="ItmN7lF8-UJQIYZvULHr-1">
          <mxGeometry y="50" width="250" height="110" as="geometry" />
        </mxCell>
        <mxCell id="ItmN7lF8-UJQIYZvULHr-11" value="&lt;ul style=&quot;border-color: var(--border-color);&quot;&gt;&lt;li style=&quot;border-color: var(--border-color);&quot;&gt;&lt;span style=&quot;background-color: rgb(241, 156, 153);&quot;&gt;*event_manager&lt;/span&gt;&lt;/li&gt;&lt;/ul&gt;" style="text;strokeColor=none;fillColor=none;align=left;verticalAlign=middle;spacingLeft=4;spacingRight=4;overflow=hidden;points=[[0,0.5],[1,0.5]];portConstraint=eastwest;rotatable=0;whiteSpace=wrap;html=1;" vertex="1" parent="ItmN7lF8-UJQIYZvULHr-10">
          <mxGeometry y="20" width="250" height="30" as="geometry" />
        </mxCell>
        <mxCell id="ItmN7lF8-UJQIYZvULHr-12" value="&lt;ul style=&quot;border-color: var(--border-color);&quot;&gt;&lt;li style=&quot;border-color: var(--border-color);&quot;&gt;devices_list(*AQ_device)&lt;/li&gt;&lt;/ul&gt;" style="text;strokeColor=none;fillColor=none;align=left;verticalAlign=middle;spacingLeft=4;spacingRight=4;overflow=hidden;points=[[0,0.5],[1,0.5]];portConstraint=eastwest;rotatable=0;whiteSpace=wrap;html=1;" vertex="1" parent="ItmN7lF8-UJQIYZvULHr-10">
          <mxGeometry y="50" width="250" height="30" as="geometry" />
        </mxCell>
        <mxCell id="ItmN7lF8-UJQIYZvULHr-13" value="&lt;ul style=&quot;border-color: var(--border-color);&quot;&gt;&lt;li style=&quot;border-color: var(--border-color);&quot;&gt;*cur_active_device&lt;/li&gt;&lt;/ul&gt;" style="text;strokeColor=none;fillColor=none;align=left;verticalAlign=middle;spacingLeft=4;spacingRight=4;overflow=hidden;points=[[0,0.5],[1,0.5]];portConstraint=eastwest;rotatable=0;whiteSpace=wrap;html=1;" vertex="1" parent="ItmN7lF8-UJQIYZvULHr-10">
          <mxGeometry y="80" width="250" height="30" as="geometry" />
        </mxCell>
        <mxCell id="ItmN7lF8-UJQIYZvULHr-14" value="AQ_Device&amp;nbsp;&lt;font style=&quot;font-size: 10px;&quot;&gt;&lt;i style=&quot;font-weight: normal;&quot;&gt;(owner - Main.devices_list)&lt;/i&gt;&lt;/font&gt;" style="swimlane;whiteSpace=wrap;html=1;fillColor=#d5e8d4;strokeColor=#82b366;" vertex="1" parent="1">
          <mxGeometry x="330" y="10" width="250" height="390" as="geometry" />
        </mxCell>
        <mxCell id="ItmN7lF8-UJQIYZvULHr-15" value="&lt;b&gt;-Parent - None&lt;/b&gt;" style="text;html=1;align=center;verticalAlign=middle;resizable=0;points=[];autosize=1;strokeColor=none;fillColor=none;" vertex="1" parent="ItmN7lF8-UJQIYZvULHr-14">
          <mxGeometry x="-5" y="20" width="110" height="30" as="geometry" />
        </mxCell>
        <mxCell id="ItmN7lF8-UJQIYZvULHr-16" value="Methods" style="swimlane;fontStyle=0;childLayout=stackLayout;horizontal=1;startSize=20;horizontalStack=0;resizeParent=1;resizeParentMax=0;resizeLast=0;collapsible=1;marginBottom=0;whiteSpace=wrap;html=1;" vertex="1" parent="ItmN7lF8-UJQIYZvULHr-14">
          <mxGeometry y="190" width="250" height="200" as="geometry" />
        </mxCell>
        <mxCell id="ItmN7lF8-UJQIYZvULHr-17" value="&lt;ul&gt;&lt;li&gt;&lt;span style=&quot;background-color: initial;&quot;&gt;get_device_status&lt;/span&gt;&lt;br&gt;&lt;/li&gt;&lt;/ul&gt;" style="text;strokeColor=none;fillColor=none;align=left;verticalAlign=middle;spacingLeft=4;spacingRight=4;overflow=hidden;points=[[0,0.5],[1,0.5]];portConstraint=eastwest;rotatable=0;whiteSpace=wrap;html=1;" vertex="1" parent="ItmN7lF8-UJQIYZvULHr-16">
          <mxGeometry y="20" width="250" height="30" as="geometry" />
        </mxCell>
        <mxCell id="ItmN7lF8-UJQIYZvULHr-18" value="&lt;ul&gt;&lt;li&gt;get_device_data&lt;/li&gt;&lt;/ul&gt;" style="text;strokeColor=none;fillColor=none;align=left;verticalAlign=middle;spacingLeft=4;spacingRight=4;overflow=hidden;points=[[0,0.5],[1,0.5]];portConstraint=eastwest;rotatable=0;whiteSpace=wrap;html=1;" vertex="1" parent="ItmN7lF8-UJQIYZvULHr-16">
          <mxGeometry y="50" width="250" height="30" as="geometry" />
        </mxCell>
        <mxCell id="ItmN7lF8-UJQIYZvULHr-19" value="&lt;ul&gt;&lt;li&gt;read_parameter&lt;/li&gt;&lt;/ul&gt;" style="text;strokeColor=none;fillColor=none;align=left;verticalAlign=middle;spacingLeft=4;spacingRight=4;overflow=hidden;points=[[0,0.5],[1,0.5]];portConstraint=eastwest;rotatable=0;whiteSpace=wrap;html=1;" vertex="1" parent="ItmN7lF8-UJQIYZvULHr-16">
          <mxGeometry y="80" width="250" height="30" as="geometry" />
        </mxCell>
        <mxCell id="ItmN7lF8-UJQIYZvULHr-20" value="&lt;ul&gt;&lt;li&gt;read_all_parameters&lt;/li&gt;&lt;/ul&gt;" style="text;strokeColor=none;fillColor=none;align=left;verticalAlign=middle;spacingLeft=4;spacingRight=4;overflow=hidden;points=[[0,0.5],[1,0.5]];portConstraint=eastwest;rotatable=0;whiteSpace=wrap;html=1;" vertex="1" parent="ItmN7lF8-UJQIYZvULHr-16">
          <mxGeometry y="110" width="250" height="30" as="geometry" />
        </mxCell>
        <mxCell id="ItmN7lF8-UJQIYZvULHr-21" value="&lt;ul&gt;&lt;li&gt;write_parameter&lt;/li&gt;&lt;/ul&gt;" style="text;strokeColor=none;fillColor=none;align=left;verticalAlign=middle;spacingLeft=4;spacingRight=4;overflow=hidden;points=[[0,0.5],[1,0.5]];portConstraint=eastwest;rotatable=0;whiteSpace=wrap;html=1;" vertex="1" parent="ItmN7lF8-UJQIYZvULHr-16">
          <mxGeometry y="140" width="250" height="30" as="geometry" />
        </mxCell>
        <mxCell id="ItmN7lF8-UJQIYZvULHr-22" value="&lt;ul&gt;&lt;li style=&quot;border-color: var(--border-color);&quot;&gt;write_all_parameters&lt;/li&gt;&lt;/ul&gt;" style="text;strokeColor=none;fillColor=none;align=left;verticalAlign=middle;spacingLeft=4;spacingRight=4;overflow=hidden;points=[[0,0.5],[1,0.5]];portConstraint=eastwest;rotatable=0;whiteSpace=wrap;html=1;" vertex="1" parent="ItmN7lF8-UJQIYZvULHr-16">
          <mxGeometry y="170" width="250" height="30" as="geometry" />
        </mxCell>
        <mxCell id="ItmN7lF8-UJQIYZvULHr-23" value="fields" style="swimlane;fontStyle=0;childLayout=stackLayout;horizontal=1;startSize=20;horizontalStack=0;resizeParent=1;resizeParentMax=0;resizeLast=0;collapsible=1;marginBottom=0;whiteSpace=wrap;html=1;" vertex="1" parent="ItmN7lF8-UJQIYZvULHr-14">
          <mxGeometry y="50" width="250" height="140" as="geometry" />
        </mxCell>
        <mxCell id="ItmN7lF8-UJQIYZvULHr-24" value="&lt;ul style=&quot;border-color: var(--border-color);&quot;&gt;&lt;li style=&quot;border-color: var(--border-color);&quot;&gt;&lt;span style=&quot;background-color: rgb(241, 156, 153);&quot;&gt;*event_manager&lt;/span&gt;&lt;/li&gt;&lt;/ul&gt;" style="text;strokeColor=none;fillColor=none;align=left;verticalAlign=middle;spacingLeft=4;spacingRight=4;overflow=hidden;points=[[0,0.5],[1,0.5]];portConstraint=eastwest;rotatable=0;whiteSpace=wrap;html=1;" vertex="1" parent="ItmN7lF8-UJQIYZvULHr-23">
          <mxGeometry y="20" width="250" height="30" as="geometry" />
        </mxCell>
        <mxCell id="ItmN7lF8-UJQIYZvULHr-25" value="&lt;ul style=&quot;border-color: var(--border-color);&quot;&gt;&lt;li style=&quot;border-color: var(--border-color);&quot;&gt;device_data&lt;/li&gt;&lt;/ul&gt;" style="text;strokeColor=none;fillColor=none;align=left;verticalAlign=middle;spacingLeft=4;spacingRight=4;overflow=hidden;points=[[0,0.5],[1,0.5]];portConstraint=eastwest;rotatable=0;whiteSpace=wrap;html=1;" vertex="1" parent="ItmN7lF8-UJQIYZvULHr-23">
          <mxGeometry y="50" width="250" height="30" as="geometry" />
        </mxCell>
        <mxCell id="ItmN7lF8-UJQIYZvULHr-26" value="&lt;ul style=&quot;border-color: var(--border-color);&quot;&gt;&lt;li style=&quot;border-color: var(--border-color);&quot;&gt;client&lt;/li&gt;&lt;/ul&gt;" style="text;strokeColor=none;fillColor=none;align=left;verticalAlign=middle;spacingLeft=4;spacingRight=4;overflow=hidden;points=[[0,0.5],[1,0.5]];portConstraint=eastwest;rotatable=0;whiteSpace=wrap;html=1;" vertex="1" parent="ItmN7lF8-UJQIYZvULHr-23">
          <mxGeometry y="80" width="250" height="30" as="geometry" />
        </mxCell>
        <mxCell id="ItmN7lF8-UJQIYZvULHr-27" value="&lt;ul style=&quot;border-color: var(--border-color);&quot;&gt;&lt;li style=&quot;border-color: var(--border-color);&quot;&gt;device_tree (model)&lt;/li&gt;&lt;/ul&gt;" style="text;strokeColor=none;fillColor=none;align=left;verticalAlign=middle;spacingLeft=4;spacingRight=4;overflow=hidden;points=[[0,0.5],[1,0.5]];portConstraint=eastwest;rotatable=0;whiteSpace=wrap;html=1;" vertex="1" parent="ItmN7lF8-UJQIYZvULHr-23">
          <mxGeometry y="110" width="250" height="30" as="geometry" />
        </mxCell>
        <mxCell id="ItmN7lF8-UJQIYZvULHr-28" value="AQ_DeviceTreeModel(QStandardItemModel)&lt;br&gt;&amp;nbsp;&lt;font style=&quot;font-size: 10px;&quot;&gt;&lt;i style=&quot;font-weight: normal;&quot;&gt;(owner - AQ_Device)&lt;/i&gt;&lt;/font&gt;" style="swimlane;whiteSpace=wrap;html=1;startSize=60;fillColor=#d5e8d4;strokeColor=#82b366;" vertex="1" parent="1">
          <mxGeometry x="660" y="10" width="250" height="280" as="geometry" />
        </mxCell>
        <mxCell id="ItmN7lF8-UJQIYZvULHr-29" value="&lt;b&gt;-Parent - None&lt;/b&gt;" style="text;html=1;align=center;verticalAlign=middle;resizable=0;points=[];autosize=1;strokeColor=none;fillColor=none;" vertex="1" parent="ItmN7lF8-UJQIYZvULHr-28">
          <mxGeometry x="-5" y="60" width="110" height="30" as="geometry" />
        </mxCell>
        <mxCell id="ItmN7lF8-UJQIYZvULHr-30" value="Methods" style="swimlane;fontStyle=0;childLayout=stackLayout;horizontal=1;startSize=20;horizontalStack=0;resizeParent=1;resizeParentMax=0;resizeLast=0;collapsible=1;marginBottom=0;whiteSpace=wrap;html=1;" vertex="1" parent="ItmN7lF8-UJQIYZvULHr-28">
          <mxGeometry y="140" width="250" height="80" as="geometry" />
        </mxCell>
        <mxCell id="ItmN7lF8-UJQIYZvULHr-31" value="&lt;ul&gt;&lt;li&gt;&lt;span style=&quot;background-color: initial;&quot;&gt;set_device&lt;/span&gt;&lt;br&gt;&lt;/li&gt;&lt;/ul&gt;" style="text;strokeColor=none;fillColor=none;align=left;verticalAlign=middle;spacingLeft=4;spacingRight=4;overflow=hidden;points=[[0,0.5],[1,0.5]];portConstraint=eastwest;rotatable=0;whiteSpace=wrap;html=1;" vertex="1" parent="ItmN7lF8-UJQIYZvULHr-30">
          <mxGeometry y="20" width="250" height="30" as="geometry" />
        </mxCell>
        <mxCell id="ItmN7lF8-UJQIYZvULHr-32" value="&lt;ul&gt;&lt;li&gt;get_device&lt;/li&gt;&lt;/ul&gt;" style="text;strokeColor=none;fillColor=none;align=left;verticalAlign=middle;spacingLeft=4;spacingRight=4;overflow=hidden;points=[[0,0.5],[1,0.5]];portConstraint=eastwest;rotatable=0;whiteSpace=wrap;html=1;" vertex="1" parent="ItmN7lF8-UJQIYZvULHr-30">
          <mxGeometry y="50" width="250" height="30" as="geometry" />
        </mxCell>
        <mxCell id="ItmN7lF8-UJQIYZvULHr-33" value="fields" style="swimlane;fontStyle=0;childLayout=stackLayout;horizontal=1;startSize=20;horizontalStack=0;resizeParent=1;resizeParentMax=0;resizeLast=0;collapsible=1;marginBottom=0;whiteSpace=wrap;html=1;" vertex="1" parent="ItmN7lF8-UJQIYZvULHr-28">
          <mxGeometry y="90" width="250" height="50" as="geometry" />
        </mxCell>
        <mxCell id="ItmN7lF8-UJQIYZvULHr-34" value="&lt;ul style=&quot;border-color: var(--border-color);&quot;&gt;&lt;li style=&quot;border-color: var(--border-color);&quot;&gt;&lt;span style=&quot;background-color: rgb(126, 166, 224);&quot;&gt;device&lt;/span&gt;&lt;/li&gt;&lt;/ul&gt;" style="text;strokeColor=none;fillColor=none;align=left;verticalAlign=middle;spacingLeft=4;spacingRight=4;overflow=hidden;points=[[0,0.5],[1,0.5]];portConstraint=eastwest;rotatable=0;whiteSpace=wrap;html=1;" vertex="1" parent="ItmN7lF8-UJQIYZvULHr-33">
          <mxGeometry y="20" width="250" height="30" as="geometry" />
        </mxCell>
        <mxCell id="ItmN7lF8-UJQIYZvULHr-35" value="Items" style="swimlane;fontStyle=0;childLayout=stackLayout;horizontal=1;startSize=30;horizontalStack=0;resizeParent=1;resizeParentMax=0;resizeLast=0;collapsible=1;marginBottom=0;whiteSpace=wrap;html=1;" vertex="1" parent="ItmN7lF8-UJQIYZvULHr-28">
          <mxGeometry y="220" width="250" height="60" as="geometry" />
        </mxCell>
        <mxCell id="ItmN7lF8-UJQIYZvULHr-36" value="Наследники от AQ_param_item, для каждого типа данных свой" style="text;strokeColor=none;fillColor=none;align=left;verticalAlign=middle;spacingLeft=4;spacingRight=4;overflow=hidden;points=[[0,0.5],[1,0.5]];portConstraint=eastwest;rotatable=0;whiteSpace=wrap;html=1;" vertex="1" parent="ItmN7lF8-UJQIYZvULHr-35">
          <mxGeometry y="30" width="250" height="30" as="geometry" />
        </mxCell>
        <mxCell id="ItmN7lF8-UJQIYZvULHr-37" value="" style="endArrow=classic;html=1;rounded=0;entryX=-0.004;entryY=0.088;entryDx=0;entryDy=0;entryPerimeter=0;edgeStyle=orthogonalEdgeStyle;dashed=1;strokeWidth=2;" edge="1" parent="1" target="ItmN7lF8-UJQIYZvULHr-28">
          <mxGeometry width="50" height="50" relative="1" as="geometry">
            <mxPoint x="500" y="190" as="sourcePoint" />
            <mxPoint x="800" y="90" as="targetPoint" />
            <Array as="points">
              <mxPoint x="500" y="191" />
              <mxPoint x="610" y="191" />
              <mxPoint x="610" y="35" />
            </Array>
          </mxGeometry>
        </mxCell>
        <mxCell id="ItmN7lF8-UJQIYZvULHr-38" value="" style="endArrow=classic;html=1;rounded=0;exitX=0.745;exitY=-0.122;exitDx=0;exitDy=0;exitPerimeter=0;entryX=-0.009;entryY=0.026;entryDx=0;entryDy=0;entryPerimeter=0;edgeStyle=orthogonalEdgeStyle;dashed=1;strokeWidth=2;" edge="1" parent="1" source="ItmN7lF8-UJQIYZvULHr-13" target="ItmN7lF8-UJQIYZvULHr-14">
          <mxGeometry width="50" height="50" relative="1" as="geometry">
            <mxPoint x="340" y="170" as="sourcePoint" />
            <mxPoint x="390" y="120" as="targetPoint" />
          </mxGeometry>
        </mxCell>
        <mxCell id="ItmN7lF8-UJQIYZvULHr-39" value="AQ_ParamItem(QStandardItem)&lt;br&gt;&amp;nbsp;&lt;font style=&quot;font-size: 10px;&quot;&gt;&lt;i style=&quot;font-weight: normal;&quot;&gt;(owner -&amp;nbsp;&lt;/i&gt;AQ_TreeItemModel&lt;i style=&quot;font-weight: normal;&quot;&gt;)&lt;/i&gt;&lt;/font&gt;" style="swimlane;whiteSpace=wrap;html=1;startSize=40;fillColor=#d5e8d4;strokeColor=#82b366;" vertex="1" parent="1">
          <mxGeometry x="660" y="290" width="250" height="320" as="geometry" />
        </mxCell>
        <mxCell id="ItmN7lF8-UJQIYZvULHr-40" value="&lt;b&gt;-Parent - None&lt;/b&gt;" style="text;html=1;align=center;verticalAlign=middle;resizable=0;points=[];autosize=1;strokeColor=none;fillColor=none;" vertex="1" parent="ItmN7lF8-UJQIYZvULHr-39">
          <mxGeometry y="40" width="110" height="30" as="geometry" />
        </mxCell>
        <mxCell id="ItmN7lF8-UJQIYZvULHr-41" value="Methods" style="swimlane;fontStyle=0;childLayout=stackLayout;horizontal=1;startSize=20;horizontalStack=0;resizeParent=1;resizeParentMax=0;resizeLast=0;collapsible=1;marginBottom=0;whiteSpace=wrap;html=1;" vertex="1" parent="ItmN7lF8-UJQIYZvULHr-39">
          <mxGeometry y="150" width="250" height="170" as="geometry" />
        </mxCell>
        <mxCell id="ItmN7lF8-UJQIYZvULHr-42" value="&lt;ul&gt;&lt;li&gt;&lt;span style=&quot;background-color: initial;&quot;&gt;get_param_attributes&lt;/span&gt;&lt;br&gt;&lt;/li&gt;&lt;/ul&gt;" style="text;strokeColor=none;fillColor=none;align=left;verticalAlign=middle;spacingLeft=4;spacingRight=4;overflow=hidden;points=[[0,0.5],[1,0.5]];portConstraint=eastwest;rotatable=0;whiteSpace=wrap;html=1;" vertex="1" parent="ItmN7lF8-UJQIYZvULHr-41">
          <mxGeometry y="20" width="250" height="30" as="geometry" />
        </mxCell>
        <mxCell id="ItmN7lF8-UJQIYZvULHr-43" value="&lt;ul&gt;&lt;li&gt;&lt;span style=&quot;background-color: initial;&quot;&gt;get_editor&lt;/span&gt;&lt;br&gt;&lt;/li&gt;&lt;/ul&gt;" style="text;strokeColor=none;fillColor=none;align=left;verticalAlign=middle;spacingLeft=4;spacingRight=4;overflow=hidden;points=[[0,0.5],[1,0.5]];portConstraint=eastwest;rotatable=0;whiteSpace=wrap;html=1;" vertex="1" parent="ItmN7lF8-UJQIYZvULHr-41">
          <mxGeometry y="50" width="250" height="30" as="geometry" />
        </mxCell>
        <mxCell id="ItmN7lF8-UJQIYZvULHr-44" value="&lt;ul style=&quot;border-color: var(--border-color);&quot;&gt;&lt;li style=&quot;border-color: var(--border-color);&quot;&gt;set_last_value_from_device&lt;div style=&quot;font-family: &amp;quot;JetBrains Mono&amp;quot;, monospace;&quot;&gt;&lt;/div&gt;&lt;/li&gt;&lt;/ul&gt;" style="text;strokeColor=none;fillColor=none;align=left;verticalAlign=middle;spacingLeft=4;spacingRight=4;overflow=hidden;points=[[0,0.5],[1,0.5]];portConstraint=eastwest;rotatable=0;whiteSpace=wrap;html=1;" vertex="1" parent="ItmN7lF8-UJQIYZvULHr-41">
          <mxGeometry y="80" width="250" height="30" as="geometry" />
        </mxCell>
        <mxCell id="ItmN7lF8-UJQIYZvULHr-45" value="&lt;ul&gt;&lt;li&gt;&lt;span style=&quot;background-color: initial;&quot;&gt;synchro_last_value_and_value&lt;/span&gt;&lt;br&gt;&lt;/li&gt;&lt;/ul&gt;" style="text;strokeColor=none;fillColor=none;align=left;verticalAlign=middle;spacingLeft=4;spacingRight=4;overflow=hidden;points=[[0,0.5],[1,0.5]];portConstraint=eastwest;rotatable=0;whiteSpace=wrap;html=1;" vertex="1" parent="ItmN7lF8-UJQIYZvULHr-41">
          <mxGeometry y="110" width="250" height="30" as="geometry" />
        </mxCell>
        <mxCell id="ItmN7lF8-UJQIYZvULHr-46" value="&lt;ul&gt;&lt;li&gt;&lt;span style=&quot;background-color: initial;&quot;&gt;get_status&lt;/span&gt;&lt;br&gt;&lt;/li&gt;&lt;/ul&gt;" style="text;strokeColor=none;fillColor=none;align=left;verticalAlign=middle;spacingLeft=4;spacingRight=4;overflow=hidden;points=[[0,0.5],[1,0.5]];portConstraint=eastwest;rotatable=0;whiteSpace=wrap;html=1;" vertex="1" parent="ItmN7lF8-UJQIYZvULHr-41">
          <mxGeometry y="140" width="250" height="30" as="geometry" />
        </mxCell>
        <mxCell id="ItmN7lF8-UJQIYZvULHr-47" value="fields" style="swimlane;fontStyle=0;childLayout=stackLayout;horizontal=1;startSize=20;horizontalStack=0;resizeParent=1;resizeParentMax=0;resizeLast=0;collapsible=1;marginBottom=0;whiteSpace=wrap;html=1;" vertex="1" parent="ItmN7lF8-UJQIYZvULHr-39">
          <mxGeometry y="70" width="250" height="80" as="geometry" />
        </mxCell>
        <mxCell id="ItmN7lF8-UJQIYZvULHr-48" value="&lt;ul style=&quot;border-color: var(--border-color);&quot;&gt;&lt;li style=&quot;border-color: var(--border-color);&quot;&gt;value&lt;/li&gt;&lt;/ul&gt;" style="text;strokeColor=none;fillColor=none;align=left;verticalAlign=middle;spacingLeft=4;spacingRight=4;overflow=hidden;points=[[0,0.5],[1,0.5]];portConstraint=eastwest;rotatable=0;whiteSpace=wrap;html=1;" vertex="1" parent="ItmN7lF8-UJQIYZvULHr-47">
          <mxGeometry y="20" width="250" height="30" as="geometry" />
        </mxCell>
        <mxCell id="ItmN7lF8-UJQIYZvULHr-49" value="&lt;ul style=&quot;border-color: var(--border-color);&quot;&gt;&lt;li style=&quot;border-color: var(--border-color);&quot;&gt;last_value_from_device&lt;/li&gt;&lt;/ul&gt;" style="text;strokeColor=none;fillColor=none;align=left;verticalAlign=middle;spacingLeft=4;spacingRight=4;overflow=hidden;points=[[0,0.5],[1,0.5]];portConstraint=eastwest;rotatable=0;whiteSpace=wrap;html=1;" vertex="1" parent="ItmN7lF8-UJQIYZvULHr-47">
          <mxGeometry y="50" width="250" height="30" as="geometry" />
        </mxCell>
        <mxCell id="ItmN7lF8-UJQIYZvULHr-50" value="AQ_WatchListManagerFrame&lt;br&gt;(QFrame):&amp;nbsp;&lt;br&gt;&lt;font style=&quot;font-size: 10px;&quot;&gt;&lt;i style=&quot;font-weight: normal;&quot;&gt;(owner - MainFieldFrame)&lt;/i&gt;&lt;/font&gt;" style="swimlane;whiteSpace=wrap;html=1;startSize=40;fillColor=#ffe6cc;strokeColor=#d79b00;" vertex="1" parent="1">
          <mxGeometry x="1050" y="-440" width="250" height="430" as="geometry" />
        </mxCell>
        <mxCell id="ItmN7lF8-UJQIYZvULHr-51" value="&lt;b&gt;-Parent -&amp;nbsp;&lt;/b&gt;&lt;i style=&quot;border-color: var(--border-color); font-size: 10px;&quot;&gt;MainFieldFrame&lt;/i&gt;" style="text;html=1;align=center;verticalAlign=middle;resizable=0;points=[];autosize=1;strokeColor=none;fillColor=none;" vertex="1" parent="ItmN7lF8-UJQIYZvULHr-50">
          <mxGeometry y="40" width="150" height="30" as="geometry" />
        </mxCell>
        <mxCell id="ItmN7lF8-UJQIYZvULHr-52" value="Methods" style="swimlane;fontStyle=0;childLayout=stackLayout;horizontal=1;startSize=20;horizontalStack=0;resizeParent=1;resizeParentMax=0;resizeLast=0;collapsible=1;marginBottom=0;whiteSpace=wrap;html=1;" vertex="1" parent="ItmN7lF8-UJQIYZvULHr-50">
          <mxGeometry y="200" width="250" height="230" as="geometry" />
        </mxCell>
        <mxCell id="ItmN7lF8-UJQIYZvULHr-53" value="&lt;ul&gt;&lt;li&gt;add_new_devices_trees (*EventM)&lt;br&gt;&lt;/li&gt;&lt;/ul&gt;" style="text;strokeColor=none;fillColor=none;align=left;verticalAlign=middle;spacingLeft=4;spacingRight=4;overflow=hidden;points=[[0,0.5],[1,0.5]];portConstraint=eastwest;rotatable=0;whiteSpace=wrap;html=1;" vertex="1" parent="ItmN7lF8-UJQIYZvULHr-52">
          <mxGeometry y="20" width="250" height="30" as="geometry" />
        </mxCell>
        <mxCell id="ItmN7lF8-UJQIYZvULHr-54" value="&lt;ul&gt;&lt;li&gt;set_active_device_tree (*EventM)&lt;/li&gt;&lt;/ul&gt;" style="text;strokeColor=none;fillColor=none;align=left;verticalAlign=middle;spacingLeft=4;spacingRight=4;overflow=hidden;points=[[0,0.5],[1,0.5]];portConstraint=eastwest;rotatable=0;whiteSpace=wrap;html=1;" vertex="1" parent="ItmN7lF8-UJQIYZvULHr-52">
          <mxGeometry y="50" width="250" height="30" as="geometry" />
        </mxCell>
        <mxCell id="ItmN7lF8-UJQIYZvULHr-55" value="&lt;ul&gt;&lt;li&gt;update_device_values (*EventM)&lt;/li&gt;&lt;/ul&gt;" style="text;strokeColor=none;fillColor=none;align=left;verticalAlign=middle;spacingLeft=4;spacingRight=4;overflow=hidden;points=[[0,0.5],[1,0.5]];portConstraint=eastwest;rotatable=0;whiteSpace=wrap;html=1;" vertex="1" parent="ItmN7lF8-UJQIYZvULHr-52">
          <mxGeometry y="80" width="250" height="30" as="geometry" />
        </mxCell>
        <mxCell id="ItmN7lF8-UJQIYZvULHr-56" value="&lt;ul&gt;&lt;li&gt;delete_device_view (*EventM)&lt;/li&gt;&lt;/ul&gt;" style="text;strokeColor=none;fillColor=none;align=left;verticalAlign=middle;spacingLeft=4;spacingRight=4;overflow=hidden;points=[[0,0.5],[1,0.5]];portConstraint=eastwest;rotatable=0;whiteSpace=wrap;html=1;" vertex="1" parent="ItmN7lF8-UJQIYZvULHr-52">
          <mxGeometry y="110" width="250" height="30" as="geometry" />
        </mxCell>
        <mxCell id="ItmN7lF8-UJQIYZvULHr-57" value="&lt;ul&gt;&lt;li&gt;update_device_param_statuses (*EventM)&lt;/li&gt;&lt;/ul&gt;" style="text;strokeColor=none;fillColor=none;align=left;verticalAlign=middle;spacingLeft=4;spacingRight=4;overflow=hidden;points=[[0,0.5],[1,0.5]];portConstraint=eastwest;rotatable=0;whiteSpace=wrap;html=1;" vertex="1" parent="ItmN7lF8-UJQIYZvULHr-52">
          <mxGeometry y="140" width="250" height="50" as="geometry" />
        </mxCell>
        <mxCell id="ItmN7lF8-UJQIYZvULHr-119" value="&lt;ul&gt;&lt;li&gt;set_editor_by_type&lt;/li&gt;&lt;/ul&gt;" style="text;strokeColor=none;fillColor=none;align=left;verticalAlign=middle;spacingLeft=4;spacingRight=4;overflow=hidden;points=[[0,0.5],[1,0.5]];portConstraint=eastwest;rotatable=0;whiteSpace=wrap;html=1;" vertex="1" parent="ItmN7lF8-UJQIYZvULHr-52">
          <mxGeometry y="190" width="250" height="40" as="geometry" />
        </mxCell>
        <mxCell id="ItmN7lF8-UJQIYZvULHr-58" value="fields" style="swimlane;fontStyle=0;childLayout=stackLayout;horizontal=1;startSize=20;horizontalStack=0;resizeParent=1;resizeParentMax=0;resizeLast=0;collapsible=1;marginBottom=0;whiteSpace=wrap;html=1;" vertex="1" parent="ItmN7lF8-UJQIYZvULHr-50">
          <mxGeometry y="70" width="250" height="130" as="geometry" />
        </mxCell>
        <mxCell id="ItmN7lF8-UJQIYZvULHr-59" value="&lt;ul style=&quot;border-color: var(--border-color);&quot;&gt;&lt;li style=&quot;border-color: var(--border-color);&quot;&gt;&lt;span style=&quot;background-color: rgb(241, 156, 153);&quot;&gt;*event_manager&lt;/span&gt;&lt;/li&gt;&lt;/ul&gt;" style="text;strokeColor=none;fillColor=none;align=left;verticalAlign=middle;spacingLeft=4;spacingRight=4;overflow=hidden;points=[[0,0.5],[1,0.5]];portConstraint=eastwest;rotatable=0;whiteSpace=wrap;html=1;" vertex="1" parent="ItmN7lF8-UJQIYZvULHr-58">
          <mxGeometry y="20" width="250" height="30" as="geometry" />
        </mxCell>
        <mxCell id="ItmN7lF8-UJQIYZvULHr-60" value="&lt;ul style=&quot;border-color: var(--border-color);&quot;&gt;&lt;li style=&quot;border-color: var(--border-color);&quot;&gt;tree_view (AQ_TreeView)&lt;/li&gt;&lt;/ul&gt;" style="text;strokeColor=none;fillColor=none;align=left;verticalAlign=middle;spacingLeft=4;spacingRight=4;overflow=hidden;points=[[0,0.5],[1,0.5]];portConstraint=eastwest;rotatable=0;whiteSpace=wrap;html=1;" vertex="1" parent="ItmN7lF8-UJQIYZvULHr-58">
          <mxGeometry y="50" width="250" height="30" as="geometry" />
        </mxCell>
        <mxCell id="ItmN7lF8-UJQIYZvULHr-61" value="&lt;ul style=&quot;border-color: var(--border-color);&quot;&gt;&lt;li style=&quot;border-color: var(--border-color);&quot;&gt;devices_view_trees (AQ_TreeViewItemModel)&lt;/li&gt;&lt;/ul&gt;" style="text;strokeColor=none;fillColor=none;align=left;verticalAlign=middle;spacingLeft=4;spacingRight=4;overflow=hidden;points=[[0,0.5],[1,0.5]];portConstraint=eastwest;rotatable=0;whiteSpace=wrap;html=1;" vertex="1" parent="ItmN7lF8-UJQIYZvULHr-58">
          <mxGeometry y="80" width="250" height="50" as="geometry" />
        </mxCell>
        <mxCell id="ItmN7lF8-UJQIYZvULHr-62" value="AQ_WatchListTableModel&lt;br&gt;(QStandardItemModel)&lt;br&gt;&amp;nbsp;&lt;font style=&quot;font-size: 10px;&quot;&gt;&lt;i style=&quot;font-weight: normal;&quot;&gt;(owner -&amp;nbsp;&lt;/i&gt;&lt;span style=&quot;font-weight: normal;&quot;&gt;&lt;i&gt;AQ_treeView_manager&lt;/i&gt;&lt;/span&gt;&lt;i style=&quot;font-weight: normal;&quot;&gt;)&lt;/i&gt;&lt;/font&gt;" style="swimlane;whiteSpace=wrap;html=1;startSize=60;fillColor=#ffe6cc;strokeColor=#d79b00;" vertex="1" parent="1">
          <mxGeometry x="1040" y="10" width="250" height="430" as="geometry" />
        </mxCell>
        <mxCell id="ItmN7lF8-UJQIYZvULHr-63" value="&lt;b&gt;-Parent - None&lt;/b&gt;" style="text;html=1;align=center;verticalAlign=middle;resizable=0;points=[];autosize=1;strokeColor=none;fillColor=none;" vertex="1" parent="ItmN7lF8-UJQIYZvULHr-62">
          <mxGeometry x="-5" y="60" width="110" height="30" as="geometry" />
        </mxCell>
        <mxCell id="ItmN7lF8-UJQIYZvULHr-64" value="Methods" style="swimlane;fontStyle=0;childLayout=stackLayout;horizontal=1;startSize=20;horizontalStack=0;resizeParent=1;resizeParentMax=0;resizeLast=0;collapsible=1;marginBottom=0;whiteSpace=wrap;html=1;" vertex="1" parent="ItmN7lF8-UJQIYZvULHr-62">
          <mxGeometry y="170" width="250" height="200" as="geometry" />
        </mxCell>
        <mxCell id="ItmN7lF8-UJQIYZvULHr-65" value="&lt;ul&gt;&lt;li&gt;update_parameter_value&lt;br&gt;&lt;/li&gt;&lt;/ul&gt;" style="text;strokeColor=none;fillColor=none;align=left;verticalAlign=middle;spacingLeft=4;spacingRight=4;overflow=hidden;points=[[0,0.5],[1,0.5]];portConstraint=eastwest;rotatable=0;whiteSpace=wrap;html=1;" vertex="1" parent="ItmN7lF8-UJQIYZvULHr-64">
          <mxGeometry y="20" width="250" height="30" as="geometry" />
        </mxCell>
        <mxCell id="ItmN7lF8-UJQIYZvULHr-66" value="&lt;ul&gt;&lt;li&gt;update_all_params_value&lt;br&gt;&lt;/li&gt;&lt;/ul&gt;" style="text;strokeColor=none;fillColor=none;align=left;verticalAlign=middle;spacingLeft=4;spacingRight=4;overflow=hidden;points=[[0,0.5],[1,0.5]];portConstraint=eastwest;rotatable=0;whiteSpace=wrap;html=1;" vertex="1" parent="ItmN7lF8-UJQIYZvULHr-64">
          <mxGeometry y="50" width="250" height="30" as="geometry" />
        </mxCell>
        <mxCell id="ItmN7lF8-UJQIYZvULHr-67" value="&lt;ul&gt;&lt;li&gt;update_parameter_status&lt;br&gt;&lt;/li&gt;&lt;/ul&gt;" style="text;strokeColor=none;fillColor=none;align=left;verticalAlign=middle;spacingLeft=4;spacingRight=4;overflow=hidden;points=[[0,0.5],[1,0.5]];portConstraint=eastwest;rotatable=0;whiteSpace=wrap;html=1;" vertex="1" parent="ItmN7lF8-UJQIYZvULHr-64">
          <mxGeometry y="80" width="250" height="30" as="geometry" />
        </mxCell>
        <mxCell id="ItmN7lF8-UJQIYZvULHr-68" value="&lt;ul&gt;&lt;li style=&quot;border-color: var(--border-color);&quot;&gt;update_all_params_status&lt;/li&gt;&lt;/ul&gt;" style="text;strokeColor=none;fillColor=none;align=left;verticalAlign=middle;spacingLeft=4;spacingRight=4;overflow=hidden;points=[[0,0.5],[1,0.5]];portConstraint=eastwest;rotatable=0;whiteSpace=wrap;html=1;" vertex="1" parent="ItmN7lF8-UJQIYZvULHr-64">
          <mxGeometry y="110" width="250" height="30" as="geometry" />
        </mxCell>
        <mxCell id="ItmN7lF8-UJQIYZvULHr-69" value="&lt;ul&gt;&lt;li&gt;read_parameter(call device)&lt;br&gt;&lt;/li&gt;&lt;/ul&gt;" style="text;strokeColor=none;fillColor=none;align=left;verticalAlign=middle;spacingLeft=4;spacingRight=4;overflow=hidden;points=[[0,0.5],[1,0.5]];portConstraint=eastwest;rotatable=0;whiteSpace=wrap;html=1;" vertex="1" parent="ItmN7lF8-UJQIYZvULHr-64">
          <mxGeometry y="140" width="250" height="30" as="geometry" />
        </mxCell>
        <mxCell id="ItmN7lF8-UJQIYZvULHr-70" value="&lt;ul&gt;&lt;li&gt;write_parameter(call device)&lt;/li&gt;&lt;/ul&gt;" style="text;strokeColor=none;fillColor=none;align=left;verticalAlign=middle;spacingLeft=4;spacingRight=4;overflow=hidden;points=[[0,0.5],[1,0.5]];portConstraint=eastwest;rotatable=0;whiteSpace=wrap;html=1;" vertex="1" parent="ItmN7lF8-UJQIYZvULHr-64">
          <mxGeometry y="170" width="250" height="30" as="geometry" />
        </mxCell>
        <mxCell id="ItmN7lF8-UJQIYZvULHr-71" value="fields" style="swimlane;fontStyle=0;childLayout=stackLayout;horizontal=1;startSize=20;horizontalStack=0;resizeParent=1;resizeParentMax=0;resizeLast=0;collapsible=1;marginBottom=0;whiteSpace=wrap;html=1;" vertex="1" parent="ItmN7lF8-UJQIYZvULHr-62">
          <mxGeometry y="90" width="250" height="80" as="geometry" />
        </mxCell>
        <mxCell id="ItmN7lF8-UJQIYZvULHr-72" value="&lt;ul style=&quot;border-color: var(--border-color);&quot;&gt;&lt;li style=&quot;border-color: var(--border-color);&quot;&gt;&lt;span style=&quot;background-color: rgb(241, 156, 153);&quot;&gt;event_manager&lt;/span&gt;&lt;/li&gt;&lt;/ul&gt;" style="text;strokeColor=none;fillColor=none;align=left;verticalAlign=middle;spacingLeft=4;spacingRight=4;overflow=hidden;points=[[0,0.5],[1,0.5]];portConstraint=eastwest;rotatable=0;whiteSpace=wrap;html=1;" vertex="1" parent="ItmN7lF8-UJQIYZvULHr-71">
          <mxGeometry y="20" width="250" height="30" as="geometry" />
        </mxCell>
        <mxCell id="ItmN7lF8-UJQIYZvULHr-73" value="&lt;ul style=&quot;border-color: var(--border-color);&quot;&gt;&lt;li style=&quot;border-color: var(--border-color);&quot;&gt;&lt;span style=&quot;background-color: rgb(126, 166, 224);&quot;&gt;device&lt;/span&gt;&lt;/li&gt;&lt;/ul&gt;" style="text;strokeColor=none;fillColor=none;align=left;verticalAlign=middle;spacingLeft=4;spacingRight=4;overflow=hidden;points=[[0,0.5],[1,0.5]];portConstraint=eastwest;rotatable=0;whiteSpace=wrap;html=1;" vertex="1" parent="ItmN7lF8-UJQIYZvULHr-71">
          <mxGeometry y="50" width="250" height="30" as="geometry" />
        </mxCell>
        <mxCell id="ItmN7lF8-UJQIYZvULHr-74" value="Items" style="swimlane;fontStyle=0;childLayout=stackLayout;horizontal=1;startSize=30;horizontalStack=0;resizeParent=1;resizeParentMax=0;resizeLast=0;collapsible=1;marginBottom=0;whiteSpace=wrap;html=1;" vertex="1" parent="ItmN7lF8-UJQIYZvULHr-62">
          <mxGeometry y="370" width="250" height="60" as="geometry" />
        </mxCell>
        <mxCell id="ItmN7lF8-UJQIYZvULHr-75" value="AQ_param_manager_item" style="text;strokeColor=none;fillColor=none;align=left;verticalAlign=middle;spacingLeft=4;spacingRight=4;overflow=hidden;points=[[0,0.5],[1,0.5]];portConstraint=eastwest;rotatable=0;whiteSpace=wrap;html=1;" vertex="1" parent="ItmN7lF8-UJQIYZvULHr-74">
          <mxGeometry y="30" width="250" height="30" as="geometry" />
        </mxCell>
        <mxCell id="ItmN7lF8-UJQIYZvULHr-76" value="" style="endArrow=classic;html=1;rounded=0;exitX=0.08;exitY=0.4;exitDx=0;exitDy=0;exitPerimeter=0;edgeStyle=orthogonalEdgeStyle;dashed=1;strokeWidth=2;entryX=-0.012;entryY=0.107;entryDx=0;entryDy=0;entryPerimeter=0;" edge="1" parent="1" source="ItmN7lF8-UJQIYZvULHr-61" target="ItmN7lF8-UJQIYZvULHr-62">
          <mxGeometry width="50" height="50" relative="1" as="geometry">
            <mxPoint x="1010" y="-180" as="sourcePoint" />
            <mxPoint x="1000" y="70" as="targetPoint" />
            <Array as="points">
              <mxPoint x="990" y="-270" />
              <mxPoint x="990" y="56" />
            </Array>
          </mxGeometry>
        </mxCell>
        <mxCell id="ItmN7lF8-UJQIYZvULHr-77" value="AQ_ParamManagerItem(QStandardItem)&lt;br&gt;&amp;nbsp;&lt;font style=&quot;font-size: 10px;&quot;&gt;&lt;i style=&quot;font-weight: normal;&quot;&gt;(owner -&amp;nbsp;&lt;/i&gt;AQ_TreeViewItemModel&lt;i style=&quot;font-weight: normal;&quot;&gt;)&lt;/i&gt;&lt;/font&gt;" style="swimlane;whiteSpace=wrap;html=1;startSize=60;fillColor=#ffe6cc;strokeColor=#d79b00;" vertex="1" parent="1">
          <mxGeometry x="1040" y="440" width="250" height="460" as="geometry" />
        </mxCell>
        <mxCell id="ItmN7lF8-UJQIYZvULHr-78" value="&lt;b&gt;-Parent - None&lt;/b&gt;" style="text;html=1;align=center;verticalAlign=middle;resizable=0;points=[];autosize=1;strokeColor=none;fillColor=none;" vertex="1" parent="ItmN7lF8-UJQIYZvULHr-77">
          <mxGeometry x="-10" y="60" width="110" height="30" as="geometry" />
        </mxCell>
        <mxCell id="ItmN7lF8-UJQIYZvULHr-79" value="Methods" style="swimlane;fontStyle=0;childLayout=stackLayout;horizontal=1;startSize=20;horizontalStack=0;resizeParent=1;resizeParentMax=0;resizeLast=0;collapsible=1;marginBottom=0;whiteSpace=wrap;html=1;" vertex="1" parent="ItmN7lF8-UJQIYZvULHr-77">
          <mxGeometry y="200" width="250" height="260" as="geometry" />
        </mxCell>
        <mxCell id="ItmN7lF8-UJQIYZvULHr-80" value="&lt;ul&gt;&lt;li&gt;&lt;span style=&quot;background-color: initial;&quot;&gt;get_param_attributes&lt;/span&gt;&lt;br&gt;&lt;/li&gt;&lt;/ul&gt;" style="text;strokeColor=none;fillColor=none;align=left;verticalAlign=middle;spacingLeft=4;spacingRight=4;overflow=hidden;points=[[0,0.5],[1,0.5]];portConstraint=eastwest;rotatable=0;whiteSpace=wrap;html=1;" vertex="1" parent="ItmN7lF8-UJQIYZvULHr-79">
          <mxGeometry y="20" width="250" height="30" as="geometry" />
        </mxCell>
        <mxCell id="ItmN7lF8-UJQIYZvULHr-81" value="&lt;ul&gt;&lt;li&gt;&lt;span style=&quot;background-color: initial;&quot;&gt;get_sourse_item&lt;/span&gt;&lt;br&gt;&lt;/li&gt;&lt;/ul&gt;" style="text;strokeColor=none;fillColor=none;align=left;verticalAlign=middle;spacingLeft=4;spacingRight=4;overflow=hidden;points=[[0,0.5],[1,0.5]];portConstraint=eastwest;rotatable=0;whiteSpace=wrap;html=1;" vertex="1" parent="ItmN7lF8-UJQIYZvULHr-79">
          <mxGeometry y="50" width="250" height="30" as="geometry" />
        </mxCell>
        <mxCell id="ItmN7lF8-UJQIYZvULHr-82" value="&lt;ul&gt;&lt;li&gt;&lt;span style=&quot;background-color: initial;&quot;&gt;get_value&lt;/span&gt;&lt;br&gt;&lt;/li&gt;&lt;/ul&gt;" style="text;strokeColor=none;fillColor=none;align=left;verticalAlign=middle;spacingLeft=4;spacingRight=4;overflow=hidden;points=[[0,0.5],[1,0.5]];portConstraint=eastwest;rotatable=0;whiteSpace=wrap;html=1;" vertex="1" parent="ItmN7lF8-UJQIYZvULHr-79">
          <mxGeometry y="80" width="250" height="30" as="geometry" />
        </mxCell>
        <mxCell id="ItmN7lF8-UJQIYZvULHr-83" value="&lt;ul&gt;&lt;li&gt;&lt;span style=&quot;background-color: initial;&quot;&gt;show_new_value&lt;/span&gt;&lt;br&gt;&lt;/li&gt;&lt;/ul&gt;" style="text;strokeColor=none;fillColor=none;align=left;verticalAlign=middle;spacingLeft=4;spacingRight=4;overflow=hidden;points=[[0,0.5],[1,0.5]];portConstraint=eastwest;rotatable=0;whiteSpace=wrap;html=1;" vertex="1" parent="ItmN7lF8-UJQIYZvULHr-79">
          <mxGeometry y="110" width="250" height="30" as="geometry" />
        </mxCell>
        <mxCell id="ItmN7lF8-UJQIYZvULHr-84" value="&lt;ul&gt;&lt;li&gt;save_editor_object&lt;br&gt;&lt;/li&gt;&lt;/ul&gt;" style="text;strokeColor=none;fillColor=none;align=left;verticalAlign=middle;spacingLeft=4;spacingRight=4;overflow=hidden;points=[[0,0.5],[1,0.5]];portConstraint=eastwest;rotatable=0;whiteSpace=wrap;html=1;" vertex="1" parent="ItmN7lF8-UJQIYZvULHr-79">
          <mxGeometry y="140" width="250" height="30" as="geometry" />
        </mxCell>
        <mxCell id="ItmN7lF8-UJQIYZvULHr-85" value="&lt;ul&gt;&lt;li&gt;get_editor&lt;br&gt;&lt;/li&gt;&lt;/ul&gt;" style="text;strokeColor=none;fillColor=none;align=left;verticalAlign=middle;spacingLeft=4;spacingRight=4;overflow=hidden;points=[[0,0.5],[1,0.5]];portConstraint=eastwest;rotatable=0;whiteSpace=wrap;html=1;" vertex="1" parent="ItmN7lF8-UJQIYZvULHr-79">
          <mxGeometry y="170" width="250" height="30" as="geometry" />
        </mxCell>
        <mxCell id="ItmN7lF8-UJQIYZvULHr-86" value="&lt;ul&gt;&lt;li&gt;save_new_value&lt;br&gt;&lt;/li&gt;&lt;/ul&gt;" style="text;strokeColor=none;fillColor=none;align=left;verticalAlign=middle;spacingLeft=4;spacingRight=4;overflow=hidden;points=[[0,0.5],[1,0.5]];portConstraint=eastwest;rotatable=0;whiteSpace=wrap;html=1;" vertex="1" parent="ItmN7lF8-UJQIYZvULHr-79">
          <mxGeometry y="200" width="250" height="30" as="geometry" />
        </mxCell>
        <mxCell id="ItmN7lF8-UJQIYZvULHr-87" value="&lt;ul&gt;&lt;li&gt;update_status&lt;br&gt;&lt;/li&gt;&lt;/ul&gt;" style="text;strokeColor=none;fillColor=none;align=left;verticalAlign=middle;spacingLeft=4;spacingRight=4;overflow=hidden;points=[[0,0.5],[1,0.5]];portConstraint=eastwest;rotatable=0;whiteSpace=wrap;html=1;" vertex="1" parent="ItmN7lF8-UJQIYZvULHr-79">
          <mxGeometry y="230" width="250" height="30" as="geometry" />
        </mxCell>
        <mxCell id="ItmN7lF8-UJQIYZvULHr-88" value="fields" style="swimlane;fontStyle=0;childLayout=stackLayout;horizontal=1;startSize=20;horizontalStack=0;resizeParent=1;resizeParentMax=0;resizeLast=0;collapsible=1;marginBottom=0;whiteSpace=wrap;html=1;" vertex="1" parent="ItmN7lF8-UJQIYZvULHr-77">
          <mxGeometry y="90" width="250" height="110" as="geometry" />
        </mxCell>
        <mxCell id="ItmN7lF8-UJQIYZvULHr-89" value="&lt;ul style=&quot;border-color: var(--border-color);&quot;&gt;&lt;li style=&quot;border-color: var(--border-color);&quot;&gt;*sourse_item(AQ_param_item)&lt;/li&gt;&lt;/ul&gt;" style="text;strokeColor=none;fillColor=none;align=left;verticalAlign=middle;spacingLeft=4;spacingRight=4;overflow=hidden;points=[[0,0.5],[1,0.5]];portConstraint=eastwest;rotatable=0;whiteSpace=wrap;html=1;" vertex="1" parent="ItmN7lF8-UJQIYZvULHr-88">
          <mxGeometry y="20" width="250" height="30" as="geometry" />
        </mxCell>
        <mxCell id="ItmN7lF8-UJQIYZvULHr-90" value="&lt;ul style=&quot;border-color: var(--border-color);&quot;&gt;&lt;li style=&quot;border-color: var(--border-color);&quot;&gt;*editor_object(&quot;Delegate Editor&quot;)&lt;/li&gt;&lt;/ul&gt;" style="text;strokeColor=none;fillColor=none;align=left;verticalAlign=middle;spacingLeft=4;spacingRight=4;overflow=hidden;points=[[0,0.5],[1,0.5]];portConstraint=eastwest;rotatable=0;whiteSpace=wrap;html=1;" vertex="1" parent="ItmN7lF8-UJQIYZvULHr-88">
          <mxGeometry y="50" width="250" height="30" as="geometry" />
        </mxCell>
        <mxCell id="ItmN7lF8-UJQIYZvULHr-91" value="&lt;ul style=&quot;border-color: var(--border-color);&quot;&gt;&lt;li style=&quot;border-color: var(--border-color);&quot;&gt;param_status&lt;/li&gt;&lt;/ul&gt;" style="text;strokeColor=none;fillColor=none;align=left;verticalAlign=middle;spacingLeft=4;spacingRight=4;overflow=hidden;points=[[0,0.5],[1,0.5]];portConstraint=eastwest;rotatable=0;whiteSpace=wrap;html=1;" vertex="1" parent="ItmN7lF8-UJQIYZvULHr-88">
          <mxGeometry y="80" width="250" height="30" as="geometry" />
        </mxCell>
        <mxCell id="ItmN7lF8-UJQIYZvULHr-92" value="" style="endArrow=classic;html=1;rounded=0;exitX=0.08;exitY=0.667;exitDx=0;exitDy=0;exitPerimeter=0;entryX=0.997;entryY=0.104;entryDx=0;entryDy=0;entryPerimeter=0;edgeStyle=orthogonalEdgeStyle;strokeWidth=3;" edge="1" parent="1" source="ItmN7lF8-UJQIYZvULHr-89" target="ItmN7lF8-UJQIYZvULHr-39">
          <mxGeometry width="50" height="50" relative="1" as="geometry">
            <mxPoint x="1030" y="790" as="sourcePoint" />
            <mxPoint x="1070" y="630" as="targetPoint" />
            <Array as="points">
              <mxPoint x="960" y="510" />
              <mxPoint x="960" y="323" />
              <mxPoint x="915" y="323" />
            </Array>
          </mxGeometry>
        </mxCell>
        <mxCell id="ItmN7lF8-UJQIYZvULHr-93" value="AQ_WatchListTableView(QTableView)&lt;br&gt;&amp;nbsp;&lt;font style=&quot;&quot;&gt;&lt;i style=&quot;&quot;&gt;&lt;span style=&quot;font-weight: normal;&quot;&gt;(owner -&lt;/span&gt; &lt;span style=&quot;font-size: 10px; font-weight: 400;&quot;&gt;AQ_treeView_frame&lt;/span&gt;&lt;span style=&quot;font-size: 10px; font-weight: normal;&quot;&gt;)&lt;/span&gt;&lt;/i&gt;&lt;/font&gt;" style="swimlane;whiteSpace=wrap;html=1;startSize=60;fillColor=#e1d5e7;strokeColor=#9673a6;" vertex="1" parent="1">
          <mxGeometry x="1050" y="-700" width="250" height="240" as="geometry" />
        </mxCell>
        <mxCell id="ItmN7lF8-UJQIYZvULHr-94" value="&lt;b&gt;-Parent -&amp;nbsp;AQ_treeView_frame&lt;/b&gt;" style="text;html=1;align=center;verticalAlign=middle;resizable=0;points=[];autosize=1;strokeColor=none;fillColor=none;" vertex="1" parent="ItmN7lF8-UJQIYZvULHr-93">
          <mxGeometry y="60" width="190" height="30" as="geometry" />
        </mxCell>
        <mxCell id="ItmN7lF8-UJQIYZvULHr-95" value="Methods" style="swimlane;fontStyle=0;childLayout=stackLayout;horizontal=1;startSize=20;horizontalStack=0;resizeParent=1;resizeParentMax=0;resizeLast=0;collapsible=1;marginBottom=0;whiteSpace=wrap;html=1;" vertex="1" parent="ItmN7lF8-UJQIYZvULHr-93">
          <mxGeometry y="140" width="250" height="50" as="geometry" />
        </mxCell>
        <mxCell id="ItmN7lF8-UJQIYZvULHr-96" value="&lt;ul&gt;&lt;li&gt;&lt;br&gt;&lt;/li&gt;&lt;/ul&gt;" style="text;strokeColor=none;fillColor=none;align=left;verticalAlign=middle;spacingLeft=4;spacingRight=4;overflow=hidden;points=[[0,0.5],[1,0.5]];portConstraint=eastwest;rotatable=0;whiteSpace=wrap;html=1;" vertex="1" parent="ItmN7lF8-UJQIYZvULHr-95">
          <mxGeometry y="20" width="250" height="30" as="geometry" />
        </mxCell>
        <mxCell id="ItmN7lF8-UJQIYZvULHr-97" value="fields" style="swimlane;fontStyle=0;childLayout=stackLayout;horizontal=1;startSize=20;horizontalStack=0;resizeParent=1;resizeParentMax=0;resizeLast=0;collapsible=1;marginBottom=0;whiteSpace=wrap;html=1;" vertex="1" parent="ItmN7lF8-UJQIYZvULHr-93">
          <mxGeometry y="90" width="250" height="50" as="geometry" />
        </mxCell>
        <mxCell id="ItmN7lF8-UJQIYZvULHr-98" value="&lt;ul style=&quot;border-color: var(--border-color);&quot;&gt;&lt;li style=&quot;border-color: var(--border-color);&quot;&gt;&lt;br&gt;&lt;/li&gt;&lt;/ul&gt;" style="text;strokeColor=none;fillColor=none;align=left;verticalAlign=middle;spacingLeft=4;spacingRight=4;overflow=hidden;points=[[0,0.5],[1,0.5]];portConstraint=eastwest;rotatable=0;whiteSpace=wrap;html=1;" vertex="1" parent="ItmN7lF8-UJQIYZvULHr-97">
          <mxGeometry y="20" width="250" height="30" as="geometry" />
        </mxCell>
        <mxCell id="ItmN7lF8-UJQIYZvULHr-99" value="Model" style="swimlane;fontStyle=0;childLayout=stackLayout;horizontal=1;startSize=20;horizontalStack=0;resizeParent=1;resizeParentMax=0;resizeLast=0;collapsible=1;marginBottom=0;whiteSpace=wrap;html=1;" vertex="1" parent="ItmN7lF8-UJQIYZvULHr-93">
          <mxGeometry y="190" width="250" height="50" as="geometry" />
        </mxCell>
        <mxCell id="ItmN7lF8-UJQIYZvULHr-100" value="&lt;ul&gt;&lt;li&gt;AQ_TreeViewItemModel&lt;br style=&quot;border-color: var(--border-color); font-weight: 700; text-align: center;&quot;&gt;&lt;/li&gt;&lt;/ul&gt;" style="text;strokeColor=none;fillColor=none;align=left;verticalAlign=middle;spacingLeft=4;spacingRight=4;overflow=hidden;points=[[0,0.5],[1,0.5]];portConstraint=eastwest;rotatable=0;whiteSpace=wrap;html=1;" vertex="1" parent="ItmN7lF8-UJQIYZvULHr-99">
          <mxGeometry y="20" width="250" height="30" as="geometry" />
        </mxCell>
        <mxCell id="ItmN7lF8-UJQIYZvULHr-101" value="" style="endArrow=classic;html=1;rounded=0;entryX=0.001;entryY=0.102;entryDx=0;entryDy=0;entryPerimeter=0;exitX=0.08;exitY=0.667;exitDx=0;exitDy=0;exitPerimeter=0;edgeStyle=orthogonalEdgeStyle;dashed=1;strokeWidth=2;" edge="1" parent="1" source="ItmN7lF8-UJQIYZvULHr-60" target="ItmN7lF8-UJQIYZvULHr-93">
          <mxGeometry width="50" height="50" relative="1" as="geometry">
            <mxPoint x="1020" y="-230" as="sourcePoint" />
            <mxPoint x="1110" y="-460" as="targetPoint" />
            <Array as="points">
              <mxPoint x="990" y="-300" />
              <mxPoint x="990" y="-675" />
            </Array>
          </mxGeometry>
        </mxCell>
        <mxCell id="ItmN7lF8-UJQIYZvULHr-102" value="" style="endArrow=classic;html=1;rounded=0;entryX=0.997;entryY=0.12;entryDx=0;entryDy=0;entryPerimeter=0;exitX=0.8;exitY=0.667;exitDx=0;exitDy=0;exitPerimeter=0;edgeStyle=orthogonalEdgeStyle;strokeWidth=2;" edge="1" parent="1" source="ItmN7lF8-UJQIYZvULHr-100" target="ItmN7lF8-UJQIYZvULHr-62">
          <mxGeometry width="50" height="50" relative="1" as="geometry">
            <mxPoint x="1330" y="-470" as="sourcePoint" />
            <mxPoint x="1350" y="40" as="targetPoint" />
            <Array as="points">
              <mxPoint x="1350" y="-470" />
              <mxPoint x="1350" y="60" />
              <mxPoint x="1291" y="60" />
              <mxPoint x="1291" y="62" />
            </Array>
          </mxGeometry>
        </mxCell>
        <mxCell id="ItmN7lF8-UJQIYZvULHr-110" value="&quot;Delegate Editor&quot;&lt;br&gt;AQ_TreeLineEdit(QLineEdit)&lt;br&gt;&lt;span style=&quot;font-weight: normal;&quot;&gt;&amp;nbsp;&lt;font style=&quot;&quot;&gt;&lt;i style=&quot;&quot;&gt;(owner -&amp;nbsp;&lt;/i&gt;AQ_TreeView&lt;i style=&quot;&quot;&gt;)&lt;/i&gt;&lt;/font&gt;&lt;/span&gt;" style="swimlane;whiteSpace=wrap;html=1;startSize=60;fillColor=#e1d5e7;strokeColor=#9673a6;" vertex="1" parent="1">
          <mxGeometry x="1460" y="380" width="250" height="220" as="geometry" />
        </mxCell>
        <mxCell id="ItmN7lF8-UJQIYZvULHr-111" value="&lt;b&gt;-Parent -&amp;nbsp;AQ_TreeView&lt;/b&gt;" style="text;html=1;align=center;verticalAlign=middle;resizable=0;points=[];autosize=1;strokeColor=none;fillColor=none;" vertex="1" parent="ItmN7lF8-UJQIYZvULHr-110">
          <mxGeometry x="20" y="60" width="150" height="30" as="geometry" />
        </mxCell>
        <mxCell id="ItmN7lF8-UJQIYZvULHr-112" value="Methods" style="swimlane;fontStyle=0;childLayout=stackLayout;horizontal=1;startSize=20;horizontalStack=0;resizeParent=1;resizeParentMax=0;resizeLast=0;collapsible=1;marginBottom=0;whiteSpace=wrap;html=1;" vertex="1" parent="ItmN7lF8-UJQIYZvULHr-110">
          <mxGeometry y="140" width="250" height="80" as="geometry" />
        </mxCell>
        <mxCell id="ItmN7lF8-UJQIYZvULHr-113" value="&lt;ul&gt;&lt;li&gt;set_value(set_text)&lt;/li&gt;&lt;/ul&gt;" style="text;strokeColor=none;fillColor=none;align=left;verticalAlign=middle;spacingLeft=4;spacingRight=4;overflow=hidden;points=[[0,0.5],[1,0.5]];portConstraint=eastwest;rotatable=0;whiteSpace=wrap;html=1;" vertex="1" parent="ItmN7lF8-UJQIYZvULHr-112">
          <mxGeometry y="20" width="250" height="30" as="geometry" />
        </mxCell>
        <mxCell id="ItmN7lF8-UJQIYZvULHr-114" value="&lt;ul&gt;&lt;li&gt;set_new_value_handler&lt;/li&gt;&lt;/ul&gt;" style="text;strokeColor=none;fillColor=none;align=left;verticalAlign=middle;spacingLeft=4;spacingRight=4;overflow=hidden;points=[[0,0.5],[1,0.5]];portConstraint=eastwest;rotatable=0;whiteSpace=wrap;html=1;" vertex="1" parent="ItmN7lF8-UJQIYZvULHr-112">
          <mxGeometry y="50" width="250" height="30" as="geometry" />
        </mxCell>
        <mxCell id="ItmN7lF8-UJQIYZvULHr-115" value="fields" style="swimlane;fontStyle=0;childLayout=stackLayout;horizontal=1;startSize=20;horizontalStack=0;resizeParent=1;resizeParentMax=0;resizeLast=0;collapsible=1;marginBottom=0;whiteSpace=wrap;html=1;" vertex="1" parent="ItmN7lF8-UJQIYZvULHr-110">
          <mxGeometry y="90" width="250" height="50" as="geometry" />
        </mxCell>
        <mxCell id="ItmN7lF8-UJQIYZvULHr-116" value="&lt;ul style=&quot;border-color: var(--border-color);&quot;&gt;&lt;li style=&quot;border-color: var(--border-color);&quot;&gt;&lt;br&gt;&lt;/li&gt;&lt;/ul&gt;" style="text;strokeColor=none;fillColor=none;align=left;verticalAlign=middle;spacingLeft=4;spacingRight=4;overflow=hidden;points=[[0,0.5],[1,0.5]];portConstraint=eastwest;rotatable=0;whiteSpace=wrap;html=1;" vertex="1" parent="ItmN7lF8-UJQIYZvULHr-115">
          <mxGeometry y="20" width="250" height="30" as="geometry" />
        </mxCell>
        <mxCell id="ItmN7lF8-UJQIYZvULHr-118" value="" style="endArrow=classic;html=1;rounded=0;exitX=0.92;exitY=0.667;exitDx=0;exitDy=0;exitPerimeter=0;entryX=-0.005;entryY=0.185;entryDx=0;entryDy=0;entryPerimeter=0;strokeWidth=2;edgeStyle=orthogonalEdgeStyle;" edge="1" parent="1" source="ItmN7lF8-UJQIYZvULHr-90" target="ItmN7lF8-UJQIYZvULHr-110">
          <mxGeometry width="50" height="50" relative="1" as="geometry">
            <mxPoint x="1320" y="540" as="sourcePoint" />
            <mxPoint x="1480" y="430" as="targetPoint" />
            <Array as="points">
              <mxPoint x="1380" y="600" />
              <mxPoint x="1380" y="420" />
              <mxPoint x="1459" y="420" />
            </Array>
          </mxGeometry>
        </mxCell>
        <mxCell id="ItmN7lF8-UJQIYZvULHr-121" value="" style="endArrow=classic;html=1;rounded=0;edgeStyle=orthogonalEdgeStyle;dashed=1;strokeWidth=2;entryX=0.438;entryY=-0.012;entryDx=0;entryDy=0;entryPerimeter=0;exitX=0.84;exitY=0.5;exitDx=0;exitDy=0;exitPerimeter=0;" edge="1" parent="1" source="ItmN7lF8-UJQIYZvULHr-119" target="ItmN7lF8-UJQIYZvULHr-110">
          <mxGeometry width="50" height="50" relative="1" as="geometry">
            <mxPoint x="1320" y="-30" as="sourcePoint" />
            <mxPoint x="1507" y="226" as="targetPoint" />
            <Array as="points">
              <mxPoint x="1570" y="-30" />
            </Array>
          </mxGeometry>
        </mxCell>
      </root>
    </mxGraphModel>
  </diagram>
</mxfile>
